<svg xmlns="http://www.w3.org/2000/svg" xmlns:xlink="http://www.w3.org/1999/xlink" version="1.1" x="0px" y="0px" viewBox="0 0 100 100" style="enable-background:new 0 0 100 100;" xml:space="preserve"><path d="M89,23.375H67.09625C66.79327,15.96033,59.25128,10,50,10s-16.79327,5.96033-17.09625,13.375H11c-0.55225,0-1,0.44775-1,1  v29.42236c0,2.37195,1.42645,4.41376,3.46484,5.32239v22.79578c0,4.45801,3.62646,8.08447,8.08447,8.08447h56.90137  c4.45801,0,8.08447-3.62646,8.08447-8.08447V59.11975C88.57355,58.21112,90,56.16931,90,53.79736V24.375  C90,23.82275,89.55225,23.375,89,23.375z M50,12c8.14203,0,14.78394,5.06342,15.09528,11.375H34.90472  C35.21606,17.06342,41.85797,12,50,12z M84.53516,81.91553c0,3.35498-2.72949,6.08447-6.08447,6.08447H21.54932  c-3.35498,0-6.08447-2.72949-6.08447-6.08447v-22.3089c0.12061,0.00751,0.24036,0.01837,0.36279,0.01837h28.12012v6.8335  c0,0.55225,0.44775,1,1,1h10.16699c0.55225,0,1-0.44775,1-1V59.625h28.05762c0.12244,0,0.24219-0.01086,0.36279-0.01837V81.91553z   M45.94775,65.4585V51.7915h8.16699V65.4585H45.94775z M88,53.79736c0,2.11035-1.71729,3.82764-3.82764,3.82764H56.11475v-6.8335  c0-0.55225-0.44775-1-1-1H44.94775c-0.55225,0-1,0.44775-1,1v6.8335H15.82764C13.71729,57.625,12,55.90771,12,53.79736V25.375h76  V53.79736z"></path></svg>