<svg xmlns="http://www.w3.org/2000/svg" xmlns:xlink="http://www.w3.org/1999/xlink" version="1.1" x="0px" y="0px" viewBox="0 0 100 100" enable-background="new 0 0 100 100" xml:space="preserve"><g><path d="M63.741,15.491c-2.239-2.968-6.202-4.109-7.834-4.467l-0.52-3.117l-0.599-0.178C54.711,7.706,52.832,7.156,50,7.156   s-4.711,0.55-4.789,0.573l-0.599,0.178l-0.52,3.117c-1.632,0.357-5.595,1.499-7.834,4.467c-2.657,3.521-10.41,25.433-10.739,26.363   l-0.281,0.797l0.739,0.41c0.123,0.068,3.054,1.677,6.617,1.874l0.731,0.041l5.267-13.924c-0.212,4.547-0.269,9.948,0.479,12.011   c-0.353,1.51-1.756,7.766-1.904,12.488c-0.166,5.239,0.288,11.95,0.291,11.983c0.002,0.19-0.08,1.387-0.167,2.652   c-1.093,15.973-0.858,19.495-0.042,20.405c0.223,0.249,0.521,0.393,0.839,0.406c0.425,0.018,1.245,0.061,2.214,0.11   c3.354,0.173,5.224,0.262,6.008,0.262c0.166,0,0.283-0.004,0.355-0.012c2.022-0.225,3.05-7.906,2.708-14.66   C49.147,72.244,49.533,66.387,50,61.466c0.467,4.921,0.853,10.778,0.626,15.233c-0.342,6.754,0.686,14.436,2.708,14.66   c0.072,0.008,0.189,0.012,0.355,0.012c0.784,0,2.653-0.089,6.008-0.262c0.969-0.05,1.789-0.093,2.214-0.11   c0.318-0.014,0.616-0.157,0.839-0.406c0.816-0.91,1.051-4.433-0.042-20.405c-0.087-1.266-0.169-2.462-0.168-2.618   c0.004-0.067,0.458-6.778,0.292-12.018c-0.148-4.723-1.552-10.979-1.904-12.488c0.748-2.063,0.691-7.464,0.479-12.011l5.267,13.924   l0.731-0.041c3.563-0.197,6.494-1.806,6.617-1.874l0.739-0.41l-0.281-0.797C74.151,40.924,66.398,19.012,63.741,15.491z    M70.324,36.245l-4.26,1.467l-5.068-13.401c0.104-0.83,0.552-3.837,1.828-6.498C64.635,21.196,67.899,29.674,70.324,36.245z    M46.215,10.459c0.738,0.488,1.71,1.037,2.785,1.423v1.668c-1.374-0.667-2.448-1.552-2.963-2.026L46.215,10.459z M51,11.882   c1.075-0.386,2.048-0.936,2.786-1.424l0.178,1.066c-0.512,0.474-1.583,1.358-2.964,2.026V11.882z M51.925,9.257   C51.348,9.586,50.69,9.906,50,10.117c-0.688-0.211-1.345-0.531-1.922-0.861c0.564-0.057,1.201-0.1,1.922-0.1   C50.722,9.156,51.359,9.199,51.925,9.257z M37.176,17.813c1.276,2.661,1.724,5.668,1.828,6.498l-5.068,13.401l-4.26-1.467   C32.101,29.673,35.365,21.195,37.176,17.813z M31.982,42.876c-1.807-0.214-3.389-0.809-4.277-1.199   c0.36-1.011,0.799-2.228,1.282-3.554l4.24,1.46L31.982,42.876z M41.043,24.574l-0.022-0.231c-0.019-0.202-0.471-4.722-2.545-8.358   c1.974-1.978,5.008-2.783,6.163-3.029c0.703,0.657,2.288,1.965,4.361,2.77v26.247h-8.184C40.17,39.43,40.512,30.67,41.011,24.66   L41.043,24.574z M46.084,89.371c-1.083-0.022-4-0.173-5.679-0.259c-0.657-0.034-1.247-0.064-1.693-0.087   c-0.122-0.601-0.177-1.773-0.166-3.487l8.437,0.319C46.69,87.667,46.325,88.855,46.084,89.371z M61.288,89.025   c-0.446,0.022-1.036,0.053-1.693,0.087c-1.683,0.086-4.61,0.237-5.679,0.26c-0.24-0.515-0.605-1.703-0.898-3.515l8.437-0.319   C61.465,87.252,61.41,88.425,61.288,89.025z M61.419,83.538l-8.657,0.328c-0.191-1.909-0.28-4.267-0.138-7.065   c0.411-8.109-1.146-20.656-1.633-24.308L50,52.625l-0.991-0.132c-0.487,3.651-2.044,16.198-1.633,24.308   c0.143,2.799,0.054,5.157-0.137,7.065l-8.658-0.328c0.085-3.164,0.319-7.567,0.706-13.215c0.146-2.142,0.18-2.664,0.169-2.891   c-0.005-0.066-0.452-6.678-0.29-11.818c0.131-4.113,1.3-9.643,1.751-11.643H49V47.5h2v-3.528h8.083   c0.451,2,1.62,7.529,1.751,11.643c0.162,5.139-0.285,11.752-0.291,11.836c-0.01,0.209,0.023,0.731,0.17,2.873   C61.1,75.971,61.334,80.374,61.419,83.538z M59.184,41.972H51V15.725c2.073-0.805,3.658-2.112,4.361-2.77   c1.155,0.246,4.189,1.052,6.163,3.029c-2.074,3.637-2.526,8.156-2.545,8.358l-0.022,0.231l0.032,0.086   C59.488,30.67,59.83,39.43,59.184,41.972z M68.018,42.876l-1.245-3.293l4.24-1.46c0.483,1.326,0.922,2.543,1.282,3.554   C71.406,42.067,69.824,42.662,68.018,42.876z"></path><rect x="53.469" y="23.875" width="2" height="6.063"></rect></g></svg>