<svg xmlns="http://www.w3.org/2000/svg" xmlns:xlink="http://www.w3.org/1999/xlink" version="1.1" x="0px" y="0px" viewBox="0 0 100 100" enable-background="new 0 0 100 100" xml:space="preserve"><g><path d="M78.762,67.987L60.684,21.5H39.316L21.711,66.77l0.989,0.336c0,0,2.488,0.845,4.244,1.409   c0.753,0.242,1.565,0.321,2.281,0.391c0.689,0.067,1.529,0.149,1.826,0.38c-0.03,0.056-0.056,0.115-0.078,0.178   c-0.119,0.354-0.053,0.721,0.194,1.092c0.139,0.208,0.529,0.791,2.792,1.126l-0.03,0.267l0.611,0.316   c0.115,0.059,2.788,1.426,5.447,1.425c0.053,0,0.106,0,0.159-0.001c2.212-0.046,5.062-1.161,7.142-1.976   c0.856-0.335,1.665-0.651,2.049-0.734c0.696-0.15,1.853-0.129,2.766-0.073c-0.024,0.533-0.037,0.827-0.038,0.845l0.014,0.001   c-0.021,0.512,0.134,1.072,0.474,1.531c0.352,0.475,1.141,1.177,2.723,1.177c0.325,0,0.684-0.03,1.08-0.098l0.832-0.142v-3.466   c1.159-0.315,2.47-0.525,3.677-0.443c0.184,0.014,0.377,0.035,0.573,0.062v3.226l0.835,0.14c0.08,0.014,1.973,0.326,3.352,0.326   c0.144,0,0.307,0.004,0.481,0.009c0.191,0.004,0.408,0.01,0.643,0.01c1.566,0,3.896-0.236,4.121-2.481   c0.018-0.182,0.014-0.415,0-0.672c2.713-0.386,6.598-2.294,7.077-2.533L78.762,67.987z M55.188,72.457   c-0.427-0.011-0.758-0.105-0.95-0.28c-0.074-0.067-0.117-0.138-0.142-0.197c0.233-0.146,0.612-0.338,1.091-0.54V72.457z    M66.155,72.071c-0.192-0.005-0.372-0.009-0.53-0.009c-0.686,0-1.557-0.095-2.188-0.178V70.78c1.388,0.362,2.806,0.86,3.908,1.282   C66.994,72.081,66.598,72.083,66.155,72.071z M70.591,68.95c-0.796-4.119-3.2-11.801-6.654-21.11l-1.875,0.695   c4.551,12.27,6.433,19.35,6.767,21.959c-1.859-0.746-5.283-1.994-7.819-2.179c-2.25-0.169-5.017,0.55-6.849,1.386   c0.196-4.133,0.699-13.915,1.576-26.13l-1.995-0.143c-0.831,11.589-1.327,20.992-1.544,25.476c-0.985-0.06-2.338-0.086-3.285,0.118   c-0.541,0.118-1.34,0.431-2.354,0.827c-1.94,0.76-4.598,1.8-6.455,1.838c-1.504,0.033-3.155-0.552-4.021-0.917   c0.347-2.669,1.781-12.731,5.579-29.044l-1.948-0.453c-3.497,15.021-5.004,24.795-5.503,28.415   c-0.365-0.058-0.705-0.124-0.972-0.191c0.005-0.402-0.178-0.786-0.373-1.123c-0.689-1.19-2.154-1.333-3.446-1.459   c-0.646-0.063-1.315-0.128-1.863-0.305c-1.043-0.335-2.345-0.77-3.224-1.065L40.684,23.5h18.632l16.916,43.498   C74.724,67.693,72.225,68.723,70.591,68.95z"></path></g></svg>