<svg xmlns="http://www.w3.org/2000/svg" xmlns:xlink="http://www.w3.org/1999/xlink" version="1.1" x="0px" y="0px" viewBox="0 0 100 100" enable-background="new 0 0 100 100" xml:space="preserve"><g><path d="M12.839,42.968l12.601,3.174L29,40.803V86h42V40.803l3.56,5.339l12.601-3.174l-0.282-0.991   c-0.093-0.328-2.322-8.099-5.998-14.949c-3.866-7.203-17.433-12.724-18.008-12.955L62.693,14H37.307l-0.18,0.072   c-0.576,0.231-14.143,5.752-18.008,12.955c-3.676,6.85-5.904,14.622-5.998,14.949L12.839,42.968z M61.18,16   c-0.867,2.581-3.654,8.416-11.18,8.416S39.687,18.581,38.82,16H61.18z M20.881,27.973c2.949-5.495,12.77-10.19,15.97-11.606   c0.95,2.873,4.217,10.05,13.148,10.05c8.932,0,12.199-7.178,13.149-10.05c3.2,1.415,13.018,6.106,15.97,11.607   c2.823,5.26,4.815,11.247,5.538,13.563l-9.216,2.322L69,34.197V84H31V34.197l-6.44,9.661l-9.216-2.322   C16.065,39.22,18.056,33.237,20.881,27.973z"></path></g></svg>