<svg xmlns="http://www.w3.org/2000/svg" xmlns:xlink="http://www.w3.org/1999/xlink" version="1.1" x="0px" y="0px" viewBox="0 0 100 100" enable-background="new 0 0 100 100" xml:space="preserve"><g><path d="M68.605,85.288c-0.401-0.254-0.869-0.504-1.335-0.752c-0.56-0.298-1.478-0.786-1.713-1.068   c0.001-1.224,0.013-2.742,0.017-3.171l0.001-3.487c0-1.425,0.091-3.15,0.218-5.537c0.274-5.168,0.688-12.979,0.688-26.863   c0-20.229-1.878-33.32-1.897-33.45l-0.075-0.517l-0.467-0.233C63.848,10.112,59.193,7.838,50,7.838s-13.848,2.274-14.042,2.371   l-0.467,0.233l-0.075,0.517c-0.019,0.13-1.897,13.221-1.897,33.45c0,13.885,0.415,21.695,0.688,26.863   c0.127,2.387,0.218,4.112,0.218,5.537l0.001,3.486c0.003,0.429,0.015,1.947,0.016,3.172c-0.235,0.282-1.153,0.771-1.713,1.068   c-0.466,0.248-0.934,0.498-1.334,0.752c-1.533,0.971-3.451,2.392-4.151,3.229c-0.617,0.739-0.709,1.979-0.225,3.014   c0.297,0.636,1.273,2.114,3.906,2.114c0.475,0,0.987-0.049,1.523-0.146c3.476-0.628,11.676-2.373,12.747-5.008   c0.591-1.453,0.418-2.329,0.252-3.175c-0.093-0.473-0.189-0.96-0.18-1.661c0.441-3.148,0.445-3.187,0.449-3.232   c0.255-3.503,0.761-10.058,1.276-14.604c0.241-2.128,0.486-4.755,0.77-7.796c0.542-5.809,1.21-12.969,2.238-20.908   c1.028,7.939,1.696,15.1,2.238,20.908c0.284,3.041,0.529,5.668,0.77,7.796c0.487,4.305,0.963,10.318,1.276,14.604   c0.003,0.042,0.006,0.079,0.448,3.232c0.009,0.701-0.086,1.188-0.18,1.661c-0.167,0.846-0.339,1.722,0.252,3.175   c1.072,2.635,9.271,4.38,12.747,5.008c0.535,0.097,1.048,0.146,1.523,0.146c0,0,0,0,0.001,0c2.631,0,3.607-1.479,3.905-2.113   c0.485-1.036,0.393-2.275-0.225-3.016C72.055,87.68,70.137,86.259,68.605,85.288z M60.555,11.104   c-2.172,0.594-5.698,1.266-10.555,1.266s-8.383-0.672-10.555-1.266C41.617,10.509,45.145,9.838,50,9.838   S58.383,10.509,60.555,11.104z M71.154,90.715c-0.3,0.601-1.039,0.931-2.079,0.931c0,0,0,0-0.001,0   c-0.356,0-0.749-0.038-1.167-0.114c-6.267-1.132-10.876-2.875-11.25-3.793c-0.366-0.899-0.286-1.303-0.142-2.035   c0.105-0.534,0.236-1.198,0.216-2.146l-0.01-0.117c0,0-0.424-3.025-0.442-3.162c-0.315-4.304-0.793-10.346-1.284-14.683   c-0.238-2.108-0.483-4.727-0.766-7.757c-0.571-6.123-1.282-13.742-2.407-22.207c-0.152-1.145-0.421-1.781-1.067-2.525L50,32.234   l-0.755,0.871c-0.646,0.744-0.915,1.381-1.067,2.525c-1.125,8.465-1.836,16.084-2.407,22.207c-0.283,3.03-0.527,5.648-0.766,7.757   c-0.493,4.352-0.97,10.387-1.279,14.639c-0.021,0.169-0.447,3.206-0.447,3.206l-0.01,0.117c-0.02,0.948,0.111,1.612,0.216,2.146   c0.144,0.732,0.224,1.136-0.142,2.035c-0.373,0.918-4.982,2.661-11.25,3.793c-1.641,0.299-2.844-0.011-3.247-0.816   c-0.212-0.423-0.133-0.828-0.067-0.915c0.417-0.498,1.944-1.719,3.687-2.822c0.361-0.229,0.783-0.452,1.203-0.676   c1.428-0.759,2.776-1.476,2.774-2.724c0-1.247-0.013-2.854-0.016-3.298l-0.001-3.471c0-1.479-0.093-3.226-0.221-5.643   c-0.273-5.147-0.686-12.926-0.686-26.758c0-16.503,1.254-28.188,1.711-31.896c1.963,0.698,6.202,1.856,12.77,1.856   s10.806-1.158,12.77-1.856c0.457,3.707,1.711,15.383,1.711,31.896c0,13.832-0.413,21.61-0.686,26.758   c-0.128,2.417-0.221,4.164-0.221,5.643l-0.001,3.471c-0.003,0.444-0.017,2.051-0.017,3.296c-0.002,1.25,1.346,1.967,2.774,2.726   c0.419,0.224,0.842,0.446,1.203,0.676c1.742,1.104,3.27,2.324,3.685,2.82C71.286,89.887,71.365,90.292,71.154,90.715z"></path></g></svg>