<svg xmlns="http://www.w3.org/2000/svg" xmlns:xlink="http://www.w3.org/1999/xlink" version="1.1" x="0px" y="0px" viewBox="0 0 100 100" enable-background="new 0 0 100 100" xml:space="preserve"><g><path d="M16.5,29.951L11.4,83.5h34.482l2.516-20.13c0.524,0.077,1.056,0.13,1.601,0.13s1.077-0.053,1.601-0.13l2.516,20.13H88.6   l-5.1-53.549V19h-67V29.951z M44.117,81.5H13.6l4.81-50.5H39v21.5c0,4.819,3.12,8.915,7.442,10.398L44.117,81.5z M41,52.5V31h18   v21.5c0,4.962-4.038,9-9,9S41,57.462,41,52.5z M55.883,81.5l-2.325-18.602C57.88,61.415,61,57.319,61,52.5V31h20.591l4.81,50.5   H55.883z M18.5,21h63v8h-63V21z"></path></g></svg>