<svg xmlns="http://www.w3.org/2000/svg" xmlns:xlink="http://www.w3.org/1999/xlink" version="1.1" x="0px" y="0px" viewBox="0 0 100 100" enable-background="new 0 0 100 100" xml:space="preserve"><g><path d="M70.989,17.126c-0.111-5.083-2.439-12.138-2.541-12.443l-1.897,0.633c0.024,0.073,2.404,7.271,2.445,12.055   C68.651,18.494,65.421,27.774,50,41.174C34.564,27.762,31.343,18.477,31.004,17.372c0.042-4.779,2.42-11.982,2.445-12.056   l-1.897-0.632c-0.102,0.305-2.43,7.359-2.541,12.443c-5.396,6.388-7.863,12.55-7.321,18.317c0.622,6.616,5,10.188,5.186,10.337   l0.425,0.34l0.516-0.172C31.167,44.832,37.303,43.5,47.5,43.5h5c10.197,0,16.333,1.332,19.684,2.449l0.516,0.172l0.425-0.34   c0.186-0.149,4.564-3.722,5.186-10.337C78.853,29.676,76.386,23.515,70.989,17.126z M27.742,43.871   c-0.996-0.967-3.621-3.926-4.062-8.615c-0.46-4.899,1.548-10.197,5.972-15.766c1.408,3.357,5.699,11.303,17.686,22.01   C37.502,41.514,31.317,42.755,27.742,43.871z M76.323,35.217c-0.427,4.683-3.068,7.676-4.067,8.654   c-3.575-1.116-9.76-2.357-19.594-2.371c11.987-10.707,16.277-18.653,17.686-22.01C74.759,25.044,76.769,30.329,76.323,35.217z"></path><path d="M24,74.989l0.807,0.159c0.205,0.041,20.458,4.208,22.277,19.967L47.186,96h5.628l0.103-0.885   c1.816-15.736,22.073-19.926,22.277-19.967L76,74.988V69H24V74.989z M26,71h48v2.374c-3.895,0.98-20.633,6.02-22.949,20.626h-2.102   C46.633,79.394,29.895,74.354,26,73.374V71z"></path></g></svg>