<svg xmlns="http://www.w3.org/2000/svg" data-name="Layer 2" viewBox="0 0 100 100" x="0px" y="0px"><title>Artboard 91</title><path d="M81.08,59.91,73.6,30.83a11.46,11.46,0,0,0-11.1-8.6h-.93a1,1,0,0,0,0,2h.93a9.45,9.45,0,0,1,9.16,7.1l6,23.44a13.31,13.31,0,0,0-21.21,4,8.58,8.58,0,0,0-6.52-3,8.66,8.66,0,0,0-6.47,2.93,13.31,13.31,0,0,0-21.18-4l6-23.45a9.45,9.45,0,0,1,9.16-7.1h.93a1,1,0,0,0,0-2H37.5a11.46,11.46,0,0,0-11.1,8.6L18.92,59.92a13.33,13.33,0,1,0,25.27,8.47s0,0,0-.08a13.46,13.46,0,0,0,.1-7.33A6.65,6.65,0,0,1,50,57.81a6.58,6.58,0,0,1,5.7,3.29,13.5,13.5,0,0,0-.43,3.35,13.23,13.23,0,0,0,.55,3.8,13.33,13.33,0,1,0,25.3-8.34ZM31.44,75.77A11.34,11.34,0,0,1,20.12,64.45a11.17,11.17,0,0,1,.66-3.78l0-.09,0-.08h0a11.33,11.33,0,0,1,21.42.56s0,0,0,.06a11.63,11.63,0,0,1,0,6.68.64.64,0,0,0,0,.07A11.3,11.3,0,0,1,31.44,75.77Zm37.12,0a11.32,11.32,0,1,1,10.6-15.28l0,.09,0,.09a11.17,11.17,0,0,1,.66,3.78A11.34,11.34,0,0,1,68.56,75.77Z"></path></svg>