<svg id="Layer_1" data-name="Layer 1" xmlns="http://www.w3.org/2000/svg" xmlns:xlink="http://www.w3.org/1999/xlink" viewBox="0 0 100 100"><defs><style>.cls-1{fill:none;}.cls-2{clip-path:url(#clip-path);}.cls-3{clip-path:url(#clip-path-2);}.cls-4{fill:#020203;}</style><clipPath id="clip-path"><path class="cls-1" d="M77.67,25.39a8.87,8.87,0,0,0-7.87-1.33,10.41,10.41,0,0,0-7.12-5.13,9.48,9.48,0,0,0-10.93,6C49.27,31,54.57,36.73,59.2,41.78c1.16,1.33,2.41,2.57,3.32,3.73a9.11,9.11,0,0,0-.75.91,10.58,10.58,0,0,0-2,6.79L43.89,27.79a4.36,4.36,0,0,0-6-1.41l-2.07,1.33-1.9-3.07a2.68,2.68,0,0,0-3.73-.82l-9.52,6a2.67,2.67,0,0,0-.82,3.72l1.9,3-2.07,1.25a4.43,4.43,0,0,0-1.41,6l20.62,33a4.43,4.43,0,0,0,6,1.41L47,77,48.86,80a2.67,2.67,0,0,0,3.72.83L62.19,75A2.69,2.69,0,0,0,63,71.26l-1.9-3.07L63.18,67a4.43,4.43,0,0,0,1.41-6l-3.48-5.55.74-.17c0-.08-1-4.3,1.41-7.61a1.92,1.92,0,0,1,.33-.42c.83,1.25,1.24,2.32.91,3.23l1.74.5c.5-1.57-.08-3.23-1.32-5,2-1.41,4.8-2.15,8.44-2.32,4.39-.16,7.54-2.23,8.61-5.79C83.38,33.5,81.39,28.12,77.67,25.39Zm-56.55,7.2a1.08,1.08,0,0,1,.33-1.49l9.52-6a1.08,1.08,0,0,1,1.49.33l1.91,3.07L23,35.66Zm-.58,6.54-1.32,2.24A2.61,2.61,0,0,1,20.54,39.13Zm-.66,4.31,3.64-6.13,3.31-2.07L21,45.18Zm2,3.23,7.86-13.33L33,31.27,22.94,48.41ZM23.94,50,36,29.45a33.16,33.16,0,0,1,3.23-2L25,51.72Zm37.67,22.1a1.08,1.08,0,0,1-.34,1.49l-9.52,6a1.08,1.08,0,0,1-1.49-.34l-1.9-3.06L59.78,69Zm.66-6.54,1.32-2.23A2.58,2.58,0,0,1,62.27,65.54Zm.66-4.22-3.64,6.13L56,69.52l5.87-9.94ZM60.86,58,53,71.34l-3.32,2.07,10.1-17.14Zm-2-3.23L46.79,75.23l-2.74,1.66a3.79,3.79,0,0,1-.58.24L57.71,53ZM56.8,51.47,41.65,77.13A2.39,2.39,0,0,1,40.25,76L55.73,49.65Zm-2.07-3.23L39.25,74.57l-1.07-1.74L53.66,46.5Zm-2-3.31L37.26,71.26l-1.07-1.74L51.67,43.19ZM50.68,41.7,35.2,68l-1.08-1.74L49.6,40Zm-2-3.23L33.13,64.72,32.05,63,47.53,36.65Zm-2.07-3.31L31.14,61.49l-1.08-1.74L45.54,33.42Zm-2.07-3.23L29.07,58.17,28,56.44,43.47,30.11ZM27.08,55,26,53.21,41.16,27.54a2.41,2.41,0,0,1,1.4,1.16Zm53.24-17.8c-.83,2.81-3.32,4.38-7,4.55a18.18,18.18,0,0,0-8.86,2.23c-.16.17-.41.25-.58.42-1-1.24-2.15-2.49-3.31-3.81-4.3-4.64-9.19-9.93-7.12-15a7.52,7.52,0,0,1,8.86-4.88,9,9,0,0,1,5.8,4.06,11.67,11.67,0,0,0-2.4,1.4,3.67,3.67,0,0,0-1.33,4.64c.75,1.74,2.4,2.82,3.89,2.48.91-.16,2.49-1.07,2.57-5a7.86,7.86,0,0,0-.33-2.49A7.07,7.07,0,0,1,76.67,27,9.8,9.8,0,0,1,80.32,37.15ZM68.81,26.38a7.29,7.29,0,0,1,.25,1.91c0,2.23-.58,3.14-1.08,3.23S66.57,31,66.16,30a1.81,1.81,0,0,1,.66-2.41l.75-.49A3.15,3.15,0,0,1,68.81,26.38Z"/></clipPath><clipPath id="clip-path-2"><rect class="cls-1" x="-393.57" y="-133.59" width="1192.14" height="847.75" transform="translate(-123.06 151.42) rotate(-32)"/></clipPath></defs><title>all</title><g class="cls-2"><g class="cls-3"><rect class="cls-4" x="19.79" y="9.89" width="69.29" height="68.63" transform="translate(-15.15 35.57) rotate(-32)"/></g></g></svg>