<svg id="Layer_2" data-name="Layer 2" xmlns="http://www.w3.org/2000/svg" viewBox="0 0 100 100"><title>outerwear</title><path d="M45.19,10.61c-.18-.25-1.3-1.53-2.71-3.16l.6.12c-2.79,1.32-6.43,3.07-7.2,3.38l.06-.52c.65.58.69.64.45.46l-.5-.41,0,.41c1-.53,3.85-2,7.06-3.68l-.12,0,5.06,5.46,1.76,1.89.5.52c.12.13.19.19.19.18a7.55,7.55,0,0,0-.65-.83L47.9,12.36,43.16,6.84a.39.39,0,0,0-.47-.1h0c-3.18,1.5-5.6,2.63-5.33,2.45,1.33-.92,8.28-4.52-2.06.56a1,1,0,0,0-.46,1.35,1.28,1.28,0,0,0,.24.31h0L46.19,21.1a1,1,0,0,0,1.46-.1l.09-.11,3.35-5-1.92-.58V91.89l1-1.06H25.28l1,1.16L32,37.77A1.06,1.06,0,0,0,31,36.61a1.07,1.07,0,0,0-1.09.66L21.36,58.85l-2.14,5.4-.54,1.35a.59.59,0,0,1-.41.37,5.5,5.5,0,0,1-2.34,0c-.9-.14-1.84-.35-2.78-.56a10.85,10.85,0,0,1-2.53-.81,7.48,7.48,0,0,1-2.07-1.43,3.75,3.75,0,0,1-.67-.9l0-.05v0h0L7,62.54l.08,0a1.76,1.76,0,0,1,.64-.15H7.9s0,0,0,0v.06l0-.22.15-.64c.73-2.78,1.69-5.62,2.62-8.42q1.8-5.36,3.7-10.69c2-5.64,3.74-10.42,5.24-14.48q1.16-3,2.1-5.54c.33-.82.63-1.68,1-2.31.17-.32.31-.64.49-.93l.61-.81a11.3,11.3,0,0,1,2.71-2.33l.67-.43.66-.34a12.08,12.08,0,0,1,1.22-.58,28.27,28.27,0,0,1,3.48-1.24c3.16-.81.24-.31-1.35,0-.9.2.64-.48,2.51-1s4-.91,4-1a5.47,5.47,0,0,0-.76,0c-.49,0-1.18.11-2,.24a29.06,29.06,0,0,0-5.86,1.48,18.44,18.44,0,0,0-5.21,2.89c-1.22,1.06-1.79,1.91-1.69,1.71a5.57,5.57,0,0,1,.88-1.23l.64-.71.68-.59c.42-.37.76-.63.86-.7s-.09,0-.64.36c-.26.2-.64.46-1.11.85a11.8,11.8,0,0,0-1.58,1.7l-.44.6a7.81,7.81,0,0,0-.4.71l-.41.79-.34.81c-.44,1.12-.94,2.41-1.52,3.88-2.23,5.9-5.56,14.79-10.09,28.14l0,0C7.78,55.34,6.83,58.12,6,61.08c-.06.25-.11.5-.17.78s0,.29-.06.49a1.8,1.8,0,0,0,.08.61,1.22,1.22,0,0,0,.11.25,5.63,5.63,0,0,0,1,1.44A9.22,9.22,0,0,0,9.72,66.5a13,13,0,0,0,3,1c1,.2,1.9.42,2.91.57a10.09,10.09,0,0,0,1.59.15A4.91,4.91,0,0,0,19,67.94a2.71,2.71,0,0,0,1.61-1.57L21.17,65l2.14-5.39,8.57-21.58-2-.5L24.23,91.78a1.05,1.05,0,0,0,.94,1.15h25a1,1,0,0,0,1.05-1V15.31a1,1,0,0,0-1.92-.58c-1.3,1.94-2.53,3.76-3.35,5l1.56-.21L36.41,9.89l-.22,1.7L43.3,8l-1.19-.22C49.35,15.74,46.46,12.34,45.19,10.61Z"/><path d="M17.21,68c-.05,0-.35.6-.39.48s.14-.87.07-.89-.44.66-.5.58-.08-.27-.15-.2a3.77,3.77,0,0,0-.2.34,1.19,1.19,0,0,1-.59.59,3.4,3.4,0,0,1-1.68,0c-.63-.12-1.28-.31-1.93-.49a8.71,8.71,0,0,1-3.44-1.5,1.73,1.73,0,0,1-.17-.21,1.11,1.11,0,0,1-.13-.27,1,1,0,0,1,.05-.68,1.85,1.85,0,0,0,.14-.33c0-.11-.08-.08-.2-.08S8,65,7.94,64.88s-.21.08-.37.23-.29.31-.31.28,0-.36-.11-.26a1.24,1.24,0,0,0-.26.55,2.06,2.06,0,0,0,.29,1.74h0a3,3,0,0,0,.32.39A5.42,5.42,0,0,0,9.6,69c.74.27,1.41.45,2.13.67a18.15,18.15,0,0,0,2.2.51,5,5,0,0,0,1.24.06,2.44,2.44,0,0,0,1.33-.54,2.56,2.56,0,0,0,.8-1.19,1.8,1.8,0,0,0,.13-.52C17.43,67.86,17.32,68,17.21,68Z"/><path d="M44.85,66.15c-.07-.09-1-.21-.9-.34s1.38-.25,1.38-.36-1.24-.38-1.19-.5c.18-.35,1.36-.45-2.6-.45H39.33a1,1,0,0,0-1,1,13.63,13.63,0,0,1-3.59,9.38l-.41.42-.54.51c-1.19,1-1.74,1.33-1.88,1.52s.08.17.25.25-.15.66-.07.84,1.3-.33,1.31-.21-.21.49,0,.44a8.4,8.4,0,0,0,2.43-1.85h0l.47-.49a15,15,0,0,0,3.11-5,16.51,16.51,0,0,0,1-5.8l-1.05,1h3C45.71,66.6,45.08,66.47,44.85,66.15Z"/><path d="M54.46,9.81c.23-.21,1.39-1.45,2.85-3h0a.51.51,0,0,1,.59-.1c2.74,1.43,6.32,3.29,7,3.71l0,0a.31.31,0,0,1,.11.43.27.27,0,0,1-.07.08c-.67.55-.74.59-.52.38l.47-.44h0a.24.24,0,0,0,0-.33.16.16,0,0,0-.08-.06C63.91,10,61,8.6,57.73,7a.11.11,0,0,0-.12,0c-1.7,2-3.52,4-4.9,5.61L51,14.61l-.47.56a1.24,1.24,0,0,0-.16.21,8,8,0,0,0,.76-.74l1.86-2L58,7.4l-.49.09c3.11,1.63,5.47,2.88,5.16,2.78-1.53-.51-8.59-3.89,1.69,1.3l-.21-1.66C61.89,11.84,58.26,15,53,19.53l1.55.2-3.35-5a1.06,1.06,0,0,0-1.46-.29,1,1,0,0,0-.46.87V91.89a1,1,0,0,0,1,1H75.26a1,1,0,0,0,1-1v-.11L70.68,37.55l-2,.5,8.57,21.58L79.37,65l.53,1.35a2.75,2.75,0,0,0,1.62,1.57,4.91,4.91,0,0,0,1.82.26,10,10,0,0,0,1.58-.15c1-.15,2-.37,2.92-.57a13.16,13.16,0,0,0,3-1,9.22,9.22,0,0,0,2.67-1.85,5.88,5.88,0,0,0,1.05-1.44,2.22,2.22,0,0,0,.11-.25,2.09,2.09,0,0,0,.08-.61c0-.2,0-.33-.07-.49s-.11-.53-.17-.78c-.78-3-1.73-5.74-2.67-8.57-1.2-3.59-2.45-7.16-3.71-10.73-2-5.65-3.75-10.44-5.27-14.51L80.72,21.7c-.36-.85-.61-1.62-1-2.43-.21-.4-.4-.81-.63-1.17l-.75-1a13.25,13.25,0,0,0-3.21-2.74l-.76-.47-.74-.37a13,13,0,0,0-1.35-.62,23.58,23.58,0,0,0-3.78-1.24c-3.38-.72-.33,0,1.23.71.88.39-.82-.08-2.76-.38a16.61,16.61,0,0,0-4.14-.29,5.19,5.19,0,0,0,.74.14c.48.07,1.15.19,1.95.36a30.45,30.45,0,0,1,5.68,1.71,17,17,0,0,1,4.83,3,6,6,0,0,1,1.37,1.68,9.48,9.48,0,0,0-1-.93l-.62-.56-.66-.45a4.68,4.68,0,0,0-.84-.51c-.12,0,0,0,.49.42.22.19.54.42.93.77A10.11,10.11,0,0,1,77,18.73l.36.49a6.07,6.07,0,0,1,.31.57l.32.63.32.78,1.48,3.85c2.2,5.88,5.51,14.78,10,28.08l0,0c.93,2.8,1.89,5.64,2.62,8.42l.14.64,0,.22a.35.35,0,0,1,.06-.24l0,.07a3.69,3.69,0,0,1-.66.9,7.53,7.53,0,0,1-2.08,1.43,10.62,10.62,0,0,1-2.52.81c-1,.21-1.88.42-2.78.56a5.49,5.49,0,0,1-2.34,0,.57.57,0,0,1-.41-.37l-.54-1.35-2.14-5.4L70.61,37.27a1.05,1.05,0,0,0-2,.5L74.22,92l1-1.16H50.32l1,1.06V15.31l-1.93.59,3.36,5a1,1,0,0,0,1.45.29l.11-.08c4.66-4.06,8.41-7.31,11.12-9.66h0a1,1,0,0,0,.1-1.45.93.93,0,0,0-.32-.24L58.13,6.23h0a1,1,0,0,0-1.18.23C49.8,14.49,52.87,11.26,54.46,9.81Z"/><path d="M84.24,67.88c0,.06.09.6,0,.56s-.42-.74-.47-.73,0,.82-.05.82-.27-.21-.26-.08a1.46,1.46,0,0,0,.17.51,2.28,2.28,0,0,0,1.22,1.19,4.35,4.35,0,0,0,2.39.06c.71-.13,1.38-.33,2-.52s1.3-.38,2-.64a5.49,5.49,0,0,0,2-1.18,3,3,0,0,0,.31-.39,2.2,2.2,0,0,0,.29-.62,2.11,2.11,0,0,0-.14-1.55,1.57,1.57,0,0,0-.34-.48c-.15-.12-.1,0-.13.17s-.44-.09-.53,0,.23.72.12.72-.25-.11-.25,0,0,.14.08.32a.9.9,0,0,1-.15.74h0a1.57,1.57,0,0,1-.17.21c-.81.81-2.31,1.14-3.67,1.56a16.19,16.19,0,0,1-2,.48,2,2,0,0,1-1.59-.2,1.81,1.81,0,0,1-.45-.69c-.1-.19-.14-.32-.18-.37S84.32,67.78,84.24,67.88Z"/><path d="M57.69,65c.06.09,1,.21.9.34s-1.39.26-1.39.36,1.25.39,1.19.5c-.17.35-1.36.45,2.61.45h2.2l-1.05-1a17,17,0,0,0,1,5.8,15.15,15.15,0,0,0,3.12,5l.46.49.63.58A7.75,7.75,0,0,0,69.72,79c.27.06.11-.15.09-.35s.68-.17.77-.37-.84-1-.72-1,.49,0,.39-.16-.65-.48-2-1.75h0l-.4-.42a13.63,13.63,0,0,1-3.59-9.38,1.06,1.06,0,0,0-1.06-1h-3C56.83,64.5,57.45,64.63,57.69,65Z"/><path d="M55.52,30.68c.07,0,0-.36.11-.35s.28.49.32.5.15-.6.19-.61.23.18.25.07a1,1,0,0,0-.13-.43,1.94,1.94,0,0,0-.89-.88,2.08,2.08,0,0,0-1.94,0,2.12,2.12,0,0,0-1,1.62A2.07,2.07,0,0,0,55,32.83a1.78,1.78,0,0,0,.36-.14,2.11,2.11,0,0,0,.4-.26,1.89,1.89,0,0,0,.62-.92,1,1,0,0,0,0-.45c0-.14-.1,0-.21,0s-.27-.27-.4-.26-.29.44-.37.37-.13-.16-.18-.13-.06.25-.47.49h0l-.14.06a.81.81,0,1,1,.3-1.41c.29.28.28.48.35.52S55.43,30.73,55.52,30.68Z"/><path d="M42.43,23.51c.07,0,0-.36.11-.35s.28.49.32.51.16-.61.19-.62.24.18.25.07a.83.83,0,0,0-.13-.43,2,2,0,0,0-.89-.88,2.06,2.06,0,0,0-1.93,0,2.1,2.1,0,0,0-1.06,1.63,2.08,2.08,0,0,0,2.64,2.18,2.09,2.09,0,0,0,.35-.13,2.9,2.9,0,0,0,.41-.27,1.88,1.88,0,0,0,.61-.91,1.16,1.16,0,0,0,.06-.46c0-.14-.11,0-.22,0s-.27-.27-.4-.25-.28.43-.36.37-.13-.17-.18-.14-.07.25-.48.49h0l-.14.05a.81.81,0,1,1,.3-1.41,1.79,1.79,0,0,1,.35.53C42.28,23.62,42.34,23.57,42.43,23.51Z"/><path d="M61.92,21.08c.07,0,0-.37.11-.35s.28.49.32.5.16-.61.2-.61.23.18.24.07a.94.94,0,0,0-.12-.44,2,2,0,0,0-.9-.87,2.06,2.06,0,0,0-1.93,0A2.09,2.09,0,0,0,58.78,21a2.06,2.06,0,0,0,3,2.05,2.19,2.19,0,0,0,.41-.26,1.9,1.9,0,0,0,.61-.92,1.12,1.12,0,0,0,.06-.45c0-.14-.11,0-.22,0s-.26-.27-.4-.26-.28.44-.36.37-.13-.16-.18-.13-.07.24-.48.49h0l-.14.06a.82.82,0,1,1,.3-1.41c.3.28.29.48.35.52S61.84,21.13,61.92,21.08Z"/><path d="M55.52,41.06c.07,0,0-.37.11-.36s.28.5.32.51.15-.61.19-.61.23.17.25.06a1,1,0,0,0-.13-.43,2,2,0,0,0-.89-.88,2.08,2.08,0,0,0-3,1.67,2.08,2.08,0,0,0,.74,1.79,2.12,2.12,0,0,0,1.89.4,2.67,2.67,0,0,0,.36-.14,2.11,2.11,0,0,0,.4-.26,2,2,0,0,0,.62-.92,1,1,0,0,0,0-.45c0-.14-.1,0-.21,0s-.27-.26-.4-.25-.29.43-.37.37-.13-.17-.18-.13-.06.24-.47.49h0l-.14.05a.81.81,0,1,1,.3-1.41c.29.28.28.48.35.53S55.43,41.11,55.52,41.06Z"/><path d="M55.52,50.49c.07,0,0-.36.11-.35s.28.49.32.5.15-.6.19-.61.23.18.25.07a1,1,0,0,0-.13-.43,1.94,1.94,0,0,0-.89-.88,2.08,2.08,0,0,0-1.94,0,2.12,2.12,0,0,0-1,1.62A2.07,2.07,0,0,0,55,52.64a1.78,1.78,0,0,0,.36-.14,2.11,2.11,0,0,0,.4-.26,1.89,1.89,0,0,0,.62-.92,1,1,0,0,0,0-.45c0-.14-.1,0-.21,0s-.27-.27-.4-.26-.29.44-.37.37-.13-.16-.18-.13-.06.25-.47.49h0l-.14.06A.81.81,0,1,1,55,50c.29.28.28.48.35.52S55.43,50.54,55.52,50.49Z"/><path d="M55.52,60.87c.07,0,0-.37.11-.36s.28.5.32.51.15-.61.19-.61.23.17.25.06a1,1,0,0,0-.13-.43,2,2,0,0,0-.89-.88,2.08,2.08,0,0,0-3,1.67,2.08,2.08,0,0,0,.74,1.79A2.12,2.12,0,0,0,55,63a2.67,2.67,0,0,0,.36-.14,2.11,2.11,0,0,0,.4-.26,2,2,0,0,0,.62-.92,1,1,0,0,0,0-.45c0-.14-.1,0-.21,0S56,61,55.83,61s-.29.43-.37.37-.13-.17-.18-.13-.06.24-.47.49h0l-.14,0a.81.81,0,1,1,.3-1.41c.29.28.28.48.35.53S55.43,60.92,55.52,60.87Z"/><path d="M55.52,70.47c.07,0,0-.36.11-.35s.28.49.32.5.15-.61.19-.61.23.18.25.07a1,1,0,0,0-.13-.44,2,2,0,0,0-.89-.87,2.08,2.08,0,0,0-1.94,0,2.12,2.12,0,0,0-1,1.62A2.07,2.07,0,0,0,55,72.62a2.67,2.67,0,0,0,.36-.14,2.11,2.11,0,0,0,.4-.26,1.89,1.89,0,0,0,.62-.92,1,1,0,0,0,0-.45c0-.14-.1,0-.21,0s-.27-.27-.4-.26-.29.44-.37.37-.13-.16-.18-.13-.06.25-.47.49h0l-.14.06A.82.82,0,1,1,55,70c.29.28.28.48.35.52S55.43,70.52,55.52,70.47Z"/><path d="M55.52,80.85c.07,0,0-.37.11-.36s.28.49.32.51.15-.61.19-.62.23.18.25.07a1,1,0,0,0-.13-.43,2,2,0,0,0-.89-.88,2.11,2.11,0,0,0-1.94,0A2.07,2.07,0,0,0,55,83a2.6,2.6,0,0,0,.36-.13,1.76,1.76,0,0,0,.4-.27,1.92,1.92,0,0,0,.62-.91,1,1,0,0,0,0-.45c0-.15-.1,0-.21,0S56,81,55.83,81s-.29.43-.37.37-.13-.17-.18-.13-.06.24-.47.49h0l-.14,0a.81.81,0,1,1,.3-1.41c.29.28.28.48.35.53S55.43,80.9,55.52,80.85Z"/><path d="M42.28,23.27s.34-.07.35,0-.3.37-.27.43.47,0,.49,0-.24.51.9-.29a5.69,5.69,0,0,0,1.61-1.82,3.33,3.33,0,0,0,.28-2.57l-.07-.24-.12-.29a1.79,1.79,0,0,0-.6-.82c-.1-.05-.09.07-.13.16s-.34.06-.43.15.07.45,0,.47-.21,0-.21.07.12.21.32.7h0l0,.15a2.16,2.16,0,0,1-.23,1.73,5.41,5.41,0,0,1-1.41,1.46C41.92,23.18,42.12,23.15,42.28,23.27Z"/><path d="M60.4,21.1c0-.06-.24-.26-.16-.31s.43.05.45,0-.2-.36-.15-.41.17-.11.15-.17-.15-.11-.49-.41a5.38,5.38,0,0,1-1.32-3l0-.16,0-.21c-.09-.89-.13-.72-.32-.65s-.3-.12-.43-.12-.21.37-.28.36-.33-.39-.19.79h0l0,.19a6.16,6.16,0,0,0,1.91,3.91,1.5,1.5,0,0,0,.79.41C60.43,21.3,60.39,21.2,60.4,21.1Z"/></svg>