<svg id="Layer_2" data-name="Layer 2" xmlns="http://www.w3.org/2000/svg" viewBox="0 0 100 100"><title>shirts</title><path d="M30.63,80c.1-.31.42-5,.52-4.29.05.33,0,2,0,3.56V81.4a4.34,4.34,0,0,0,0,.94c.14,0,.64-5.94.74-5.67.31.84.18,6.52,1-12.45l1.17-27.7a1.05,1.05,0,0,0-1-1.09,1,1,0,0,0-.9.45L25.86,45,27,44.57,16.39,41.92l.76,1.31a45.09,45.09,0,0,1,5.5-12.3c.48-.84,1.14-1.57,1.7-2.36a16.26,16.26,0,0,1,1.19-1.42c.42-.45.81-.94,1.25-1.36a30.65,30.65,0,0,1,6.79-5.17,33.08,33.08,0,0,1,3.15-1.52c1-.43,0-.22-.53-.17-.32,0,.16-.3.73-.63a7.09,7.09,0,0,0,1.24-.73,10.1,10.1,0,0,0-2.92.71c-1.4.48-2.7,1.13-2.62,1,.29-.35,1.74-1.22.92-.88a21.22,21.22,0,0,0-3.25,1.8,30.89,30.89,0,0,0-7.59,7.06h0c-.6.84-1.29,1.61-1.81,2.5a47.37,47.37,0,0,0-5.77,12.89A1,1,0,0,0,15.84,44h0l10.59,2.65a1,1,0,0,0,1.11-.42l6.35-9.11L32,36.43l-1.33,31.5C30,84.09,30.26,81.1,30.63,80Z"/><path d="M39,18.37a5.56,5.56,0,0,0,.08.95c.09.41.17.78.06.69-.27-.17-.93-2.34-1-2.33s.18,2.35.1,2.27c-.24-.09-.51-.69-.49-.34A7.19,7.19,0,0,0,38.12,21a12.08,12.08,0,0,0,.64,1.5,20.23,20.23,0,0,0,1.17,2.12,24.91,24.91,0,0,0,4.25,5,27.5,27.5,0,0,0,5.35,3.83,1,1,0,0,0,.44.11h.32a.93.93,0,0,0,.44-.11,27.05,27.05,0,0,0,8.91-7.83c.23-.34.47-.66.68-1l.79-1.32a13.67,13.67,0,0,0,1.7-4.73c0-.46-.17-.08-.38.09s-.25-1-.45-1-.92,2.1-1,1.93-.06-.8-.21-.52-.23.49-.5,1.2a12.54,12.54,0,0,1-.61,1.34,19.1,19.1,0,0,1-1.06,1.91h0c-.19.31-.41.6-.62.9a24.76,24.76,0,0,1-8.14,7.17l.47-.11H50l.47.11A24.23,24.23,0,0,1,41,22.31a28.45,28.45,0,0,1-1.72-4.18C39.11,17.75,39.09,18.13,39,18.37Z"/><path d="M65.3,18.15c.19.12,1.76.87,3,1.74l.93.61.7.55c.38.3.55.45.35.35A39.88,39.88,0,0,0,66,19.05a22.76,22.76,0,0,0-2.72-1c-.38-.11-.69-.19-.91-.23a1.12,1.12,0,0,0-.35,0s.48.18,1.17.47a24.69,24.69,0,0,1,2.49,1.15,17.76,17.76,0,0,1,3.1,2c-.56-.15-2.47-1.15-1.54-.52a35.21,35.21,0,0,1,3.85,2.77c.27.23.57.45.87.72l.91.87a27.59,27.59,0,0,1,2,2.17A11.66,11.66,0,0,1,76,28.75l1.15,1.52L78.31,32l.59.94.53,1a48.07,48.07,0,0,1,3.68,9.22l.76-1.31L73.28,44.57,74.4,45l-6.35-9.11a1,1,0,0,0-1.46-.27,1.07,1.07,0,0,0-.45.91l1.94,45.86,1-1.09H50.81c-22.14,0-18,.13-16.51.45.86.18-3.17.49-3.17.7a7.08,7.08,0,0,0,1.27.12l2.77.14a35,35,0,0,1,3.76.24c-1.13.35-8.91.45,17.09.45H69.13a1,1,0,0,0,1.05-1v0L68.24,36.43l-1.91.65,6.35,9.11a1,1,0,0,0,1.11.42L84.38,44h0a1,1,0,0,0,.76-1.26v0a44.36,44.36,0,0,0-6.65-14.18,32.52,32.52,0,0,0-9-8.59,22.84,22.84,0,0,0-4.63-2.31C63.3,17.08,64.66,17.68,65.3,18.15Z"/><path d="M61.54,18.26c-.08-.09-1.16-.21-1-.34s1.53-.25,1.53-.36-1.38-.38-1.32-.5c.19-.35,1.51-.45-2.89-.45H41.52c-3.75,0-3.06.13-2.8.45s-.53.49-.53.7,1.38.39,1.32.5c-.19.35-1.51.45,2.89.45H58.74C62.49,18.71,61.8,18.58,61.54,18.26Z"/></svg>