<svg xmlns="http://www.w3.org/2000/svg" viewBox="0 0 69.44 42.01"><title>arrow</title><g id="Layer_2" data-name="Layer 2"><g id="Layer_1-2" data-name="Layer 1"><path d="M55.07,23.25H10.39a10.39,10.39,0,0,1-3.66-.48L.27,19.59c-1-.48.9-1,3.66-1H48.6a10.39,10.39,0,0,1,3.66.48l6.47,3.18C59.72,22.73,57.82,23.25,55.07,23.25Z"/><path d="M42.87,38.17a89.7,89.7,0,0,1,9.35-8.72c3.29-2.65,6.47-5.18,9.53-7.93l.8-.72c.05-.06,0,0,0,0-1.5-1.39-3.05-2.72-4.62-4a116.92,116.92,0,0,0-9.82-7.32A14.3,14.3,0,0,1,45,6.85C43.53,4.7,42,2.56,40.34.48c-.76-1,1.4-.43,4.12,1.15A124.29,124.29,0,0,1,65,16.64l1.56,1.44,2.27,2.14.57.54s.06,0,.06.06l-.07.07-.13.12-.28.26-1.11,1-2.21,2c-1.66,1.48-3.19,2.82-4.84,4.18-3.24,2.72-6.56,5.2-9.52,7.92a14.41,14.41,0,0,1-3.22,2.41c-2.41.93-4.83,2-7.23,3.1C39.72,42.44,40.72,40.47,42.87,38.17Z"/></g></g></svg>