<?xml version="1.0" encoding="UTF-8"?>
<svg width="110px" height="27px" viewBox="0 0 110 27" version="1.1" xmlns="http://www.w3.org/2000/svg" xmlns:xlink="http://www.w3.org/1999/xlink">
    <!-- Generator: Sketch 50.2 (55047) - http://www.bohemiancoding.com/sketch -->
    <title>dash-02-wit</title>
    <desc>Created with Sketch.</desc>
    <defs></defs>
    <g id="dash-02-wit" stroke="none" stroke-width="1" fill="none" fill-rule="evenodd">
        <path d="M10.6291596,21.0294486 C11.3260843,19.8828687 12.1065203,18.8162638 13.0741086,17.8826785 C12.7629135,18.1653111 12.4517184,18.4482158 12.1405233,18.7308484 C12.8083414,18.141373 13.4824161,17.6830131 14.3284098,17.3916757 C13.9222785,17.5007572 13.5164191,17.6103828 13.1102877,17.7194643 C13.6314851,17.5913411 14.7758888,17.7586357 13.4701751,17.4558733 C14.0713474,17.6530905 13.9543773,17.5774679 13.1192645,17.2290056 C13.7321339,17.6528185 13.5792566,17.5257834 12.6611766,16.8481724 C12.6530159,17.0437574 13.8423035,17.9414356 14.0183028,18.1095463 C14.353708,18.4286301 14.6853049,18.7526103 15.0291429,19.0629893 C17.5986787,21.3841675 20.4399662,23.2818048 23.9662094,23.5720541 C26.5536988,23.7847766 29.093856,22.4670938 30.3225871,20.1660454 C30.9632029,18.9666929 31.3706944,17.7066792 31.7896109,16.4240874 C31.8706739,16.165937 31.9577215,15.9096906 32.0504816,15.6550765 C31.7251412,16.3296952 31.7036514,16.4042297 31.986556,15.879224 C32.3138005,15.466292 32.5773915,15.0612487 32.962577,14.6912965 C32.6513819,14.9742011 32.3401868,15.2568338 32.0287197,15.5394664 C32.422882,15.2260951 32.7912021,15.0114684 33.2707799,14.8566869 C32.8649205,14.9660404 32.4590612,15.0751219 32.0529298,15.1847475 C32.6149308,15.1357832 32.5091135,15.0683213 31.7354781,14.9823619 C31.1971433,14.7563102 30.7107649,14.4475633 30.276071,14.0553051 C28.519614,12.4762076 29.8631391,13.6233315 30.287224,14.2098146 C30.9659231,15.1472082 31.573624,16.1365584 32.2947589,17.0432134 C34.419536,19.713942 37.1838407,22.3865748 40.6287488,23.1773477 C43.4392977,23.8225879 46.5221422,23.2880614 48.1284421,20.6227732 C48.8065972,19.4974112 49.2075601,18.2289647 49.5826808,16.9795598 C49.6512308,16.7415391 49.7238611,16.5048785 49.8005718,16.269306 C50.0059497,15.7203621 49.9534491,15.8006091 49.642798,16.510319 C49.551126,16.2665857 50.342171,15.4853337 50.491784,15.3272879 C50.1803169,15.6099205 49.8691217,15.8925531 49.5579266,16.1754578 C50.1283603,15.672758 50.7281726,15.3457855 51.4503955,15.1069487 C51.0445361,15.2160302 50.6386768,15.3253837 50.2325454,15.4347373 C50.8617362,15.2742433 51.444683,15.2426885 52.0904672,15.213038 C53.1374865,15.1651618 51.5458758,14.9924267 52.029806,15.2010689 C52.0950917,15.2293594 52.9661115,15.4390896 52.9576788,15.5185206 C52.2123339,15.144488 52.0401429,15.0729458 52.4419219,15.3028058 C52.6225456,15.4061748 52.7982729,15.5179765 52.9682877,15.638211 C52.7294509,15.5857104 51.7939614,14.6066971 52.5164564,15.2873004 C52.6258099,15.3901254 53.419847,16.0157799 53.4241994,16.1705614 C53.4217512,16.0892263 52.1916601,14.7019054 52.9032741,15.6115527 C55.5005563,18.9302418 58.2621409,22.8879145 62.5767087,24.0249736 C64.3845782,24.5015591 66.4274761,24.58099 68.0819242,23.5549166 C69.433882,22.7162676 70.1174776,21.5944418 70.7374196,20.2103853 C71.2199896,19.1337155 71.5325448,18.0409963 71.8668619,16.9134581 C71.9397643,16.6675487 72.4737468,15.1586332 72.0999863,16.1030995 C71.7550602,16.9752075 72.0232756,16.2388393 72.1856737,16.0622959 C72.34916,15.8841204 72.4840837,15.6928878 72.6625313,15.523961 C72.3513361,15.8065937 72.040141,16.0892263 71.7289459,16.3721309 C71.9982494,16.1632167 72.2588481,16.0233965 72.5803801,15.9099627 C72.1742487,16.0193162 71.7683894,16.1283977 71.362258,16.2380232 C71.5200317,16.1866108 71.6818858,16.1596804 71.8475483,16.1566882 C72.2311017,16.1381905 72.1494946,16.1147965 71.6021829,16.086506 C71.3783074,15.9877614 70.7009684,15.5854384 71.2689539,15.9534865 C70.3106144,15.1621695 70.0402228,14.949719 70.4577792,15.316407 C70.5785577,15.420048 70.6941678,15.5294015 70.8046094,15.6439235 C70.6985202,15.661333 69.3264327,13.8969873 70.1748746,14.983722 C71.0056349,16.0481507 69.674895,14.2696598 69.6191301,14.0751628 C69.6879521,14.3167199 69.9199884,14.5740543 70.0448472,14.7905852 C70.351962,15.3240236 70.638947,15.868343 70.9365409,16.407222 C72.7582836,19.7068694 75.1017677,23.2225036 78.5118568,25.0597517 C82.072919,26.9786068 86.2264488,26.9135932 89.0421661,23.7423409 C90.1473983,22.4972885 90.705591,20.7438237 91.1620467,19.1655423 C91.2787449,18.7618591 91.3856502,18.3543676 91.5137734,17.9536767 C91.578243,17.7531952 92.0768624,16.8413718 91.6663787,17.4662102 C91.2156354,18.152526 91.9490113,17.0978901 91.9707732,17.0679675 C92.198729,16.752148 92.4634081,16.4809404 92.7501211,16.2184375 C92.438926,16.5013422 92.1277308,16.7839748 91.8165357,17.0666074 C92.2351802,16.7535081 92.6239021,16.5519386 93.12769,16.4099422 C92.7215586,16.5192957 92.3156992,16.6286493 91.9095678,16.7380028 C92.3741843,16.7219534 92.4087313,16.682782 92.0132089,16.6204886 C91.6081656,16.5163035 91.6511453,16.5331689 92.1416041,16.6708129 C91.9166405,16.5590112 91.6916769,16.4474815 91.4664412,16.3359518 C91.5874918,16.4102142 91.7085423,16.4842047 91.8295929,16.5581951 C92.2974736,16.8922402 92.2939373,16.8794551 91.818984,16.5195678 C91.3451187,16.1392786 91.3407663,16.1463513 91.8064709,16.5405136 C92.0782225,16.809001 92.3671117,17.0608949 92.6388634,17.3301984 C93.7843552,18.4642652 94.8406232,19.6856516 96.0693542,20.7334868 C97.835332,22.239682 99.7550033,23.5603571 101.97118,24.317671 C104.166956,25.0681844 106.138583,24.9683517 108.30226,24.2542895 C109.593284,23.8283004 109.975478,21.6072269 109.998328,20.5577595 C110.039675,18.6563139 109.309292,16.3832839 108.369994,14.7620227 C106.770222,12.0012542 103.901732,8.51989492 100.343118,9.69422122 C100.207379,9.7388331 100.071639,9.78371701 99.936171,9.82860092 C100.34203,9.7192474 100.748162,9.60989387 101.154021,9.50054035 C100.583587,9.63165577 100.060214,9.61615042 99.4859718,9.66049028 C100.402964,9.58976412 99.8371544,9.71679918 99.3907635,9.57725103 C99.2066035,9.519582 98.3470086,9.12133931 99.098338,9.51550165 C100.095033,10.0383312 97.5303935,8.34879202 98.6677245,9.26877616 C99.6189914,10.0380592 98.4577222,9.04843696 98.3551693,8.95268462 C98.1307498,8.74322638 97.9125868,8.52751159 97.6957839,8.31016465 C95.2970789,5.90629125 92.9835174,3.30955306 89.7439872,2.02560121 C86.711467,0.823800524 83.4806416,1.8612989 81.8251054,4.7036745 C81.0691515,6.00149955 80.6173202,7.39834122 80.2046602,8.82673765 C80.1268615,9.09549706 80.0515109,9.36534457 79.9652794,9.63165577 C79.9067943,9.8122795 79.4076308,10.7921089 79.7955366,10.1577496 C80.1649448,9.55304092 79.6470117,10.322596 79.5754694,10.4235167 C79.3880451,10.6876518 79.1823952,10.9117993 78.9525352,11.1411153 C79.2637303,10.8584826 79.5749254,10.57585 79.8863925,10.2929454 C79.2961011,10.7910208 78.6815996,11.1253379 77.9457755,11.3630866 C78.3516348,11.253461 78.7577662,11.1443795 79.1638976,11.035026 C78.7879608,11.126154 78.4403146,11.1544444 78.0613855,11.2156497 C77.1729562,11.3584622 78.6225704,11.4784246 78.1372802,11.2997051 C77.0361282,10.8943898 78.2460896,11.298889 78.4667009,11.5657442 C78.3290569,11.4933859 78.1963093,11.4131389 78.0684582,11.3250033 C77.6046578,11.0140802 77.8804898,11.2344194 78.8954102,11.9868369 C78.8200596,11.9169268 78.744437,11.8472888 78.6690865,11.7773787 C78.1250391,11.2191861 78.3687723,11.4933859 79.4008302,12.6010664 C79.2675386,12.3799112 79.0847387,12.1655565 78.9285971,11.9604506 C78.342386,11.1911676 80.1371984,13.9598248 79.5218808,12.8518723 C79.3602987,12.5610789 79.191644,12.2740939 79.030878,11.9827566 C77.0856365,8.45977769 74.9434499,4.88130597 71.4947335,2.62214918 C68.4012801,0.596116691 63.8995599,0.0275871669 61.9866893,3.86502544 C61.3398169,5.16257847 60.9546314,6.47781304 60.5444197,7.85561306 C60.4739655,8.09227367 60.3918144,8.32539798 60.3210882,8.56151455 C60.0621216,9.42818204 60.2762043,8.4782753 60.5104167,8.2372623 C60.1431847,8.61537524 59.9592967,9.17547203 59.5583338,9.56637008 C59.8695289,9.28373746 60.180724,9.00110484 60.4919191,8.7182002 C60.1140782,9.02885126 59.7370533,9.22362022 59.2748851,9.37921778 C59.6807444,9.27013627 60.0866038,9.16051073 60.4927352,9.0511572 C60.1894287,9.11535479 59.8556557,9.09794528 59.5637742,9.16703929 C59.0651548,9.28482555 60.2737561,9.43171835 59.7898259,9.21953987 C58.9359435,8.84469121 59.4753665,9.12106729 59.9709937,9.39118682 C59.2106875,8.97635068 60.1624984,9.56963436 60.3744049,9.75352238 C59.2076952,8.74159423 61.1869396,10.8386249 60.6450684,10.1232026 C60.4160245,9.82098426 60.1687549,9.531007 59.9386229,9.22933272 C59.5341237,8.69915854 59.1437697,8.15864745 58.7251252,7.63881017 C56.3022101,4.63322036 53.2433037,1.55663236 49.4251791,0.442695327 C46.2629036,-0.479737026 42.9986193,0.0825359534 40.6652,2.46328734 C39.6277016,3.52200356 39.0986155,5.06818625 38.6780669,6.46230769 C38.6160455,6.6679576 38.3130111,8.03922905 38.185704,8.04874988 C38.1429963,8.05201417 38.828768,7.05912768 38.3021302,7.75904465 C38.0766225,8.05854273 37.9038875,8.31886941 37.6397525,8.59034906 C37.9509476,8.30771644 38.2621427,8.0248118 38.5736098,7.74217918 C38.1707427,8.07159987 37.7858292,8.28704264 37.2945544,8.45814554 C37.7006858,8.34879202 38.1065451,8.23943849 38.5124045,8.13008497 C38.2523498,8.19074625 37.266808,8.46630625 37.0429325,8.25494384 C37.7757643,8.37871462 37.8532911,8.36946582 37.2755127,8.2269254 C36.6569308,7.99135288 36.773357,8.06588737 37.6250632,8.45052888 C37.3924829,8.32430988 37.1683354,8.18421768 36.9528926,8.03052429 C37.8736928,8.78511803 38.0483321,8.89610369 37.4765382,8.36402534 C39.2316351,10.0889276 37.8456744,8.73941804 37.4645692,8.21441231 C35.5168795,5.53035451 33.719891,2.75190448 30.7866595,1.00823259 C27.670356,-0.843976754 24.0742028,-0.126650269 22.1602441,3.01549544 C21.4320366,4.21049554 21.0150243,5.54912414 20.5860429,6.86843907 C20.5044358,7.12849372 20.4176603,7.38718825 20.3251722,7.64343457 C20.1059211,8.20217125 20.1333955,8.14749448 20.4070513,7.47913226 C20.4824019,7.77373392 19.6195427,8.5288717 19.4334785,8.70351092 C19.7446736,8.4208783 20.0558688,8.13797365 20.3670639,7.85534103 C19.9299218,8.18204149 19.5099172,8.39748426 18.99144,8.56722705 C19.3972994,8.4576015 19.8034308,8.34851999 20.2095621,8.23889444 C19.932914,8.3003718 18.8812704,8.59361334 18.6440658,8.37735451 C18.8328502,8.40754914 19.0216347,8.43747174 19.2104191,8.46766637 C18.9435639,8.41026937 18.681605,8.33655095 18.4239986,8.24596706 C17.1939074,7.9570779 19.4680255,8.83027396 18.3666016,8.19101827 C17.7425792,7.75333215 17.8527488,7.85642913 18.6965663,8.49949314 C18.4601778,8.30336406 18.2284136,8.10152248 18.0012738,7.8939684 C15.9401502,6.0319662 14.0520338,3.97764325 11.4169402,2.91539072 C6.81919572,1.06209328 3.05057944,4.46782995 0.802847642,8.16572007 C-1.12063191,11.3301717 0.749258973,16.0503269 2.87131582,18.6661067 C4.26135691,20.37904 8.62788127,24.3220234 10.6291596,21.0294486" id="Fill-1" fill="#FFFFFF"></path>
    </g>
</svg>