<svg xmlns="http://www.w3.org/2000/svg" xmlns:xlink="http://www.w3.org/1999/xlink" viewBox="0 0 157.26 47.82"><defs><style>.cls-1,.cls-2,.cls-3{fill:#59ecff;}.cls-1{clip-rule:evenodd;}.cls-3{fill-rule:evenodd;}.cls-4{clip-path:url(#clip-path);}.cls-5{clip-path:url(#clip-path-2);}</style><clipPath id="clip-path"><path class="cls-1" d="M132.41,21.32c.85-.75,5.75-2.79,10.53-4.48l3.47-1.2,3-1c1.75-.58,2.88-1,2.85-1.2s-1.29-.27-3.12-.19c-.91,0-2,.14-3.09.24s-2.32.26-3.51.39c-4.76.57-9.4,1.43-9.1.91.92-1.57,5.9-3.81,3.06-3.48a27.55,27.55,0,0,0-3.78.83c-1.75.45-4.08,1.16-7.12,2.18a7.22,7.22,0,0,0-8.48-9.13,154.64,154.64,0,0,0-20.31,6.15,6.92,6.92,0,0,0-1-2.15A7.23,7.23,0,0,0,88.41,6.3a204.54,204.54,0,0,0-28.28,8.1,7.2,7.2,0,0,0-9.41-6.08L46.49,9.7c-49.42,16.12-40,14-35.89,15,2.32.55-6,5.51-5.58,6.88.31.94,19.08-3.45,18.48-2.41-1.24,2.17-10,5.93,5.12,1.36a7.21,7.21,0,0,0,9.87,9.76l0,0a174.25,174.25,0,0,1,15.63-7.86A7.22,7.22,0,0,0,64,40.58l14.16-6,9.37-4a7.21,7.21,0,0,0,5.57,12.21,24,24,0,0,0,6.14-1.17,35.5,35.5,0,0,0,5-2.09c.75-.37,1.44-.73,2.12-1.09l1.92-1c1.23-.65,2.47-1.29,3.72-1.91,2.79-1.38,5.41-2.59,7.86-3.65s4.73-2,6.83-2.82c4.2-1.64,7.73-2.85,10.63-3.81,5.8-1.92,9.1-2.86,10.74-3.54,3.31-1.29,0-1.34-1.94-2-.55-.18-4.44.42-7.94,1.07s-6.64,1.25-5.79.5"/></clipPath><clipPath id="clip-path-2"><rect class="cls-2" x="5" y="5" width="148" height="38"/></clipPath></defs><title>dash-04</title><g id="Layer_2" data-name="Layer 2"><g id="Layer_1-2" data-name="Layer 1"><path class="cls-3" d="M132.41,21.32c.85-.75,5.75-2.79,10.53-4.48l3.47-1.2,3-1c1.75-.58,2.88-1,2.85-1.2s-1.29-.27-3.12-.19c-.91,0-2,.14-3.09.24s-2.32.26-3.51.39c-4.76.57-9.4,1.43-9.1.91.92-1.57,5.9-3.81,3.06-3.48a27.55,27.55,0,0,0-3.78.83c-1.75.45-4.08,1.16-7.12,2.18a7.22,7.22,0,0,0-8.48-9.13,154.64,154.64,0,0,0-20.31,6.15,6.92,6.92,0,0,0-1-2.15A7.23,7.23,0,0,0,88.41,6.3a204.54,204.54,0,0,0-28.28,8.1,7.2,7.2,0,0,0-9.41-6.08L46.49,9.7c-49.42,16.12-40,14-35.89,15,2.32.55-6,5.51-5.58,6.88.31.94,19.08-3.45,18.48-2.41-1.24,2.17-10,5.93,5.12,1.36a7.21,7.21,0,0,0,9.87,9.76l0,0a174.25,174.25,0,0,1,15.63-7.86A7.22,7.22,0,0,0,64,40.58l14.16-6,9.37-4a7.21,7.21,0,0,0,5.57,12.21,24,24,0,0,0,6.14-1.17,35.5,35.5,0,0,0,5-2.09c.75-.37,1.44-.73,2.12-1.09l1.92-1c1.23-.65,2.47-1.29,3.72-1.91,2.79-1.38,5.41-2.59,7.86-3.65s4.73-2,6.83-2.82c4.2-1.64,7.73-2.85,10.63-3.81,5.8-1.92,9.1-2.86,10.74-3.54,3.31-1.29,0-1.34-1.94-2-.55-.18-4.44.42-7.94,1.07s-6.64,1.25-5.79.5"/><g class="cls-4"><rect class="cls-2" x="5" y="5" width="148" height="38"/><g class="cls-5"><rect class="cls-2" width="157.26" height="47.82"/></g></g></g></g></svg>