<?xml version="1.0" encoding="UTF-8"?>
<svg width="305px" height="76px" viewBox="0 0 305 76" version="1.1" xmlns="http://www.w3.org/2000/svg" xmlns:xlink="http://www.w3.org/1999/xlink">
    <!-- Generator: Sketch 50.2 (55047) - http://www.bohemiancoding.com/sketch -->
    <title>Fill 1</title>
    <desc>Created with Sketch.</desc>
    <defs>
        <path d="M35.7755153,48.8720273 C34.9239723,49.6444412 34.0724293,50.4175985 33.2208864,51.1900123 C35.0482797,49.5790202 36.8927933,48.3263566 39.2077396,47.5301533 C38.0964165,47.8282649 36.9858377,48.1278634 35.8745146,48.425975 C37.3007002,48.0758239 40.4322049,48.5330275 36.8592973,47.7056005 C38.5043235,48.2445804 37.8775759,49.0326061 38.3591741,49.49204 C39.2769647,50.3640722 40.1843344,51.249486 41.1252001,52.0977288 C48.1563845,58.4413357 55.9311803,63.627437 65.5802638,64.4206667 C72.6605757,65.0020215 79.6113697,61.4008927 82.9736246,55.1122988 C84.7265824,51.8345579 85.8416273,48.3910342 86.9879352,44.8858067 C87.2097532,44.1803006 87.447947,43.4799985 87.7017723,42.784157 C86.8115229,44.6278397 86.7527188,44.831537 87.5268487,43.3967354 C88.4223087,42.2682231 89.1435894,41.16127 90.1975972,40.1502182 C89.3460542,40.9233755 88.4945112,41.6957894 87.6422239,42.4682032 C88.7207954,41.6117829 88.8197947,41.1991845 87.7084715,41.4987829 C89.2463105,41.3649673 86.3969167,44.1000112 88.3702038,46.5778317 C94.1843666,53.876734 101.74851,61.1808402 111.175031,63.3419635 C118.865714,65.1053569 127.301498,63.6445357 131.696919,56.3605018 C133.552598,53.2849713 134.649778,49.8184016 135.676245,46.4038713 C135.863822,45.7533784 136.062565,45.1066025 136.272474,44.4628004 C136.834462,42.9625779 136.690802,43.1818869 135.840747,45.1214709 C135.589899,44.4553662 137.754486,42.3202626 138.163882,41.8883353 C137.311594,42.6607492 136.460051,43.433163 135.608508,44.2063203 C137.169422,42.8324793 138.810727,41.9388879 140.786991,41.2861647 C139.676413,41.5842763 138.565834,41.8831313 137.454511,42.1819864 C139.176205,41.7433683 140.77136,41.6571315 142.53846,41.5760987 C142.551114,41.6207039 144.934542,42.1938811 144.911467,42.4109599 C142.871932,41.3887567 142.400755,41.1932371 143.500168,41.8214274 C143.99442,42.1039272 144.475274,42.409473 144.940496,42.7380649 C144.286952,42.5945847 141.727113,39.9190144 143.704121,41.7790525 C144.003352,42.0600654 146.176127,43.7699325 146.188037,44.1929388 C146.181337,43.970656 142.815361,40.1792116 144.762595,42.6652097 C151.869704,51.7349396 159.426404,62.5509642 171.23263,65.6584618 C176.179618,66.9609345 181.76973,67.1780132 186.296902,64.3738312 C189.99635,62.0818658 191.866916,59.0159998 193.563303,55.2334763 C194.88379,52.2910181 195.739054,49.304698 196.653868,46.2232201 C196.853355,45.551168 205.505746,63.4653713 214.83699,68.4864333 C224.581351,73.7305214 235.946919,73.5528439 243.651745,64.8860479 C246.676063,61.4834123 248.203481,56.6913239 249.45251,52.3779983 C249.771838,51.2747623 250.06437,50.1611184 250.414962,49.06606 C250.591374,48.5181591 251.955778,46.0262137 250.832545,47.7338505 C249.599148,49.6095004 251.605931,46.7272592 251.665479,46.6454829 C252.289249,45.7823718 253.013508,45.0411815 253.798059,44.3237808 C252.946516,45.0969381 252.094973,45.869352 251.24343,46.6417658 C252.388993,45.7860889 253.452677,45.2352143 254.831224,44.8471488 C253.719901,45.1460038 252.609322,45.4448589 251.497999,45.7437139 C251.517353,45.2545432 250.90177,44.9497408 250.285444,44.6449384 C250.616682,44.8478922 250.94792,45.0501026 251.279159,45.252313 C251.9595,45.9377466 252.750006,46.626154 253.493617,47.3621403 C256.628099,50.4614603 259.518432,53.7994182 262.880687,56.6630739 C267.713045,60.7793931 272.965963,64.3886996 279.03023,66.4583822 C285.038669,68.5094793 290.43376,68.236644 296.354365,66.2851652 C299.887078,65.1209688 300.932898,59.0509405 300.995424,56.1828243 C301.108566,50.9863151 299.10997,44.7742936 296.53971,40.3435075 C292.162154,32.798533 284.312922,23.2842377 274.575261,26.4935839 C274.203827,26.6155049 273.832394,26.7381693 273.461704,26.8608336 C274.572283,26.5619786 275.683606,26.2631236 276.794185,25.9642685 C275.233271,26.3225972 273.801131,26.2802222 272.229796,26.4013998 C271.465342,26.016308 269.113178,24.9279404 271.169089,26.0051567 C273.896408,27.4340108 266.878622,22.8166262 269.990774,25.3308743 C272.593786,27.4332674 269.416131,24.7287037 269.135509,24.4670197 C268.521415,23.8945859 267.924442,23.3050535 267.33119,22.7110605 C260.767461,16.1414537 254.436716,9.04476179 245.572183,5.53581711 C237.274105,2.25138542 228.433392,5.08679114 223.903243,12.8547918 C221.834678,16.4016509 220.598303,20.2191151 219.469116,24.122816 C219.25623,24.8573154 219.050043,25.5947886 218.814083,26.3225972 C218.654046,26.8162284 217.288153,29.494029 218.349605,27.7603724 C219.36044,26.1077487 217.943186,28.2108852 217.747421,28.4866942 C217.23456,29.2085555 216.671827,29.821134 216.042846,30.4478375 C216.894389,29.6754236 217.745932,28.9030097 218.59822,28.1298524 C216.982968,29.4910553 215.509888,30.4567585 216.621211,30.1579035 C215.592511,30.4069493 214.641224,30.4842651 213.604337,30.6515347 C210.79886,29.7735551 214.109754,30.8790214 214.713427,31.6083168 C214.336783,31.410567 215.473414,32.377757 215.267228,32.186698 C214.274753,31.1696988 214.511458,31.3364728 215.977343,32.68702 C214.373256,30.5846268 205.072531,13.3402453 195.635589,7.16613823 C187.170775,1.62914248 174.852432,0.0753936707 169.618123,10.5628264 C167.848045,14.1089421 166.794037,17.7033801 165.671548,21.4688049 C165.47876,22.1155807 165.253965,22.7526921 165.060432,23.397981 C164.351806,25.7665187 164.937614,23.1704944 165.578504,22.5118238 C164.573624,23.5451783 164.676345,24.5993485 165.527888,23.8261912 C164.493978,24.6751774 163.4623,25.2074665 162.19764,25.632703 C163.308219,25.3345914 164.418798,25.0349929 165.530121,24.7361379 C164.700164,24.9115851 163.78684,24.8640062 162.988146,25.052835 C161.270173,24.1718818 162.74623,24.927197 164.102446,25.6654135 C162.021972,24.5316973 164.626473,26.1530973 165.206326,26.6556496 C162.013784,23.8901254 164.643593,26.0475316 164.013868,25.2230783 C162.907011,23.7741518 161.838861,22.2969753 160.693297,20.8762988 C154.06332,12.6622459 145.69304,4.2541602 135.245263,1.20985333 C126.592127,-1.31108553 117.659858,0.225564608 111.274775,6.73198067 C108.435802,9.62537319 106.98803,13.8509752 105.837256,17.6610052 C105.667543,18.2230311 104.83833,21.9706137 104.489972,21.9966334 C104.373108,22.0055545 106.249629,19.2920697 104.808556,21.2048906 C104.191485,22.0233966 103.718819,22.73485 102.99605,23.4767836 C103.847593,22.7043697 104.699136,21.9312124 105.551423,21.1587985 C104.449032,22.0590808 103.395769,22.6478698 102.051462,23.1154813 C103.162786,22.8166262 104.273364,22.5177712 105.383943,22.2189162 C104.672339,22.3846989 101.975538,23.1377839 101.362933,22.5601462 C100.306693,21.8397717 100.625277,22.0434689 102.955855,23.0946655 C102.319431,22.7497184 101.706081,22.3668568 101.116552,21.9468243 C103.636196,24.0090727 104.114072,24.3123882 102.549436,22.8582578 C107.35202,27.572287 103.559527,23.884178 102.516685,22.4493765 C97.1870977,15.1140466 92.2698836,7.5207498 84.2434955,2.75542451 C75.7161561,-2.30652555 65.8757731,-0.346125743 60.638486,8.24112425 C58.6458457,11.5069704 57.5047483,15.1653426 56.3308993,18.770932 C56.1075926,19.4816419 55.8701431,20.1886348 55.6170621,20.8889369 C55.0171114,22.4159226 55.0922913,22.2664951 55.8411132,20.4399109 C56.0472998,21.2450353 53.6862033,23.3087706 53.177064,23.7860465 C54.028607,23.0136326 54.8801499,22.2404753 55.7316929,21.4680615 C54.5355132,22.3609095 53.386228,22.9496985 51.9674859,23.4135929 C53.0780647,23.1139944 54.1893878,22.8158828 55.3007109,22.5162843 C54.5437011,22.6842974 51.6660218,23.4857047 51.0169436,22.8946854 C51.5335265,22.977205 52.0501094,23.0589813 52.5666923,23.141501 C51.8364793,22.9846393 51.1196647,22.7831723 50.4147598,22.5356133 C48.5501487,21.1892788 48.8516127,21.4710351 51.1606043,23.2284812 C50.5137591,22.692475 49.879568,22.140857 49.258031,21.5736272 C43.6180475,16.484914 38.4514742,10.8706025 31.2409001,7.96754551 C18.6597992,2.90262176 8.34749465,12.2102462 2.19688309,22.3163042 C-3.06645641,30.9645147 2.05024501,43.8643469 7.85696421,51.0130783 C11.6606221,55.694397 23.6090206,66.4702769 29.0852458,57.4719154 C30.9922852,54.3383981 33.1278419,51.4234464 35.7755153,48.8720273 Z" id="path-1"></path>
        <filter x="-0.7%" y="-2.8%" width="102.7%" height="111.1%" filterUnits="objectBoundingBox" id="filter-2">
            <feOffset dx="4" dy="4" in="SourceAlpha" result="shadowOffsetOuter1"></feOffset>
            <feColorMatrix values="0 0 0 0 0.650980392   0 0 0 0 0.866666667   0 0 0 0 0.929411765  0 0 0 1 0" type="matrix" in="shadowOffsetOuter1"></feColorMatrix>
        </filter>
    </defs>
    <g id="Symbols" stroke="none" stroke-width="1" fill="none" fill-rule="evenodd">
        <g id="dash-02-copy">
            <g id="Fill-1">
                <use fill="black" fill-opacity="1" filter="url(#filter-2)" xlink:href="#path-1"></use>
                <use fill="#FFFFFF" fill-rule="evenodd" xlink:href="#path-1"></use>
            </g>
        </g>
    </g>
</svg>