<svg xmlns="http://www.w3.org/2000/svg" xmlns:xlink="http://www.w3.org/1999/xlink" viewBox="0 0 122 41.96"><defs><style>.cls-1,.cls-2,.cls-3{fill:#59ecff;}.cls-1{clip-rule:evenodd;}.cls-3{fill-rule:evenodd;}.cls-4{clip-path:url(#clip-path);}.cls-5{clip-path:url(#clip-path-2);}</style><clipPath id="clip-path"><path class="cls-1" d="M114.36,19.08a42.25,42.25,0,0,0-4.78,1.2,7.66,7.66,0,0,0,.35-8.72,7,7,0,0,0-7-3.18l-1.59.28c-.63.11-1.34.23-2.07.38a63.78,63.78,0,0,0-9.69,2.53c-1.08.4-2.15.84-3.19,1.31a7.57,7.57,0,0,0-1.94-3.06A7,7,0,0,0,78.5,8c-3.64.62-7.3,1.29-11,2.11-1.8.4-3.6.83-5.4,1.31a7.88,7.88,0,0,0-.87-1.71,7,7,0,0,0-8.17-2.63C50,8.25,46.82,9.36,43.66,10.36c-2,.65-4.06,1.25-6.12,1.84a7.54,7.54,0,0,0-2.37-5.36,7,7,0,0,0-6.06-1.71c-3.36.7-6.2,1.16-8.86,1.65a47.64,47.64,0,0,0-7,1.72,30.49,30.49,0,0,0-4.37,1.87,12.88,12.88,0,0,0-2,1.29c-.75.65-.47.87.17,1s1.7.11,2.52.3c.52.12.48.54.17,1.11a19.47,19.47,0,0,1-1.49,2.11C7,17.69,5.79,19.42,6.12,20.06c.18.37,2.48-.37,5.14-1l-.64.5,0,0-1.5,1.21L7.61,22a7.63,7.63,0,0,0-1,10.41,6.92,6.92,0,0,0,7.82,2.31l.18-.06c1.24-.46,2.49-.94,3.73-1.37,3.14-1.13,6.28-2.14,9.48-3.08,1.17-.35,2.35-.68,3.54-1a7.45,7.45,0,0,0,1.31,3.66,6.92,6.92,0,0,0,8.81,2.36,135.77,135.77,0,0,1,19.1-8l.25-.08a7.63,7.63,0,0,0,2.08,7.43,7,7,0,0,0,1.88,1.28l0,0a11.7,11.7,0,0,0,5.89,1A15.62,15.62,0,0,0,75,35.75a29.21,29.21,0,0,0,2.94-1.42l2.25-1.26q2.2-1.24,4.37-2.51c.85-.49,1.69-1,2.52-1.46a9.84,9.84,0,0,0,.23,1.63,10.42,10.42,0,0,0,.51,1.55,13.71,13.71,0,0,0,.69,1.32,6.8,6.8,0,0,0,7.65,3.11h0a49.42,49.42,0,0,0,5.29-1.83c.76-.31,1.46-.63,2.15-.93l1.89-.89c2.38-1.15,4.2-2.15,5.63-2.95a28.51,28.51,0,0,0,4.71-3c1.06-1-.93-1-2.45-1.33a8.07,8.07,0,0,0-2.22.52c-1.12.36-2.55.87-3.92,1.32-1.12.38-2.2.71-3.06.92l.21-.21.22-.22c.07-.09.13-.14.22-.25s.33-.43.49-.65.32-.44.47-.67l.12-.17.12-.21.16-.32,4-2.59c1.7-1.08,3.35-2.11,4.63-2.83.32-.19.62-.34.88-.48s.5-.28.7-.37c.4-.2.63-.36.61-.45s-1.15-.33-2.64-.07"/></clipPath><clipPath id="clip-path-2"><rect class="cls-2" x="5" y="5" width="112" height="32"/></clipPath></defs><title>dash-03</title><g id="Layer_2" data-name="Layer 2"><g id="Layer_1-2" data-name="Layer 1"><path class="cls-3" d="M114.36,19.08a42.25,42.25,0,0,0-4.78,1.2,7.66,7.66,0,0,0,.35-8.72,7,7,0,0,0-7-3.18l-1.59.28c-.63.11-1.34.23-2.07.38a63.78,63.78,0,0,0-9.69,2.53c-1.08.4-2.15.84-3.19,1.31a7.57,7.57,0,0,0-1.94-3.06A7,7,0,0,0,78.5,8c-3.64.62-7.3,1.29-11,2.11-1.8.4-3.6.83-5.4,1.31a7.88,7.88,0,0,0-.87-1.71,7,7,0,0,0-8.17-2.63C50,8.25,46.82,9.36,43.66,10.36c-2,.65-4.06,1.25-6.12,1.84a7.54,7.54,0,0,0-2.37-5.36,7,7,0,0,0-6.06-1.71c-3.36.7-6.2,1.16-8.86,1.65a47.64,47.64,0,0,0-7,1.72,30.49,30.49,0,0,0-4.37,1.87,12.88,12.88,0,0,0-2,1.29c-.75.65-.47.87.17,1s1.7.11,2.52.3c.52.12.48.54.17,1.11a19.47,19.47,0,0,1-1.49,2.11C7,17.69,5.79,19.42,6.12,20.06c.18.37,2.48-.37,5.14-1l-.64.5,0,0-1.5,1.21L7.61,22a7.63,7.63,0,0,0-1,10.41,6.92,6.92,0,0,0,7.82,2.31l.18-.06c1.24-.46,2.49-.94,3.73-1.37,3.14-1.13,6.28-2.14,9.48-3.08,1.17-.35,2.35-.68,3.54-1a7.45,7.45,0,0,0,1.31,3.66,6.92,6.92,0,0,0,8.81,2.36,135.77,135.77,0,0,1,19.1-8l.25-.08a7.63,7.63,0,0,0,2.08,7.43,7,7,0,0,0,1.88,1.28l0,0a11.7,11.7,0,0,0,5.89,1A15.62,15.62,0,0,0,75,35.75a29.21,29.21,0,0,0,2.94-1.42l2.25-1.26q2.2-1.24,4.37-2.51c.85-.49,1.69-1,2.52-1.46a9.84,9.84,0,0,0,.23,1.63,10.42,10.42,0,0,0,.51,1.55,13.71,13.71,0,0,0,.69,1.32,6.8,6.8,0,0,0,7.65,3.11h0a49.42,49.42,0,0,0,5.29-1.83c.76-.31,1.46-.63,2.15-.93l1.89-.89c2.38-1.15,4.2-2.15,5.63-2.95a28.51,28.51,0,0,0,4.71-3c1.06-1-.93-1-2.45-1.33a8.07,8.07,0,0,0-2.22.52c-1.12.36-2.55.87-3.92,1.32-1.12.38-2.2.71-3.06.92l.21-.21.22-.22c.07-.09.13-.14.22-.25s.33-.43.49-.65.32-.44.47-.67l.12-.17.12-.21.16-.32,4-2.59c1.7-1.08,3.35-2.11,4.63-2.83.32-.19.62-.34.88-.48s.5-.28.7-.37c.4-.2.63-.36.61-.45s-1.15-.33-2.64-.07"/><g class="cls-4"><rect class="cls-2" x="5" y="5" width="112" height="32"/><g class="cls-5"><rect class="cls-2" width="122" height="41.96"/></g></g></g></g></svg>