<svg xmlns="http://www.w3.org/2000/svg" viewBox="0 0 200 201.24"><title>icon-vegan</title><g id="Layer_1" data-name="Layer 1"><path d="M97.6,49.5c.28.06,1.46-.12,3.05-.14a40.44,40.44,0,0,1,5.41.17c3.71.35,6.85,1.32,5.75,1.32s-6.47-.67-11.49.18a29.07,29.07,0,0,0-6.57,1.73,11.17,11.17,0,0,0-2.68,1.33,12.61,12.61,0,0,0,2.87-.62,33.16,33.16,0,0,1,6.19-.85,33.54,33.54,0,0,1,6,.29c1.58.27,2.54.49,2.32.58-1.34.43-6.1.73-3.61,1a52.15,52.15,0,0,1,10.39,1.85,59.3,59.3,0,0,1,11.25,4.49,23.36,23.36,0,0,1,6.09,4.35,22.87,22.87,0,0,1,4.48,7.7,78.28,78.28,0,0,1,4.5,23.65,184.81,184.81,0,0,1-.87,24.82c-.74,8.27-1.92,16.38-5.12,23.44s-8.46,13.06-15.31,15.44a29.5,29.5,0,0,1-11.06,1.57c-1,0-1.92-.11-2.88-.22l-1.64-.17-1.68-.14c-2.22-.15-4.34-.2-6.35-.33a34.1,34.1,0,0,1-5.67-.74,20.75,20.75,0,0,1-2.54-.76c-1-.37-1.91-.74-2.82-1.12a27.87,27.87,0,0,1-4.93-2.59,18.65,18.65,0,0,1-3.85-3.6,35.37,35.37,0,0,1-3.23-4.73c-1-1.7-2-3.58-2.89-5.36a113.6,113.6,0,0,1-8.26-23,56.68,56.68,0,0,1-1.61-11.79,52.75,52.75,0,0,1,.49-9A54.22,54.22,0,0,1,64,87.19a60.94,60.94,0,0,1,6.89-14,61.58,61.58,0,0,1,6.84-8.6c1-1.07,1.94-2,2.82-2.81s1.6-1.51,2.3-2.06l1.75-1.5,1.25-1c2.65-2.17-.1-.74-1.86-.21-1,.31.19-1.09,1.64-2.64s3.27-3.1,3.08-3.45a10.58,10.58,0,0,0-2.79,1.18c-.83.38-1.7,1-2.68,1.52-.48.29-1,.57-1.48.9l-1.47,1-1.46,1-1.35,1c-.86.69-1.7,1.28-2.34,1.85C73.82,60.54,73,61.21,73.06,61a19,19,0,0,1,2-3.06c.72-.94,1.11-1.5,0-.64a51.45,51.45,0,0,0-8.25,8.85,68.67,68.67,0,0,0-7.07,11.7l-.91,2c-.3.67-.56,1.38-.85,2.1s-.59,1.45-.85,2.21l-.77,2.37c-.28.8-.51,1.63-.73,2.49s-.46,1.73-.67,2.64c-.35,1.81-.79,3.7-1,5.71v0a60.57,60.57,0,0,0-.55,10.16,62.91,62.91,0,0,0,.61,7.13c.35,2.39.84,4.67,1.38,6.94a117.21,117.21,0,0,0,4.11,13.27,108.22,108.22,0,0,0,5.65,12.73c2.14,4,4.53,8.34,8.34,12A26.55,26.55,0,0,0,79.8,164c1.11.57,2.23,1.06,3.32,1.52l1.64.65c.53.21,1,.41,1.7.64a31.47,31.47,0,0,0,7.43,1.55c2.42.25,4.72.31,6.9.42,1.1.05,2.16.12,3.2.21l1.6.17c.61.07,1.21.13,1.82.17a42.36,42.36,0,0,0,7.38-.11,31.88,31.88,0,0,0,14.27-4.9,35.51,35.51,0,0,0,10.39-10.73,48.26,48.26,0,0,0,5.81-13.3,88.4,88.4,0,0,0,2.55-13.8c.51-4.57.86-9,1.14-13.6a128.16,128.16,0,0,0-.9-27.63,78.27,78.27,0,0,0-3.4-13.71,40.7,40.7,0,0,0-3-6.76,24.22,24.22,0,0,0-5-6.15,36.16,36.16,0,0,0-8.45-5.35,70.86,70.86,0,0,0-7.49-3,52.58,52.58,0,0,0-12.22-2.63,37.89,37.89,0,0,0-8.21.1,24.75,24.75,0,0,0-2.66.43,14,14,0,0,0-1.82.46C92,49.82,95.64,49.26,97.6,49.5Z"/><path d="M147.62,66.62c.08.15.54.23,1,.28s.93,0,.91.31-.57.77-1.18,1.17-1.29.68-1.28.87.79.55,1.64.65,1.69.1,1.7.32c.06.67-.77,1.4-.19,1.45a4.88,4.88,0,0,0,2.13-.69,20,20,0,0,0,4.4-3.2,65.65,65.65,0,0,0,5.49-5.46,29.41,29.41,0,0,0,4.56-7,41.19,41.19,0,0,0,3.39-15.57c0-.48,0-1,.06-1.44l0-1.83c0-3.84-.19-5.34-.46-5.86s-.67,0-1.24.24-1.79-1-2.54-1c-.52,0-1.31,2.77-1.74,2.65-.63-.18-1.05-.9-1.29-.52s-.25,1.92-.34,6.08h0c0,.44,0,.87,0,1.3-.22,4.86-1,9.51-3,13.4a22.65,22.65,0,0,1-3.88,5.4c-.79.86-1.65,1.7-2.55,2.55s-1.83,1.71-2.67,2.39a15.39,15.39,0,0,1-2.47,1.69,3.12,3.12,0,0,0-.84.57C147,65.75,147.29,66.1,147.62,66.62Z"/><path d="M168.22,31.35c-.34,0-1.35,1.39-1.69,1s-.07-2.44-.44-2.55-1.94,1.36-2.31,1.09c-.53-.35-.75-.94-1.07-.8s-.67,1-2,3.39a21.88,21.88,0,0,1-6.13,6.62,92.22,92.22,0,0,1-8.76,5.16l-.88.48-1.12.62c-.59.32-1.09.61-1.51.85s-.79.49-1,.61-.24.19-.26.25a.14.14,0,0,0,0,.09l.08.31c.09.36.07.33.06.27a3.15,3.15,0,0,0,.23.7,2.33,2.33,0,0,1,.14,1.22c0,.48-.28,1-.29,1.33s.66.6,1.4.68,1.35.09,1.4.31c.19.62-.37,1.33.11,1.38a3.58,3.58,0,0,0,1.38-.43c.65-.29,1.6-.79,3-1.56h0l.88-.48,5-2.76a48.16,48.16,0,0,0,5.13-3.3,29.62,29.62,0,0,0,8.34-9.71c1.43-2.74,1.65-4,1.56-4.5S168.82,31.36,168.22,31.35Z"/><path d="M63,59.53c0-.34-1.51-1.71-1-2s2.91.55,3.09.21-1.54-2.4-1.22-2.72,1.23-.49,1.05-.88c-.08-.19-.42-.47-1.11-.94S62,52.11,60.57,51.05a26.74,26.74,0,0,1-4.41-3.9,22.06,22.06,0,0,1-1.79-2.27c-.57-.8-1-1.55-1.71-2.71C50,38,47,34.7,44.65,31.21c-.23-.32-.43-.65-.64-1s-.52-.83-.77-1.24c-.76-1.31-1.21-2.2-1.51-2.8a6.68,6.68,0,0,0-.4-.71,1.21,1.21,0,0,0-.27-.35c-.36-.28-.66.14-1.15.51s-1.94-.35-2.69-.21c-.25.06-.4.77-.53,1.52s-.14,1.47-.36,1.49c-.65.06-1.32-.56-1.41-.07a4.16,4.16,0,0,0,.45,1.75,25.77,25.77,0,0,0,2.27,4.21h0c.25.38.49.77.75,1.14,2.85,4.15,6.06,7.76,8.24,11.34l1,1.64c.38.55.75,1.12,1.16,1.65a30,30,0,0,0,2.64,3.08,36.53,36.53,0,0,0,6.14,5c3.11,2,4.47,2.5,5,2.52S63,60.15,63,59.53Z"/><path d="M57.17,75.59c0-.35-1.88-2.13-1.32-2.31s3.54,1.19,3.74.87-2-2.9-1.6-3.17,1.47-.28,1.23-.73A5.86,5.86,0,0,0,57.82,69a48.7,48.7,0,0,1-3.77-3.1,15.67,15.67,0,0,1-3.93-5.81c-1-2.33-1.88-5.22-2.81-7.88a120.25,120.25,0,0,1-4.48-16.1c-.09-.51-.19-1-.26-1.52-.1-.65-.22-1.29-.29-1.94-.49-4.08-.54-5.73-.82-6.3s-.67-.06-1.24.24-1.77-1.21-2.53-1.24c-.26,0-.6.81-.93,1.63s-.59,1.64-.81,1.57c-.64-.2-1.08-1.13-1.31-.63s-.39,2.48.45,7.88h0c.08.58.2,1.13.3,1.7a129.2,129.2,0,0,0,5.09,18.12L42,60a43,43,0,0,0,1.88,4.64,22.12,22.12,0,0,0,3,4.61,28.54,28.54,0,0,0,3.77,3.7,33.6,33.6,0,0,0,4.26,3,6.67,6.67,0,0,0,1.88.87C57.38,76.89,57.12,76.25,57.17,75.59Z"/><path d="M93.45,140.07c-.3.11-.59.8-1.06.79s-1.06-.47-1.43-.36a3.52,3.52,0,0,0-.83.51,2.18,2.18,0,0,1-.8.38,10.31,10.31,0,0,0-1.26.23l-.15.07,0,0h0l.35-.06a10.27,10.27,0,0,1,1.21-.1,3.67,3.67,0,0,1,.4,0l.13,0h0l.48.16h0c-.19-.08-.22-.19-.11,0a.86.86,0,0,1,.09.42h0l0-.06h0s0,0,0,0l.07-.05a1.78,1.78,0,0,1,.58-.21,6.14,6.14,0,0,1,1.18-.09c.41,0,1.44.09,1.15,0l0-.21v-.06h0l-.23-.06a5.51,5.51,0,0,1-1.75-.65l-.06,0,0,0-.35-.3h0l.08.09s0,.06,0,0a.82.82,0,0,1,0-.49h0l.4-4.36h-.19a5.4,5.4,0,0,0-1.23.22,4.54,4.54,0,0,0-1.93,1.11s-.1.11-.08.1h0l1.72,2h0l0,0,.13.14a3.15,3.15,0,0,1,.22.29c.07.08.15.24.18.26a0,0,0,0,1,0,.07s0,0,0,0h.14a2,2,0,0,1,.44.06l.21.05.57.12,1.19.26.57.13.35.09s0,0,0,0a.64.64,0,0,0-.15-.13c-.22-.18-.64-.17-1.21-.28s-1.65-.66-2.38-.86a2.42,2.42,0,0,0-1,.06,1,1,0,0,0-.28.09.25.25,0,0,0-.15.15l-.07.14,0,.07,0,0s0,.2,0,.3a1.88,1.88,0,0,0,.85,1.33,1.84,1.84,0,0,0,1.31.26,2.55,2.55,0,0,0,.57-.18c.1-.05.06,0,.09,0h.1c.12,0,.2,0,.21.07a.89.89,0,0,1,0,.28c0,.05,0,.1,0,.15a2.45,2.45,0,0,1-1.48.46,2.57,2.57,0,0,1-.85-.15,2.38,2.38,0,0,1-.73-.39,2.83,2.83,0,0,1-1-1.73,2.21,2.21,0,0,1,0-.37l0,0,0-.08-.07-.16c-.09-.18-.14-.4-.23-.4s-.14-.08-.25.21a1,1,0,0,0-.07.23l0,.15V140a3.31,3.31,0,0,0,.12,1A3.62,3.62,0,0,0,88.62,143a3.47,3.47,0,0,0,1.1.46,3.76,3.76,0,0,0,1.46,0,4.63,4.63,0,0,0,.69-.2l.31-.14.19-.11.11-.06.22-.13.19-.14h0s.08-.05.07,0,0,0,0,.07a1.65,1.65,0,0,1-1.12.5h-.07l2.4-6.62a4.35,4.35,0,0,0-1.2-.76,4.61,4.61,0,0,0-2.14-.38,4.88,4.88,0,0,0-1.69.41,5.25,5.25,0,0,0-1.38.89,5.47,5.47,0,0,0-1,1.18,6.19,6.19,0,0,0-.74,1.93c-.06.26-.09.48-.12.66s-.06.41-.08.7a5.57,5.57,0,0,0,.39,2.55,4.58,4.58,0,0,0,1.41,1.85,4.47,4.47,0,0,0,2.46.93,4.53,4.53,0,0,0,2.18-.39,5.12,5.12,0,0,0,1.46-1,5,5,0,0,0,1-1.45c.07-.15.13-.3.19-.46l.11-.36a5.63,5.63,0,0,0,.14-.69,4.15,4.15,0,0,0-.21-2.14c-.13-.32-.26-.42-.41-.46S94,139.85,93.45,140.07Z"/><path d="M109.1,141c.23-.23.3-1,.76-1.12s1.18.2,1.49,0,.89-1.17,1.29-1.32c1.16-.55,1.46-.64,1.31-1.09l0-.06-3.27,1.47a.52.52,0,0,1,0,.25.48.48,0,0,1,.16-.19s-.26,0-.25,0a.55.55,0,0,1,.19.17l1.38-1.17a1.08,1.08,0,0,1,.45-.37c.26-.14.43-.12.27-.12h-.11a.72.72,0,0,1-.19,0,1.05,1.05,0,0,1-.48-.25l0,0a8.79,8.79,0,0,1-.82-.91c-.27-.36-.51-.78-.73-1.08a1.5,1.5,0,0,0-1-.41c-.4-.06-.83,0-1-.17-.46-.43-.5-1-.83-1-.16,0-.44.17-.76.63a5.07,5.07,0,0,0-.9,2.34h0a5.51,5.51,0,0,0-.06.7,6.72,6.72,0,0,0,.73,3.34,6.19,6.19,0,0,0,2.75,2.75l1.73.86,1.69-.89a4.83,4.83,0,1,0-4.61-8.48L106,136.12l.5,2.67a8.68,8.68,0,0,0,.3,1.14c.49,1.4,1,1.82,1.3,1.85S108.66,141.42,109.1,141Z"/><path d="M125.68,101.16a.41.41,0,0,0-.11.31.59.59,0,0,0,0,.18v.06l.07.17.06.2,0,.21a2.21,2.21,0,0,1,0,.35,1.82,1.82,0,0,1-.14.67,1.3,1.3,0,0,1-.16.31l-.09.12,0,0c-.06.06-.17.15-.13.09s0-.11,0-.17c0-.22-.12-.23-.23-.23a.92.92,0,0,1-.33-.06.78.78,0,0,1-.29-.23c0-.06-.12,0-.08-.17l0,0a1.17,1.17,0,0,0,0-.11.53.53,0,0,0,0-.25.28.28,0,0,0-.11-.16l-.15-.08c-.38-.15-.73-.3-.89-.2s-.33.61-.41,1.07c0,0,0,.12-.07.12h0l.35-.22.4-.24a.65.65,0,0,0,.14-.09.88.88,0,0,1,.22-.1c.09,0,0,0,.09,0s0,0,0,0h0l-1.18-.87h0v0l0,0c.07-.11,0,0-.08,0a3.3,3.3,0,0,0-.3.22c-.33.29-.47.38-.57.32a1.17,1.17,0,0,1-.21-1.24,2.32,2.32,0,0,0,0-.3s0-.1,0-.09l-.1,0c-.16.06.07-.32-.23-.06a3.43,3.43,0,0,0-.84,1.15,5.36,5.36,0,0,0-.42,1.29l-.05.29,0,.06s0,0,0,0l.78.18a3.61,3.61,0,0,1,.9.35c.07,0-.11-.08-.22-.21a2.45,2.45,0,0,1-.36-.63c0-.1-.06-.19-.08-.24v-.15a1,1,0,0,1,0-.29v-.09h0a.8.8,0,0,1-.14-.09l0,0h0l-.14.07-.07,0,.14,0,.1,0v0A.57.57,0,0,1,121,102c.05-.08.09-.15.12-.16l1-.63.47-.28.49-.26c.22-.11.33-.15.33-.16-.06-.26-.11-.38-.14-.57s0-.38-.06-.46a1.84,1.84,0,0,1,0-.33v-.25c.06-.56.08-.41.06-.43s0,0,0,0l0-.09a2.6,2.6,0,0,1,.34-.57c.28-.35.71-.63,1-.91s.08-.75-.35-1.27-1-.82-1-1a1.76,1.76,0,0,1,.57-.74c.22-.19.38-.31.14-.48a3.18,3.18,0,0,0-1.94-.21,8.74,8.74,0,0,0-3.22,1.2h0l-.64.39-.75.46-.2.11-.37.25a7.38,7.38,0,0,0-.71.54,8.25,8.25,0,0,0-2.8,6,7.66,7.66,0,0,0,.81,3.53,7.93,7.93,0,0,0,5.42,4.12,7.28,7.28,0,0,0,3.77-.21,6.64,6.64,0,0,0,1.91-1,5.86,5.86,0,0,0,1.63-2,6.29,6.29,0,0,0,.65-2.39c0-.17,0-.11,0-.14s0,0,0,0,0,0,0,.1l-.11.25-.11.21a2.29,2.29,0,0,1-.17.27c-.07.1-.18.23-.23.29l-.09.09.24-.29,0-.06.13-.2a2.55,2.55,0,0,0,.23-.43,3.51,3.51,0,0,0,.29-.92,3.85,3.85,0,0,0,0-1,3.7,3.7,0,0,0-.08-.48,2.49,2.49,0,0,0-.1-.35c-.06-.17-.13-.33-.2-.48l-.13-.23,0,0-.14-.18s0,0-.07-.07a.47.47,0,0,0-.29-.13C126.33,100.37,126.09,100.74,125.68,101.16Z"/><path d="M88.54,102.23c-.09.15,0,.71-.05,1.18s-.24.82-.48.75-.56-.5-1-.74-.78-.3-.9-.16-.24.63-.47.9a1.32,1.32,0,0,1-.74.48l-.21,0-.1,0s0,0,0,0l.07,0s.07,0,0,0a1.28,1.28,0,0,1-.45.09,1.23,1.23,0,0,1-.27,0,1.3,1.3,0,0,1,.36.22,2.11,2.11,0,0,1,.15.15l.05.07,0,0v0h0l-.18-.34a1,1,0,0,1-.07-.24,1.53,1.53,0,0,1,.06-.76s0,0,0,0,0,0,0,0a.85.85,0,0,1-.21.24,1,1,0,0,1-.16.12h0l.51-.31h0s0,0,0,0a2.53,2.53,0,0,1,.24-1.29,6.27,6.27,0,0,1,1.16-1.87l.26-.25a2,2,0,0,1,.3-.24l.24-.16s0,0,0,0-.05-.21-.06-.3l0-.17v-.13h0l0-.24a5.17,5.17,0,0,0,.05-.74,3.23,3.23,0,0,1,.24-1.2c.16-.43.44-.85.53-1.21s-.24-.7-.71-1-1-.59-1-.8c0-.66.75-1.11.34-1.33a2.76,2.76,0,0,0-1.66.06A8.28,8.28,0,0,0,81,94.9h0a9.66,9.66,0,0,0-.72.71,13.73,13.73,0,0,0-2.78,4.54,10.94,10.94,0,0,0-.64,2.89,8.2,8.2,0,0,0,.44,3.43,7.51,7.51,0,0,0,.85,1.7,6.69,6.69,0,0,0,1.34,1.5A7.43,7.43,0,0,0,83,111.33a6.78,6.78,0,0,0,4.18-.5,6.39,6.39,0,0,0,3.15-3.24,6.25,6.25,0,0,0,.3-4.49,3.52,3.52,0,0,0-1.16-1.77C88.84,101,88.9,101.72,88.54,102.23Z"/><path d="M154.52,94.69c.26.25,2.62-.2,2.48.34s-2.83,2.08-2.7,2.43c.18.5,3.37.2,3.39.63,0,.66-.61,1.35-.11,1.42s2.18-.44,6.75-2.41q6.6-2.88,12.94-6.29l4.19-2.25L178.34,85a37.41,37.41,0,0,0-7.72-6.84,27.36,27.36,0,0,0-4.78-2.48,23.32,23.32,0,0,0-5.37-1.4c-.62-.08-1.24-.13-1.86-.16a21.19,21.19,0,0,0-2.39,0,16.65,16.65,0,0,0-5.49,1.28,6.64,6.64,0,0,0-2,1.25c-.5.6.28.6.84,1,.32.21.21.74.13,1.32a2.42,2.42,0,0,0,.05,1.49c.15.22.94.1,1.7.11s1.45.08,1.47.3c0,.65-.38,1.29,0,1.38A4.61,4.61,0,0,0,154.3,82a15.4,15.4,0,0,1,4-.35h0c.41,0,.81.06,1.22.11a17,17,0,0,1,7,2.72A30.14,30.14,0,0,1,172.63,90l1.06-5.82q-6.9,3.72-14.14,6.77c-3.74,1.57-5.25,2.24-5.69,2.7S154.05,94.25,154.52,94.69Z"/><path d="M19.63,85.12c.18,0,.54-.34.95-.59s.78-.45.91-.23,0,.84-.06,1.45-.09,1.14.08,1.21.78-.19,1.28-.45,1-.45,1.17-.31c.47.44.58,1,.93.94s.72-.89,2.56-2.73a15.08,15.08,0,0,1,7.68-4,12.73,12.73,0,0,1,4.26-.1,33.56,33.56,0,0,1,4.79,1.23l1,.3,1.38.39a16,16,0,0,0,3.53.62,3.54,3.54,0,0,0,1.6-.16c.5-.25,0-.67-.14-1.25s.94-1.75.89-2.5c0-.27-.5-.6-.93-1s-.83-.73-.76-.94c.21-.6.69-1,.48-1.23s-.36-.24-.93-.4-1.47-.37-3-.81h0l-1-.3a36,36,0,0,0-6.3-1.51,20.61,20.61,0,0,0-7.1.36,22.43,22.43,0,0,0-11.92,7,14.32,14.32,0,0,0-2.14,3.07,3.18,3.18,0,0,0-.49,1.49C18.45,85.26,19,85.05,19.63,85.12Z"/><path d="M51.16,100.79c-.22-.24-2-.29-1.81-.8.08-.23.58-.59,1-.94s.83-.72.76-.89-.65-.43-1.15-.62-1-.43-1-.64c0-.64.27-1.14,0-1.33a1.69,1.69,0,0,0-.91-.08,21.18,21.18,0,0,1-2.53.06,21.3,21.3,0,0,1-8.4-2.4,32.37,32.37,0,0,1-7.59-5.28L29,87.26l-.78-.8C26.58,84.73,26,84,25.53,83.9s-.56.37-.92.86-1.84.46-2.46.89c-.45.3.09,2.44-.27,2.62-.58.29-1.26.08-1.27.47s.61,1.46,3,3.9h0l.78.75a39.62,39.62,0,0,0,10,6.83,27.23,27.23,0,0,0,12.34,2.9c3.26-.15,4.58-.84,4.93-1.2S51.53,101.28,51.16,100.79Z"/></g></svg>