<svg xmlns="http://www.w3.org/2000/svg" viewBox="0 0 275 35"><defs><style>.cls-1{fill:#f3f3f3;}</style></defs><title>swash-07</title><g id="Layer_2" data-name="Layer 2"><g id="Layer_2-2" data-name="Layer 2"><path class="cls-1" d="M272.92,20.36c-1.07-.8-2.21-1.44-2-2.31a4.65,4.65,0,0,1,.28-.7c.34-.23.62-.42.84-.59a3.24,3.24,0,0,0,.89-.87c.23-.43-.05-.7-.54-1a6.68,6.68,0,0,1-1.72-1.08c-.17-.17,0-.63.4-1.19a17.54,17.54,0,0,1,1.44-1.88c.54-.62,1.13-1.2,1.61-1.66S275,8.27,275,8a2.48,2.48,0,0,0-.63-1.37,7.36,7.36,0,0,0-1.45-1.3c-1.07-.81-2.68-1.42-2.42-2.29s1.2-.53,1.44-1.07.11-.92-1-.93c-.54,0-1.29-.88-2.25-.6C267.9.64,267.06-.1,266,0H8.43a2.17,2.17,0,0,0-.58,0c-1.14.42-1.43,1-2.15,1.42s-1.3.73-1.76,1l-1,.71A3.23,3.23,0,0,0,2,4.05c-.23.43.05.7.54,1A7,7,0,0,1,4.29,6.11c.17.18,0,.63-.4,1.2A17.49,17.49,0,0,1,2.45,9.18c-.54.63-1.13,1.2-1.61,1.66S0,11.67,0,12a2.43,2.43,0,0,0,.63,1.36,7.73,7.73,0,0,0,1.45,1.31c1.07.8,2.21,1.44,2,2.31a4.65,4.65,0,0,1-.28.7c-.34.23-.62.42-.84.59a3.24,3.24,0,0,0-.89.87c-.23.43.05.7.54,1a6.68,6.68,0,0,1,1.72,1.08c.17.17,0,.63-.4,1.19a17.54,17.54,0,0,1-1.44,1.88c-.54.62-1.13,1.2-1.61,1.66S0,26.73,0,27A2.48,2.48,0,0,0,.63,28.4a7.36,7.36,0,0,0,1.45,1.3c1.07.81,2.68,1.42,2.42,2.29s-1.2.53-1.44,1.07S3,34,4,34c.54,0,1.29.88,2.25.6A3.31,3.31,0,0,1,8,34.88V35H266v0c.19-.06,1,.06,1.16,0,1.14-.42,1.43-1,2.15-1.42s1.3-.73,1.76-1l1-.71A3.23,3.23,0,0,0,273,31c.23-.43-.05-.7-.54-1a7,7,0,0,1-1.72-1.08c-.17-.18,0-.63.4-1.2a17.49,17.49,0,0,1,1.44-1.87c.54-.63,1.13-1.2,1.61-1.66s.85-.83.84-1.13a2.43,2.43,0,0,0-.63-1.36A7.73,7.73,0,0,0,272.92,20.36Z"/></g></g></svg>