<svg viewBox="0 0 134 46" version="1.1" xmlns="http://www.w3.org/2000/svg" xmlns:xlink="http://www.w3.org/1999/xlink">
    <g id="New-design" stroke="none" stroke-width="1" fill="none" fill-rule="evenodd">
        <g id="Mobile-Copy-2" transform="translate(-96.000000, -23.000000)">
            <g id="Group-5" transform="translate(89.000000, 21.000000)">
                <path d="M140.810493,13.1981165 C140.765713,12.6757902 140.117249,6.11697149 139.478356,6.2964357 C130.987477,8.68416431 122.624787,11.5203825 114.437117,14.799621 C108.699048,17.0977884 103.049514,19.6154149 97.4997971,22.3364342 C97.564746,21.8992252 97.5562001,21.430909 97.5681644,21.1078735 C97.6290113,19.4742364 97.5367154,17.7917167 97.3975879,16.1659418 C97.3545165,15.6617329 96.6096546,9.06941415 96.0654507,9.26426101 C82.6651144,14.0615958 69.2647781,18.8589305 55.8644418,23.6562653 C58.0737317,21.165302 60.4296695,18.8038948 62.9226838,16.5894774 C63.3496377,16.2100387 63.2894745,14.8967026 63.3038316,14.5059833 C63.3646785,12.8720044 63.2723827,11.1894847 63.133597,9.56370986 C62.993444,7.92597074 62.8488471,6.26806327 62.5111126,4.65801291 C62.4444544,4.33942121 62.2342249,2.64972292 61.8014598,2.66237088 C57.7493288,2.78064634 53.7676162,3.56926336 49.8416229,4.53392623 C46.2502877,5.41654831 42.6914269,6.42941014 39.1729028,7.56772599 C32.0691966,9.86520974 25.1305974,12.6751065 18.4302583,15.9687021 C14.6744997,17.8149616 10.9959961,19.814022 7.40055881,21.9552864 C6.9725794,22.2099546 7.02693141,23.8213723 7.01906917,24.0387804 C6.95822226,25.6724175 7.05051814,27.355279 7.1893038,28.9810539 C7.3294568,30.618793 7.47405368,32.2767005 7.81178823,33.8867508 C7.85383413,34.0870671 8.26472172,36.0355357 8.521441,35.8823929 C20.6361299,28.6689571 33.7206092,23.104541 47.3260474,19.4051854 C46.6645936,20.4088176 46.0219408,21.4250978 45.4028747,22.4564188 C44.1565385,24.5327343 43.0042074,26.6637436 41.9414374,28.8395335 C41.8388864,29.2562323 41.7848762,29.6787424 41.7794068,30.1070636 C41.7281314,30.7623644 41.7141161,31.4190325 41.7380446,32.0770679 C41.7664171,33.5630316 41.8624731,35.045235 42.0039935,36.5247038 C42.0535598,37.0442954 42.7310799,42.6866503 43.247595,42.5017167 C55.0334371,38.2824276 66.8189373,34.0631385 78.6044375,29.8438494 C78.0140857,31.072752 77.5266268,32.3484862 77.1629126,33.6686591 C76.8894434,34.6613526 76.940377,35.9066633 76.9595199,36.9058516 C76.9882341,38.3918153 77.0842902,39.8743606 77.2254687,41.3534875 C77.3522901,42.6804972 77.4856064,44.0293844 77.7594175,45.3348583 C77.8011215,45.5338072 78.2171367,47.4846687 78.4694121,47.3308422 C85.9949447,42.7307472 93.7621558,38.5295754 101.735152,34.7577505 C109.744726,30.9688337 117.958034,27.6099473 126.327903,24.7019434 C131.038753,23.0652298 135.798827,21.5737967 140.59958,20.223884 C141.010126,20.1083433 140.980044,18.1629512 140.98107,18.14039 C141.041575,16.5064111 140.949621,14.8238914 140.810493,13.1981165" id="Fill-1" fill="#00E1FF"></path>
                <text id="Go-Frank!" font-family="LydianBT-BoldItalic, Lydian" font-size="32" font-style="italic" font-weight="bold" line-spacing="39" letter-spacing="0.3428572" fill="#000000">
                    <tspan x="11.3555801" y="31">Go Frank!</tspan>
                </text>
            </g>
        </g>
    </g>
</svg>