<?xml version="1.0" encoding="utf-8"?>
<!-- Generator: Adobe Illustrator 22.1.0, SVG Export Plug-In . SVG Version: 6.00 Build 0)  -->
<svg version="1.1" id="Layer_1" xmlns="http://www.w3.org/2000/svg" xmlns:xlink="http://www.w3.org/1999/xlink" x="0px" y="0px"
	 viewBox="0 0 134 46" style="enable-background:new 0 0 134 46;" xml:space="preserve">
<style type="text/css">
	.st0{fill:#FFFFFF;}
	.st1{enable-background:new    ;}
</style>
<g id="New-design">
	<g id="Mobile-Copy-2" transform="translate(-96.000000, -23.000000)">
		<g id="Group-5" transform="translate(89.000000, 21.000000)">
			<path id="Fill-1" class="st0" d="M140.8,13.2c0-0.5-0.7-7.1-1.3-6.9c-8.5,2.4-16.9,5.2-25,8.5c-5.7,2.3-11.4,4.8-16.9,7.5
				c0.1-0.4,0.1-0.9,0.1-1.2c0.1-1.6,0-3.3-0.2-4.9c0-0.5-0.8-7.1-1.3-6.9c-13.4,4.8-26.8,9.6-40.2,14.4c2.2-2.5,4.6-4.9,7.1-7.1
				c0.4-0.4,0.4-1.7,0.4-2.1c0.1-1.6,0-3.3-0.2-4.9c-0.1-1.6-0.3-3.3-0.6-4.9c-0.1-0.3-0.3-2-0.7-2c-4.1,0.1-8,0.9-12,1.9
				c-3.6,0.9-7.2,1.9-10.7,3c-7.1,2.3-14,5.1-20.7,8.4c-3.8,1.8-7.4,3.8-11,6C7,22.2,7,23.8,7,24c-0.1,1.6,0,3.3,0.2,4.9
				c0.1,1.6,0.3,3.3,0.6,4.9c0,0.2,0.5,2.1,0.7,2c12.1-7.2,25.2-12.8,38.8-16.5c-0.7,1-1.3,2-1.9,3.1c-1.2,2.1-2.4,4.2-3.5,6.4
				c-0.1,0.4-0.2,0.8-0.2,1.3c-0.1,0.7-0.1,1.3,0,2c0,1.5,0.1,3,0.3,4.4c0,0.5,0.7,6.2,1.2,6c11.8-4.2,23.6-8.4,35.4-12.7
				c-0.6,1.2-1.1,2.5-1.4,3.8c-0.3,1-0.2,2.2-0.2,3.2c0,1.5,0.1,3,0.3,4.4c0.1,1.3,0.3,2.7,0.5,4c0,0.2,0.5,2.1,0.7,2
				c7.5-4.6,15.3-8.8,23.3-12.6c8-3.8,16.2-7.1,24.6-10.1c4.7-1.6,9.5-3.1,14.3-4.5c0.4-0.1,0.4-2.1,0.4-2.1
				C141,16.5,140.9,14.8,140.8,13.2"/>
			<g class="st1">
				<path d="M24.4,22l2.9-2.7H33c-0.2,1.7-0.3,3.4-0.5,5c-0.1,1.6-0.2,3.2-0.3,4.7c-2.1,1.4-3.7,2.3-4.9,2.9
					c-1.2,0.5-2.3,0.8-3.3,0.8c-3.1,0-5.4-0.9-7.1-2.6c-1.7-1.7-2.5-4.2-2.5-7.4c0-2.4,0.4-4.5,1.2-6.4c0.8-1.9,2-3.4,3.6-4.5
					c1.3-1,2.7-1.7,4.1-2.1c1.4-0.5,2.9-0.7,4.5-0.7c1.4,0,2.7,0.3,3.9,0.8c1.2,0.5,2.1,1.3,2.9,2.3l-3,2.8c-0.9-1-1.9-1.8-3.1-2.3
					c-1.2-0.5-2.4-0.8-3.8-0.8c-1,0-2,0.1-2.8,0.4c-0.9,0.2-1.5,0.5-1.7,0.9c-0.1,0.1-0.2,0.4-0.4,0.7c-0.2,0.4-0.3,0.8-0.5,1.3
					c-0.4,1-0.6,2-0.8,3c-0.2,1-0.3,1.9-0.3,2.8c0,2.5,0.7,4.5,2.1,6.1c1.4,1.6,3.3,2.3,5.6,2.3c0.5,0,0.9,0,1.4-0.1
					c0.4-0.1,0.9-0.2,1.2-0.4c0.1-1.2,0.2-2.4,0.3-3.5c0.1-1.1,0.2-2.1,0.2-3.1H24.4z"/>
				<path d="M48,29.1c-0.5,0.5-1.1,0.9-1.9,1.5c-0.8,0.5-1.7,1-2.7,1.6c-0.3,0.2-0.6,0.3-1,0.4c-0.4,0.1-0.8,0.1-1.4,0.1
					c-1.8,0-3.2-0.5-4.2-1.5s-1.5-2.5-1.5-4.4c0-2.4,0.5-4.3,1.6-5.8c1.1-1.5,2.9-2.8,5.5-4c0.2-0.1,0.5-0.1,0.8-0.2
					c0.3,0,0.6-0.1,1-0.1c1.7,0,3.1,0.6,4.1,1.7c1,1.1,1.4,2.7,1.4,4.6c0,1.2-0.2,2.3-0.5,3.3C49.1,27.3,48.6,28.2,48,29.1z
					 M45.7,29.3c0.3-0.6,0.5-1.2,0.6-1.8c0.1-0.6,0.2-1.3,0.2-2c0-1.9-0.4-3.4-1.3-4.5c-0.9-1.1-2.1-1.6-3.6-1.6
					c-0.2,0-0.5,0-0.7,0.1c-0.2,0-0.5,0.1-0.7,0.2c-0.4,0.7-0.8,1.4-1,2.2c-0.2,0.8-0.3,1.6-0.3,2.4c0,1.7,0.4,3.1,1.2,4.1
					c0.8,1,1.9,1.5,3.4,1.5c0.4,0,0.8,0,1.2-0.1C45,29.6,45.4,29.5,45.7,29.3z"/>
				<path d="M57.9,32.2c0.3-2.4,0.6-5.6,0.9-9.5c0.3-3.9,0.7-8.3,1-13.2c0.6,0,1.6,0,3,0c3.8,0,6.8-0.1,9.1-0.1L70.5,12
					c-0.8,0-1.6,0-2.5,0c-0.9,0-2.3,0-4.1,0c-0.2,1.1-0.3,2.2-0.4,3.5s-0.2,2.5-0.3,3.8l7.8-0.1l-1.4,2.6H63
					c-0.2,2.1-0.3,3.9-0.5,5.7c-0.1,1.7-0.2,3.2-0.3,4.6L57.9,32.2z"/>
				<path d="M71.6,32.2c0.2-1.6,0.4-3.6,0.6-6c0.2-2.4,0.4-5.4,0.7-8.9l4-0.1c-0.1,0.8-0.2,1.5-0.3,2.3c-0.1,0.8-0.2,1.8-0.3,3.1
					c0.1-0.3,0.3-0.7,0.6-1.2c1.4-3.1,2.5-4.6,3.1-4.6c0.3,0,0.7,0.1,1.1,0.4s1,0.6,1.5,1l-2.2,4.2c-0.4-0.3-0.7-0.5-1.1-0.6
					c-0.4-0.2-0.7-0.2-0.9-0.2c-0.6,0-1.2,1-1.8,3.1c-0.6,2.1-1,4.6-1,7.5L71.6,32.2z"/>
				<path d="M90.9,32.2c0-0.1,0-0.3,0.1-0.6c0.2-1.5,0.3-2.7,0.5-3.6c-1.2,1.4-2.3,2.6-3.3,3.4s-1.8,1.2-2.3,1.2
					c-0.7,0-1.4-0.6-2-1.7s-0.9-2.5-0.9-4.1c0-1.4,0.2-2.7,0.7-4s1.1-2.4,1.8-3c0.1-0.1,0.5-0.4,1-0.7c0.6-0.4,1.2-0.7,2-1.1
					c0.7-0.4,1.3-0.7,1.9-0.9s1.1-0.3,1.5-0.3c1.1,0,2,0.2,2.9,0.6c0.9,0.4,1.6,1.1,2.2,1.9l-1,0.5c-0.2,2.4-0.4,4.7-0.6,6.8
					S95,30.5,94.8,32L90.9,32.2z M92,20c-0.4-0.3-0.9-0.5-1.3-0.6c-0.4-0.1-0.9-0.2-1.3-0.2c-0.3,0-0.6,0-0.9,0.1s-0.4,0.2-0.5,0.3
					c-0.4,0.6-0.7,1.3-1,2.4c-0.2,1-0.4,2.2-0.4,3.4c0,1.2,0.2,2.1,0.5,2.8c0.3,0.7,0.8,1.1,1.3,1.1c0.3,0,0.8-0.5,1.5-1.5
					c0.6-1,1.2-2.2,1.6-3.6c0.2-0.6,0.4-1.8,0.5-3.7C92,20.3,92,20.2,92,20z"/>
				<path d="M98.2,32.2c0.2-1.8,0.4-4,0.6-6.5c0.2-2.5,0.4-5.3,0.7-8.4l4-0.1l-0.5,4.1c1.2-1.4,2.4-2.6,3.6-3.4
					c1.2-0.8,2.2-1.2,3-1.2c0.8,0,1.3,0.2,1.7,0.7c0.4,0.5,0.6,1.2,0.6,2.1c0,0.5-0.1,2.2-0.4,5c-0.2,2.8-0.4,5.3-0.6,7.5l-4,0.2
					c0.3-2.4,0.5-4.4,0.6-6.2c0.2-1.8,0.2-3,0.2-3.7c0-0.8-0.1-1.4-0.4-1.8c-0.2-0.4-0.6-0.6-1.1-0.6c-0.8,0-1.7,1.2-2.6,3.6
					c-0.9,2.4-1.4,5.3-1.5,8.6L98.2,32.2z"/>
				<path d="M113.9,32.2c0.3-2.5,0.6-5.7,0.9-9.5c0.3-3.9,0.7-8.2,1-13.1l4.3-0.1c-0.3,2.5-0.5,4.8-0.7,7c-0.2,2.1-0.3,3.7-0.4,4.8
					c1.2-1.5,2.3-2.6,3.2-3.4s1.5-1.1,2-1.1c0.7,0,1.3,0.4,1.9,1.1c0.6,0.7,0.9,1.6,0.9,2.5c0,1-0.3,1.9-0.9,2.7
					c-0.6,0.9-1.5,1.8-2.8,2.7l1.6,1.9c0.6,0.7,1.4,1.6,2.4,2.8c0,0.1,0.1,0.1,0.1,0.1l-3.6,2.2c-0.6-0.8-1.3-1.7-2.2-2.8
					c-0.1-0.2-0.2-0.3-0.3-0.4l-2.8-3.5c-0.1,0.9-0.2,1.9-0.2,2.9c-0.1,1-0.1,2.1-0.2,3.2L113.9,32.2z M118.6,25.4l1.9-1.3
					c0.4,0.2,0.7,0.3,1,0.4c0.3,0.1,0.6,0.1,0.8,0.1c0.1,0,0.1,0,0.2,0c0.1,0,0.2,0,0.4,0c0.1-0.3,0.3-0.6,0.3-0.9
					c0.1-0.3,0.1-0.6,0.1-0.9c0-0.7-0.2-1.4-0.5-1.8s-0.7-0.7-1.2-0.7h-0.1c-0.9,0.8-1.6,1.7-2.1,2.6
					C118.9,23.7,118.6,24.5,118.6,25.4L118.6,25.4z"/>
				<path d="M133.1,27.5c0.4,0.5,0.8,1,1.2,1.4s0.8,0.9,1.2,1.3c-0.4,0.4-0.9,0.7-1.3,1.1s-0.9,0.8-1.4,1.3c-0.4-0.5-0.8-1-1.2-1.5
					c-0.4-0.4-0.8-0.9-1.1-1.2c0.5-0.3,0.9-0.7,1.4-1.1S132.7,28,133.1,27.5z M132.4,26.4c0.1-3,0.2-5.4,0.3-7.1
					c0.1-1.8,0.1-3.3,0.1-4.8c0-0.8,0-1.6,0-2.3c0-0.8-0.1-1.6-0.1-2.4l3.6-0.4c-0.4,2.6-0.7,5.3-1.1,8c-0.3,2.7-0.7,5.5-1,8.5
					L132.4,26.4z"/>
			</g>
		</g>
	</g>
</g>
</svg>
