<svg xmlns="http://www.w3.org/2000/svg" xmlns:xlink="http://www.w3.org/1999/xlink" viewBox="0 0 120 36.35"><defs><style>.cls-1,.cls-2,.cls-3{fill:#59ecff;}.cls-1{clip-rule:evenodd;}.cls-3{fill-rule:evenodd;}.cls-4{clip-path:url(#clip-path);}.cls-5{clip-path:url(#clip-path-2);}</style><clipPath id="clip-path"><path class="cls-1" d="M15.63,26a15.9,15.9,0,0,1,2.44-3.15l-.93.85a6.35,6.35,0,0,1,2.19-1.34l-1.22.33c.52-.13,1.67,0,.36-.26.6.19.48.12-.35-.23.61.42.46.3-.46-.38,0,.19,1.18,1.09,1.36,1.26l1,.95c2.57,2.32,5.41,4.22,8.94,4.51a6.6,6.6,0,0,0,6.35-3.4,22.8,22.8,0,0,0,1.47-3.75c.08-.25.17-.51.26-.76-.32.67-.35.74-.06.22a11,11,0,0,1,1-1.19l-.93.85a3.67,3.67,0,0,1,1.24-.68l-1.22.32c.56,0,.46-.11-.31-.2a4.94,4.94,0,0,1-1.46-.92c-1.76-1.58-.42-.44,0,.15.68.94,1.28,1.93,2,2.83,2.13,2.67,4.89,5.35,8.34,6.14,2.81.64,5.89.11,7.5-2.56A15.29,15.29,0,0,0,54.58,22c.07-.24.14-.48.22-.71.21-.55.15-.47-.16.24-.09-.24.7-1,.85-1.18l-.93.85a5.15,5.15,0,0,1,1.89-1.07l-1.22.32a8.92,8.92,0,0,1,1.86-.22c1,0-.54-.22-.06,0,.07,0,.94.24.93.32-.75-.38-.92-.45-.52-.22.18.11.36.22.53.34-.24-.05-1.18-1-.45-.35.11.1.9.73.9.88,0-.08-1.23-1.47-.52-.56,2.6,3.32,5.36,7.28,9.68,8.41a7,7,0,0,0,5.5-.47,6.82,6.82,0,0,0,2.66-3.34,27.31,27.31,0,0,0,1.13-3.3c.07-.24.6-1.75.23-.81s-.08.14.09,0,.29-.37.47-.54l-.93.85a2.81,2.81,0,0,1,.85-.46l-1.22.33a1.62,1.62,0,0,1,.49-.08c.38,0,.3-.05-.25-.07-.22-.1-.9-.5-.33-.14q-1.44-1.18-.81-.63c.12.1.23.21.34.32-.1,0-1.47-1.74-.63-.66s-.5-.71-.55-.9a4.27,4.27,0,0,0,.42.71c.31.53.6,1.08.9,1.62,1.82,3.3,4.16,6.81,7.57,8.65S91.23,31.91,94,28.74a11.61,11.61,0,0,0,2.12-4.57c.12-.41.23-.82.35-1.22.07-.2.57-1.11.16-.48s.28-.37.3-.4a5.25,5.25,0,0,1,.78-.85l-.93.85a3.6,3.6,0,0,1,1.31-.66l-1.22.33c.46,0,.5-.06.1-.12s-.36-.09.13.05l-.67-.33.36.22c.47.33.46.32,0,0s-.48-.37,0,0c.27.27.56.52.83.79,1.14,1.13,2.2,2.36,3.43,3.4a18.34,18.34,0,0,0,5.9,3.59,9.36,9.36,0,0,0,6.33-.07c1.29-.42,1.68-2.64,1.7-3.69a12.06,12.06,0,0,0-1.63-5.8c-1.6-2.76-4.47-6.24-8-5.07l-.4.14,1.21-.33a10.37,10.37,0,0,1-1.66.16c.91-.07.35.06-.1-.08-.18-.06-1-.46-.29-.06,1,.52-1.57-1.17-.43-.25,1,.77-.21-.22-.31-.32s-.45-.42-.66-.64c-2.4-2.4-4.72-5-8-6.28A6.23,6.23,0,0,0,86.83,9.7a18.12,18.12,0,0,0-1.63,4.13c-.07.27-.15.54-.23.8s-.56,1.16-.17.53-.15.16-.22.26a5.42,5.42,0,0,1-.63.72l.94-.85A5.44,5.44,0,0,1,83,16.36L84.16,16c-.37.09-.72.11-1.1.18-.89.14.56.26.08.08-1.1-.41.11,0,.33.27l-.4-.24c-.47-.32-.19-.1.83.66l-.23-.21c-.54-.56-.3-.29.73.82-.13-.22-.32-.43-.47-.64-.59-.77,1.21,2,.59.89L84,17c-1.94-3.52-4.09-7.1-7.54-9.36C73.4,5.6,68.9,5,67,8.86a23.91,23.91,0,0,0-1.45,4l-.22.7c-.26.87,0-.08.19-.32-.37.38-.55.94-1,1.33l.93-.85a3.7,3.7,0,0,1-1.22.66l1.22-.33c-.3.07-.63,0-.93.12-.49.11.71.26.23.05-.85-.38-.31-.1.18.17-.76-.41.19.18.4.36-1.16-1,.82,1.09.28.37-.23-.3-.48-.59-.71-.89-.41-.53-.8-1.07-1.21-1.59-2.43-3-5.49-6.08-9.3-7.2a8.55,8.55,0,0,0-8.76,2,9.61,9.61,0,0,0-2,4,7.91,7.91,0,0,1-.49,1.59s.64-1,.11-.29a7.51,7.51,0,0,1-.66.83l.93-.85a3.85,3.85,0,0,1-1.28.72l1.22-.33c-.26.06-1.24.34-1.47.12.74.13.81.12.24,0s-.51-.16.35.22A7.74,7.74,0,0,1,42,13c.92.76,1.1.87.53.33,1.75,1.73.37.38,0-.15-1.94-2.68-3.74-5.46-6.67-7.2a6.05,6.05,0,0,0-8.63,2,17.69,17.69,0,0,0-1.57,3.85c-.09.26-.17.52-.26.77-.22.56-.2.51.08-.16.07.29-.79,1-1,1.22l.94-.84a4.75,4.75,0,0,1-1.38.71l1.22-.33c-.28.06-1.33.35-1.57.14l.57.09a7.1,7.1,0,0,1-.79-.22c-1.23-.29,1,.58-.05-.06-.63-.44-.52-.33.33.31l-.7-.61C20.94,11,19.05,9,16.42,7.92,11.82,6.06,8.05,9.47,5.8,13.17c-1.92,3.16,0,7.88,2.07,10.5,1.39,1.71,5.76,5.65,7.76,2.36"/></clipPath><clipPath id="clip-path-2"><rect class="cls-2" x="5" y="5" width="110" height="27"/></clipPath></defs><title>dash-02</title><g id="Layer_2" data-name="Layer 2"><g id="Layer_1-2" data-name="Layer 1"><path class="cls-3" d="M15.63,26a15.9,15.9,0,0,1,2.44-3.15l-.93.85a6.35,6.35,0,0,1,2.19-1.34l-1.22.33c.52-.13,1.67,0,.36-.26.6.19.48.12-.35-.23.61.42.46.3-.46-.38,0,.19,1.18,1.09,1.36,1.26l1,.95c2.57,2.32,5.41,4.22,8.94,4.51a6.6,6.6,0,0,0,6.35-3.4,22.8,22.8,0,0,0,1.47-3.75c.08-.25.17-.51.26-.76-.32.67-.35.74-.06.22a11,11,0,0,1,1-1.19l-.93.85a3.67,3.67,0,0,1,1.24-.68l-1.22.32c.56,0,.46-.11-.31-.2a4.94,4.94,0,0,1-1.46-.92c-1.76-1.58-.42-.44,0,.15.68.94,1.28,1.93,2,2.83,2.13,2.67,4.89,5.35,8.34,6.14,2.81.64,5.89.11,7.5-2.56A15.29,15.29,0,0,0,54.58,22c.07-.24.14-.48.22-.71.21-.55.15-.47-.16.24-.09-.24.7-1,.85-1.18l-.93.85a5.15,5.15,0,0,1,1.89-1.07l-1.22.32a8.92,8.92,0,0,1,1.86-.22c1,0-.54-.22-.06,0,.07,0,.94.24.93.32-.75-.38-.92-.45-.52-.22.18.11.36.22.53.34-.24-.05-1.18-1-.45-.35.11.1.9.73.9.88,0-.08-1.23-1.47-.52-.56,2.6,3.32,5.36,7.28,9.68,8.41a7,7,0,0,0,5.5-.47,6.82,6.82,0,0,0,2.66-3.34,27.31,27.31,0,0,0,1.13-3.3c.07-.24.6-1.75.23-.81s-.08.14.09,0,.29-.37.47-.54l-.93.85a2.81,2.81,0,0,1,.85-.46l-1.22.33a1.62,1.62,0,0,1,.49-.08c.38,0,.3-.05-.25-.07-.22-.1-.9-.5-.33-.14q-1.44-1.18-.81-.63c.12.1.23.21.34.32-.1,0-1.47-1.74-.63-.66s-.5-.71-.55-.9a4.27,4.27,0,0,0,.42.71c.31.53.6,1.08.9,1.62,1.82,3.3,4.16,6.81,7.57,8.65S91.23,31.91,94,28.74a11.61,11.61,0,0,0,2.12-4.57c.12-.41.23-.82.35-1.22.07-.2.57-1.11.16-.48s.28-.37.3-.4a5.25,5.25,0,0,1,.78-.85l-.93.85a3.6,3.6,0,0,1,1.31-.66l-1.22.33c.46,0,.5-.06.1-.12s-.36-.09.13.05l-.67-.33.36.22c.47.33.46.32,0,0s-.48-.37,0,0c.27.27.56.52.83.79,1.14,1.13,2.2,2.36,3.43,3.4a18.34,18.34,0,0,0,5.9,3.59,9.36,9.36,0,0,0,6.33-.07c1.29-.42,1.68-2.64,1.7-3.69a12.06,12.06,0,0,0-1.63-5.8c-1.6-2.76-4.47-6.24-8-5.07l-.4.14,1.21-.33a10.37,10.37,0,0,1-1.66.16c.91-.07.35.06-.1-.08-.18-.06-1-.46-.29-.06,1,.52-1.57-1.17-.43-.25,1,.77-.21-.22-.31-.32s-.45-.42-.66-.64c-2.4-2.4-4.72-5-8-6.28A6.23,6.23,0,0,0,86.83,9.7a18.12,18.12,0,0,0-1.63,4.13c-.07.27-.15.54-.23.8s-.56,1.16-.17.53-.15.16-.22.26a5.42,5.42,0,0,1-.63.72l.94-.85A5.44,5.44,0,0,1,83,16.36L84.16,16c-.37.09-.72.11-1.1.18-.89.14.56.26.08.08-1.1-.41.11,0,.33.27l-.4-.24c-.47-.32-.19-.1.83.66l-.23-.21c-.54-.56-.3-.29.73.82-.13-.22-.32-.43-.47-.64-.59-.77,1.21,2,.59.89L84,17c-1.94-3.52-4.09-7.1-7.54-9.36C73.4,5.6,68.9,5,67,8.86a23.91,23.91,0,0,0-1.45,4l-.22.7c-.26.87,0-.08.19-.32-.37.38-.55.94-1,1.33l.93-.85a3.7,3.7,0,0,1-1.22.66l1.22-.33c-.3.07-.63,0-.93.12-.49.11.71.26.23.05-.85-.38-.31-.1.18.17-.76-.41.19.18.4.36-1.16-1,.82,1.09.28.37-.23-.3-.48-.59-.71-.89-.41-.53-.8-1.07-1.21-1.59-2.43-3-5.49-6.08-9.3-7.2a8.55,8.55,0,0,0-8.76,2,9.61,9.61,0,0,0-2,4,7.91,7.91,0,0,1-.49,1.59s.64-1,.11-.29a7.51,7.51,0,0,1-.66.83l.93-.85a3.85,3.85,0,0,1-1.28.72l1.22-.33c-.26.06-1.24.34-1.47.12.74.13.81.12.24,0s-.51-.16.35.22A7.74,7.74,0,0,1,42,13c.92.76,1.1.87.53.33,1.75,1.73.37.38,0-.15-1.94-2.68-3.74-5.46-6.67-7.2a6.05,6.05,0,0,0-8.63,2,17.69,17.69,0,0,0-1.57,3.85c-.09.26-.17.52-.26.77-.22.56-.2.51.08-.16.07.29-.79,1-1,1.22l.94-.84a4.75,4.75,0,0,1-1.38.71l1.22-.33c-.28.06-1.33.35-1.57.14l.57.09a7.1,7.1,0,0,1-.79-.22c-1.23-.29,1,.58-.05-.06-.63-.44-.52-.33.33.31l-.7-.61C20.94,11,19.05,9,16.42,7.92,11.82,6.06,8.05,9.47,5.8,13.17c-1.92,3.16,0,7.88,2.07,10.5,1.39,1.71,5.76,5.65,7.76,2.36"/><g class="cls-4"><rect class="cls-2" x="5" y="5" width="110" height="27"/><g class="cls-5"><rect class="cls-2" width="120" height="36.35"/></g></g></g></g></svg>