<svg xmlns="http://www.w3.org/2000/svg" xmlns:xlink="http://www.w3.org/1999/xlink" viewBox="0 0 132 51"><defs><style>.cls-1,.cls-2,.cls-3{fill:#59ecff;}.cls-1{clip-rule:evenodd;}.cls-3{fill-rule:evenodd;}.cls-4{clip-path:url(#clip-path);}.cls-5{clip-path:url(#clip-path-2);}</style><clipPath id="clip-path"><path class="cls-1" d="M125.61,8.33a225.89,225.89,0,0,0-22.79,7.81Q95,19.31,87.4,23.05c0-.4,0-.83.06-1.12a38.2,38.2,0,0,0-.16-4.54c0-.46-.72-6.51-1.21-6.33L49.49,24.27a75.62,75.62,0,0,1,6.42-6.49c.39-.35.34-1.55.35-1.91a38.27,38.27,0,0,0-.15-4.54,37.91,37.91,0,0,0-.57-4.5C55.48,6.54,55.29,5,54.89,5A51.4,51.4,0,0,0,44,6.72q-4.9,1.22-9.72,2.78a141.31,141.31,0,0,0-18.88,7.71q-5.13,2.55-10,5.5C5,22.94,5,24.42,5,24.62a38,38,0,0,0,.15,4.53,37.39,37.39,0,0,0,.57,4.5c0,.19.41,2,.65,1.84A141.45,141.45,0,0,1,41.71,20.36c-.6.93-1.18,1.86-1.75,2.81C38.83,25.07,37.78,27,36.81,29a5.77,5.77,0,0,0-.15,1.17q-.06.9,0,1.8c0,1.37.11,2.73.24,4.09,0,.47.66,5.65,1.13,5.48L70.19,29.94a20.86,20.86,0,0,0-1.31,3.51,11.5,11.5,0,0,0-.19,3c0,1.36.12,2.72.25,4.08a32.27,32.27,0,0,0,.48,3.65c0,.18.42,2,.65,1.83A227,227,0,0,1,91.25,34.45a223.62,223.62,0,0,1,22.39-9.22c4.29-1.51,8.62-2.87,13-4.11.37-.11.34-1.9.34-1.92a38,38,0,0,0-.15-4.53C126.79,14.19,126.2,8.17,125.61,8.33Z"/></clipPath><clipPath id="clip-path-2"><rect class="cls-2" x="5" y="5" width="122" height="41"/></clipPath></defs><title>dash-01</title><g id="Layer_2" data-name="Layer 2"><g id="Layer_1-2" data-name="Layer 1"><path class="cls-3" d="M125.61,8.33a225.89,225.89,0,0,0-22.79,7.81Q95,19.31,87.4,23.05c0-.4,0-.83.06-1.12a38.2,38.2,0,0,0-.16-4.54c0-.46-.72-6.51-1.21-6.33L49.49,24.27a75.62,75.62,0,0,1,6.42-6.49c.39-.35.34-1.55.35-1.91a38.27,38.27,0,0,0-.15-4.54,37.91,37.91,0,0,0-.57-4.5C55.48,6.54,55.29,5,54.89,5A51.4,51.4,0,0,0,44,6.72q-4.9,1.22-9.72,2.78a141.31,141.31,0,0,0-18.88,7.71q-5.13,2.55-10,5.5C5,22.94,5,24.42,5,24.62a38,38,0,0,0,.15,4.53,37.39,37.39,0,0,0,.57,4.5c0,.19.41,2,.65,1.84A141.45,141.45,0,0,1,41.71,20.36c-.6.93-1.18,1.86-1.75,2.81C38.83,25.07,37.78,27,36.81,29a5.77,5.77,0,0,0-.15,1.17q-.06.9,0,1.8c0,1.37.11,2.73.24,4.09,0,.47.66,5.65,1.13,5.48L70.19,29.94a20.86,20.86,0,0,0-1.31,3.51,11.5,11.5,0,0,0-.19,3c0,1.36.12,2.72.25,4.08a32.27,32.27,0,0,0,.48,3.65c0,.18.42,2,.65,1.83A227,227,0,0,1,91.25,34.45a223.62,223.62,0,0,1,22.39-9.22c4.29-1.51,8.62-2.87,13-4.11.37-.11.34-1.9.34-1.92a38,38,0,0,0-.15-4.53C126.79,14.19,126.2,8.17,125.61,8.33Z"/><g class="cls-4"><rect class="cls-2" x="5" y="5" width="122" height="41"/><g class="cls-5"><rect class="cls-2" width="132" height="51"/></g></g></g></g></svg>