<?xml version="1.0" encoding="utf-8"?>
<!-- Generator: Adobe Illustrator 22.1.0, SVG Export Plug-In . SVG Version: 6.00 Build 0)  -->
<svg version="1.1" id="Layer_1" xmlns="http://www.w3.org/2000/svg" xmlns:xlink="http://www.w3.org/1999/xlink" x="0px" y="0px"
	 viewBox="0 0 344 149.8" style="enable-background:new 0 0 344 149.8;" xml:space="preserve">
<style type="text/css">
	.st0{fill:#59ECFF;}
</style>
<title>gf-logo-20</title>
<g id="Layer_2_1_">
	<g id="Layer_1-2">
		<path class="st0" d="M322.6,71.1c-0.4-1-5.9-0.8-6.1-0.9c-3.9,0-7.9,0.2-11.9,0.5c-4.4,0.3-8.8,0.7-13.1,1.4
			c-3.1,0.5-6.5,0.8-9.4,2c-23.5,9.3-41.4,25.6-61.8,38.8c0.4-0.6,0.9-1.2,1.3-1.7c4.8-5.7,9.6-11.3,14.5-16.9l28.7-33.6
			c0.6-0.7-6.3-0.8-6.2-0.8c-3.9,0-7.8,0.2-11.7,0.5c-4.4,0.3-8.8,0.7-13.1,1.4l-4.1,0.7c-1.8,0.3-3.6,0.7-5.3,1.3l-18.2,12.8
			l8.6-9.9L231,48.1c0.6-0.7-6.3-0.8-6.2-0.8c-3.9,0-7.8,0.2-11.7,0.5c-4.4,0.3-8.8,0.7-13.1,1.4c-2.9,0.4-6.8,0.6-9.4,2
			c-20.5,10.8-38.6,24.3-56.3,38.1c-11.8,9.3-23.5,18.7-35.6,27.7c0.9-1.2,1.7-2.3,2.6-3.5c7.8-10,16.1-19.5,24.8-28.7
			c17.8-18.6,37.2-36.1,56.4-53.7c10.9-10,21.7-20,32.1-30.3c0.6-0.6-7.3-0.9-6.1-0.9c-3.9,0-7.9,0.2-11.9,0.5
			c-7.4,0.6-15.4,1.1-22.5,3.4C160.8,8.2,149.4,16,138,23.1c-12.2,7.6-24.3,15.3-36.5,23C77.9,61.2,54.3,76.5,32.4,93.3
			c-11.5,8.9-22.4,18.4-31.1,29.3c-0.5,0.7,6,0.8,6.2,0.9c4.8,0,9.7-0.2,14.5-0.7c4.9-0.4,9.7-1,14.5-1.8c1.7-0.3,4.9-0.6,6-1.9
			c6.8-8.3,14.3-15.8,22.6-22.6c13.6-11.1,28.2-21.3,43.1-31.2c-16.1,15.3-31.7,31.1-45.2,48c-4.4,5.6-8.6,11.2-12.6,17
			c-3.9,5.8-8.5,12.1-8.1,18.8l0.8,0.5c1.2,0.2,2.5,0.4,3.7,0.3c3.5,0.1,7.2,0,10.7-0.2c7.8-0.4,15.6-1.4,23.2-2.9
			c12.7-2.9,23.7-9.4,34.2-16c5.3-3.4,10.6-6.9,15.7-10.5l0,0l0,0c-3.9,4.7-8,9.9-7.6,15.5c0.1,1,6.3,0.9,6.1,0.9
			c3.9,0,7.9-0.2,11.9-0.5c4.4-0.3,8.8-0.7,13.1-1.4l4.1-0.7c1.8-0.3,3.6-0.7,5.3-1.3l12.8-9.1l0,0c0.1,1.7,1,3.2,3.2,4.2
			c1.9,0.7,3.9,1.1,5.9,1.1c6.8,0.3,13.6,0,20.4-0.7c8.4-0.7,17.1-1.7,25.3-3.9c7.4-2,14.4-5,21-8.9c1.2-0.7,2.4-1.4,3.6-2.1l0,0
			c-1.6,2.3-3,4.8-4.4,7.3c-1.4,2.6-2.5,5.3-3.5,8.1c-0.9,2.8-1.3,5.4,2.2,6.8c2.5,0.9,6.3,0.9,9,0.9c6.2,0,12.4-0.3,18.5-0.9
			c9.5-0.8,19.8-1.9,28.8-5.4c2.5-1-2.4-1.4-2.1-1.3c-4.1-0.3-8.2-0.2-12.4,0.2l-3.4,0.2l0,0c-0.4-1.7,0.5-3.8,1.1-5.5
			c1-2.7,2.2-5.3,3.6-7.8c3-5.3,6.4-10.3,10.1-15c3.7-4.8,7.7-9.5,11.5-14.2c1.9-2.4,3.8-4.8,5.5-7.2S323.6,74,322.6,71.1z
			 M265.1,133L265.1,133L265.1,133l-0.4,0.1C264.5,133.1,264.7,133,265.1,133z M263.8,133.3l0.8-0.2
			C264.3,133.2,264.1,133.3,263.8,133.3L263.8,133.3z"/>
		<g>
			<path d="M28.4,83.8l8.1-7.5h16.1c-0.5,4.9-1,9.5-1.4,14.1c-0.4,4.5-0.7,8.9-1,13.1c-5.9,3.9-10.5,6.6-13.9,8
				c-3.4,1.4-6.5,2.2-9.4,2.2c-8.6,0-15.2-2.4-19.9-7.3C2.4,101.5,0,94.6,0,85.7C0,79,1.2,73,3.5,67.8c2.3-5.3,5.7-9.5,10-12.6
				c3.6-2.7,7.4-4.7,11.4-6c4-1.3,8.2-2,12.6-2c4,0,7.6,0.7,10.9,2.2c3.3,1.5,6,3.6,8.1,6.3l-8.6,8c-2.5-2.9-5.4-5.1-8.6-6.5
				c-3.2-1.4-6.8-2.2-10.8-2.2c-2.9,0-5.5,0.3-8,1c-2.4,0.7-4.1,1.5-4.9,2.4c-0.3,0.4-0.7,1-1.1,2c-0.5,1-1,2.2-1.5,3.7
				c-1,2.8-1.8,5.6-2.3,8.3c-0.5,2.7-0.8,5.3-0.8,7.7c0,7,2,12.6,6,17c4,4.4,9.2,6.6,15.6,6.6c1.3,0,2.6-0.1,3.9-0.4
				c1.2-0.2,2.4-0.6,3.5-1c0.4-3.5,0.7-6.8,0.9-9.9c0.3-3.1,0.5-6,0.7-8.7H28.4z"/>
			<path d="M92,103.8c-1.3,1.3-3.1,2.6-5.2,4.1c-2.1,1.4-4.6,2.9-7.5,4.4c-0.8,0.5-1.8,0.9-2.8,1.1c-1,0.2-2.3,0.4-3.9,0.4
				c-5.1,0-9-1.4-11.8-4.3c-2.7-2.9-4.1-7-4.1-12.3c0-6.7,1.5-12.2,4.5-16.3c3-4.1,8.2-7.9,15.5-11.2c0.7-0.2,1.4-0.4,2.3-0.5
				c0.9-0.1,1.8-0.2,2.9-0.2c4.9,0,8.7,1.6,11.4,4.6c2.7,3.1,4.1,7.4,4.1,13c0,3.4-0.4,6.5-1.3,9.4C95.1,98.9,93.7,101.5,92,103.8z
				 M85.6,104.5c0.7-1.6,1.3-3.3,1.7-5.1c0.4-1.8,0.6-3.6,0.6-5.5c0-5.4-1.2-9.6-3.7-12.6c-2.4-3-5.9-4.5-10.2-4.5
				c-0.7,0-1.3,0.1-2,0.2c-0.6,0.1-1.3,0.3-2,0.6c-1.2,1.9-2.1,3.9-2.7,6.1c-0.6,2.1-0.9,4.4-0.9,6.7c0,4.9,1.1,8.6,3.4,11.4
				c2.3,2.7,5.4,4.1,9.4,4.1c1.2,0,2.4-0.1,3.5-0.4C83.7,105.2,84.7,104.9,85.6,104.5z"/>
			<path d="M127.1,112.4c0.8-6.9,1.7-15.7,2.6-26.6c0.9-10.9,1.9-23.2,2.9-37.1c1.8,0,4.6,0,8.5,0c10.6-0.1,19.2-0.2,25.5-0.3
				l-4.2,7.5c-2.1-0.1-4.4-0.1-6.9-0.1c-2.5,0-6.3,0-11.4,0c-0.4,3.1-0.8,6.3-1.2,9.7c-0.4,3.4-0.7,7-0.9,10.7l21.8-0.3l-3.9,7.3
				h-18.4c-0.5,5.8-0.9,11.1-1.3,15.9c-0.4,4.8-0.6,9.1-0.9,12.9L127.1,112.4z"/>
			<path d="M164.7,112.4c0.5-4.4,1-10.1,1.6-16.8c0.6-6.8,1.2-15.1,2-25l11.1-0.4c-0.3,2.1-0.6,4.3-0.8,6.5
				c-0.2,2.2-0.5,5.1-0.8,8.6c0.4-0.8,0.9-2,1.6-3.5c4-8.6,6.9-12.9,8.7-12.9c0.8,0,1.8,0.3,3.2,1s2.7,1.6,4.3,2.8l-6.2,11.8
				c-1-0.7-2-1.3-3-1.8c-1-0.4-1.9-0.7-2.6-0.7c-1.6,0-3.3,2.9-5,8.8c-1.7,5.8-2.7,12.9-2.9,21.1L164.7,112.4z"/>
			<path d="M217.8,112.4c0-0.4,0.1-0.9,0.2-1.7c0.6-4.2,1-7.5,1.3-10c-3.4,4-6.4,7.2-9.3,9.5c-2.8,2.3-5,3.4-6.4,3.4
				c-2.1,0-4-1.6-5.7-4.8c-1.7-3.2-2.6-7-2.6-11.5c0-3.8,0.7-7.6,2.1-11.4c1.4-3.8,3.1-6.6,5-8.6c0.4-0.4,1.3-1,2.9-2
				c1.6-1,3.4-2.1,5.5-3.2c1.9-1.1,3.7-1.9,5.4-2.5c1.6-0.6,3-0.9,4.2-0.9c3,0,5.7,0.6,8.2,1.8c2.4,1.2,4.5,3,6.2,5.4l-2.8,1.4
				c-0.6,6.8-1.2,13.2-1.7,19.1c-0.5,5.9-0.9,11-1.2,15.2L217.8,112.4z M221,78.4c-1.3-0.8-2.5-1.4-3.8-1.8
				c-1.2-0.4-2.5-0.6-3.7-0.6c-1,0-1.8,0.1-2.5,0.3c-0.7,0.2-1.2,0.5-1.5,0.9c-1.1,1.6-2,3.8-2.7,6.7c-0.7,2.9-1,6.1-1,9.7
				c0,3.3,0.5,6,1.4,8c0.9,2,2.1,3,3.6,3c0.9,0,2.3-1.4,4.1-4.2c1.8-2.8,3.3-6.2,4.6-10.2c0.6-1.6,1-5,1.4-10.3
				C220.9,79.2,221,78.7,221,78.4z"/>
			<path d="M237.4,112.4c0.6-5.1,1.1-11.3,1.8-18.3c0.6-7.1,1.3-14.9,1.9-23.5l11.1-0.4l-1.5,11.6c3.4-4,6.8-7.2,10.1-9.5
				c3.3-2.3,6.1-3.4,8.4-3.4c2.1,0,3.7,0.7,4.8,2c1.1,1.4,1.6,3.4,1.6,6c0,1.5-0.4,6.2-1.1,13.9c-0.7,7.8-1.3,14.8-1.7,21l-11.2,0.4
				c0.7-6.6,1.3-12.4,1.7-17.4c0.4-5,0.6-8.5,0.6-10.4c0-2.3-0.3-4-1-5.1c-0.7-1.2-1.7-1.8-3-1.8c-2.3,0-4.7,3.4-7.2,10.1
				c-2.5,6.7-3.8,14.8-4.1,24.2L237.4,112.4z"/>
			<path d="M280.6,112.4c0.8-7,1.6-16,2.5-26.8c0.9-10.8,1.9-23.1,2.9-36.9l12.1-0.4c-0.8,7-1.4,13.6-2,19.5
				c-0.6,6-0.9,10.5-1.1,13.6c3.5-4.2,6.5-7.3,8.9-9.4c2.4-2.1,4.3-3.2,5.6-3.2c1.9,0,3.7,1,5.4,3.1c1.7,2.1,2.6,4.4,2.6,7
				c0,2.7-0.8,5.3-2.5,7.7c-1.7,2.4-4.3,5-8,7.6l4.6,5.4c1.5,1.9,3.8,4.5,6.8,7.7c0.1,0.1,0.2,0.2,0.2,0.3l-10,6.1
				c-1.7-2.2-3.7-4.9-6.2-8c-0.4-0.5-0.7-0.9-0.8-1.1l-7.7-9.9c-0.3,2.5-0.5,5.2-0.7,8.1c-0.2,2.9-0.4,5.9-0.6,9.1L280.6,112.4z
				 M293.9,93.6l5.3-3.8c1,0.5,2,0.8,2.8,1c0.8,0.2,1.6,0.3,2.3,0.3c0.1,0,0.3,0,0.6,0c0.2,0,0.6-0.1,1.1-0.1
				c0.4-0.9,0.7-1.7,0.9-2.6c0.2-0.8,0.3-1.7,0.3-2.5c0-2.1-0.5-3.8-1.4-5.2c-0.9-1.4-2.1-2-3.5-2H302c-2.6,2.4-4.6,4.8-6,7.4
				c-1.4,2.6-2.1,5-2.1,7.3V93.6z"/>
			<path d="M333.7,99.5c1.1,1.4,2.2,2.7,3.3,3.9c1.1,1.2,2.2,2.4,3.4,3.6c-1.2,1-2.5,2.1-3.8,3.2c-1.3,1.1-2.6,2.3-3.9,3.6
				c-1.1-1.5-2.3-2.9-3.3-4.2c-1.1-1.3-2.1-2.4-3.2-3.5c1.3-0.9,2.6-2,3.8-3C331.3,101.9,332.5,100.8,333.7,99.5z M331.8,96.2
				c0.4-8.4,0.6-15.1,0.7-20c0.1-4.9,0.2-9.4,0.2-13.4c0-2.2,0-4.4-0.1-6.6c-0.1-2.2-0.1-4.4-0.3-6.6l10.2-1.2
				c-1.1,7.3-2.1,14.8-3,22.4c-1,7.6-1.9,15.5-2.8,23.8L331.8,96.2z"/>
		</g>
	</g>
</g>
</svg>
