<svg xmlns="http://www.w3.org/2000/svg" viewBox="0 0 200 201.24"><title>icon-green</title><g id="Layer_1" data-name="Layer 1"><path d="M54.58,31.28A20.9,20.9,0,0,0,56,34c.82,1.35,1.81,3.06,2.84,4.64l2.64,4.06c.64,1,.91,1.49.47,1.13a13.86,13.86,0,0,1-1.13-1.15c-.51-.57-1.13-1.32-1.83-2.17-1.44-1.67-3-3.89-4.64-6l-4-6a16.38,16.38,0,0,0-1.92-2.58c-.22.13,2.12,4.65,4.43,9.08.62,1.09,1.26,2.16,1.85,3.17s1.12,1.93,1.6,2.68c.95,1.53,1.51,2.5,1.29,2.38a22,22,0,0,1-2.83-2.5c-.88-.88-1.39-1.36-.66-.06a98.45,98.45,0,0,0,7.46,10c2.34,2.84,5.39,6.3,9.3,10.46s8.73,9,14.46,14.63C91.65,82.08,98,88.4,103.81,95a104.5,104.5,0,0,1,8.09,10.15,32.92,32.92,0,0,1,2.92,5.3,24.8,24.8,0,0,1,1.66,5.64,47.32,47.32,0,0,1,.62,6.21q.14,3.2,0,6.4a69.13,69.13,0,0,1-1.81,12.65,28.42,28.42,0,0,1-4.69,10.85,33.46,33.46,0,0,1-4.2,4.36c-1.6,1.43-3.35,2.95-5,4.28-3.29,2.7-6.65,4.81-10.05,5.32a18.28,18.28,0,0,1-5.55-.12,44.37,44.37,0,0,1-6-1.46c-7.82-2.55-14.94-7.51-19.27-14.23A35.69,35.69,0,0,1,56,139.08c-1-4.14-1.69-8.59-2.4-12.93a251.47,251.47,0,0,1-2.44-26.48l-.18-5-.08-5q-.08-6.44.08-12.87c.32-13.62,1-23.22,1.37-29.9s.6-10.43.61-12.36c0-3.85-.64-.4-1.36,1.44-.81,2.09-1.16-8-1.91-8-.54-.05-2.9,20.15-3.23,19.18-.52-1.44-.54-7-1-4.12-.23,1.43-.58,5-1.07,12.2s-1.17,18.18-1.07,34.48v.06l.08,5.16.18,5.16a253.18,253.18,0,0,0,2.77,28.9c.42,2.4.79,4.79,1.25,7.18s1,4.85,1.7,7.3A44,44,0,0,0,52,150.66a38.14,38.14,0,0,0,4.24,6.73,42.42,42.42,0,0,0,11.85,10.19,49.38,49.38,0,0,0,7,3.37,51.92,51.92,0,0,0,7.43,2.2,29.53,29.53,0,0,0,8.14.71,21.77,21.77,0,0,0,8.27-2.3,38.31,38.31,0,0,0,6.64-4.36c1-.79,1.94-1.59,2.86-2.39l2.75-2.4a41.49,41.49,0,0,0,5.43-5.67,30.25,30.25,0,0,0,4-7.13,49.23,49.23,0,0,0,2.23-7.41c.55-2.45,1-4.93,1.3-7.41a77.83,77.83,0,0,0,.4-15,43.44,43.44,0,0,0-1.21-7.74,33.75,33.75,0,0,0-3-7.47,70.54,70.54,0,0,0-8.87-12.2c-3.14-3.72-6.45-7.25-9.78-10.75C95,74.65,88.13,68,81.48,61.29c-4.79-4.85-8.72-9.06-12-12.72s-5.73-6.77-7.69-9.38-3.41-4.7-4.57-6.28-1.86-2.83-2.42-3.6C52.65,26.21,54.09,29.36,54.58,31.28Z"/><path d="M126.15,127.9a6.49,6.49,0,0,0,3.37-.36c1.56-.46,2.95-1.17,2.65-.69a11.48,11.48,0,0,1-4.72,2.78,9.34,9.34,0,0,1-3.31.39c-.92-.07-1.52-.26-1.57-.15s.47.53,1.41.87a9,9,0,0,0,3.59.45c2.65-.16,5-1.23,4.87-.9a5.41,5.41,0,0,1-1.42,1.55c-.53.45-.86.73,0,.55a17.9,17.9,0,0,0,5.86-3.17c.74-.57,1.51-1.21,2.41-1.93s1.83-1.59,2.82-2.6a60.6,60.6,0,0,0,6.63-7.74c7.35-10.16,11.72-22,14.25-33.89s3.37-23.93,4.21-35.71l.39-5.45-5.24,1.55a92.68,92.68,0,0,0-28.19,14c-1.37,1-2.65,2-3.95,3-.84.65-1.62,1.36-2.42,2.05s-1.61,1.38-2.36,2.13a82.34,82.34,0,0,0-9.84,10.91,35.46,35.46,0,0,0-3.31,5.07c-.81,1.71.47.51,1.44.07s-.6,4.12.06,4.49c.23.15,1.79-1.67,3.37-3.35.81-.83,1.6-1.64,2.19-2.21s1-.86,1.05-.71c.07.87-1.05,3.14-.09,2.23.47-.46,1.52-1.67,3.63-4.12l1.84-2c.72-.73,1.51-1.55,2.39-2.46s1.92-1.84,3-2.9,2.38-2.13,3.79-3.26l0,0c1.2-.95,2.38-1.92,3.63-2.8a85.1,85.1,0,0,1,25.88-12.87l-4.85-3.89c-.9,12.77-1.82,25.43-4.72,37.52a88.12,88.12,0,0,1-6,17.42A63.35,63.35,0,0,1,139,116.93a50.17,50.17,0,0,1-5.52,5.38,22.83,22.83,0,0,1-4.08,2.94,12.27,12.27,0,0,1-3.83,1.43C124.54,126.88,125.37,127.4,126.15,127.9Z"/><path d="M140.24,84.85c-.34,0-1.16,1.32-1.54,1s-.33-2.24-.7-2.32-1.81,1.36-2.19,1.15c-.56-.3-.83-.86-1.13-.69s-.31.34-.55.89l-1,2.64a40.88,40.88,0,0,1-10,14.64l-.61.57-.81.7-.65.56a10.4,10.4,0,0,0-.76.72,7.52,7.52,0,0,0-1.21,1.62,5.52,5.52,0,0,0-.6,1.75,3.45,3.45,0,0,0,0,1.28c.35,1.13.64,0,1.26-.36.34-.2.73.28,1.22.55a1.51,1.51,0,0,0,1.37.16c.13,0,.23-.2.37-.3a.9.9,0,0,1,.49-.19,1.45,1.45,0,0,1,.88.13,2.61,2.61,0,0,0,.67.4,1.26,1.26,0,0,1,.45.21c.09.1.08.26.25.14l.55-.43c.43-.35,1-.78,1.54-1.3h0l.74-.69a48.41,48.41,0,0,0,12.29-18.55c.92-2.54,1-3.65.9-4.08S140.85,84.83,140.24,84.85Z"/><path d="M101.91,167.57c.12-.38-1.53-3.54-.86-3.38s3.61,3.6,3.91,3.38-1.41-4.48-.95-4.54c.7-.1,1.72.66,1.57,0a13.23,13.23,0,0,0-1.27-2.36c-.82-1.34-2.1-3.33-3.92-6.33a182.13,182.13,0,0,1-18.87-42.94c-.21-.71-.43-1.41-.61-2.13l-.74-2.73c-1.5-5.79-2-8.16-2.49-8.93s-.67.06-1.15.59S74.44,96.87,73.7,97c-.51.1-.4,4.72-.86,4.61-.67-.17-1.33-1.3-1.44-.61a10.12,10.12,0,0,0,.36,2.75c.32,1.61.87,4,1.85,7.54v0c.19.74.42,1.48.64,2.22a189.74,189.74,0,0,0,21.18,47.22c3.33,5.27,4.94,7.24,5.64,7.81S101.68,168.25,101.91,167.57Z"/></g></svg>