<svg xmlns="http://www.w3.org/2000/svg" viewBox="0 0 200 201.24"><title>icon-fair</title><g id="Layer_1" data-name="Layer 1"><path d="M34.15,88.67c.24-.18.25-1.08.68-1.15s1.25.62,1.56.46.71-1.43,1.08-1.55c1.12-.39,1.71.24.6-2.33A31.32,31.32,0,0,1,36,74.93l0-.44,0-.57c-.06-2.39-.44-2-1.52-1.82-.6.1-1.62-.4-2.31-.42-.48,0-1.29,1-1.67.95-1.12-.14-1.55-1.19-1.42,2.27h0l0,.55a37.9,37.9,0,0,0,2.87,11.89C33.09,90.05,33.31,89.31,34.15,88.67Z"/><path d="M98.1,79.82c.32-.77,1-12.21,1.33-10.59s.52,16.37.87,16.39,1.57-14.72,1.94-14.05c.83,1.52,1.07,9.75,1.53-5.64l-.07.66a57.82,57.82,0,0,1,2.75-9,28.71,28.71,0,0,1,1.23-2.79,32.59,32.59,0,0,1,1.56-3c.53-1,1.28-2,2-3.08a38.73,38.73,0,0,1,2.47-3.08,28.66,28.66,0,0,1,14.56-9.21,44.62,44.62,0,0,1,9-.8c1.56,0,3.11,0,4.59.15a18.62,18.62,0,0,1,2.06.26c.61.12,1.21.38,1.81.54a18.67,18.67,0,0,1,6.72,4.68,34.55,34.55,0,0,1,5.3,7.19,50.68,50.68,0,0,1,6,17.2A38.85,38.85,0,0,1,162,83.49a53.55,53.55,0,0,1-8.76,16.13,73,73,0,0,1-13.38,13.07,152.56,152.56,0,0,1-16,10.57L117.43,127l-4.13,2.37a42.57,42.57,0,0,0-4.3,2.81,20.36,20.36,0,0,0-5.56,6.11,25.17,25.17,0,0,0-2.53,6.35c-.51,1.94-.76,3.78-1,5s-.57,2.68-.85,3.87a39,39,0,0,0-1.38,9.5c.19,3.2.54.25,1.23-1.15.39-.8.59.77,1,2.46s1.18,3.44,1.51,3.36a9.35,9.35,0,0,0,.12-2.25,26.61,26.61,0,0,1,.72-4.77c.84-3.38,2.07-6.71,2.15-6.34.3,1.15-.19,5,.48,3.09.17-.49.41-1.33.79-2.72l.64-2.53c.12-.52.24-1.07.37-1.66l.36-1.84a20.42,20.42,0,0,1,3-7.89,15.91,15.91,0,0,1,4.08-3.77c1.79-1.23,4.17-2.51,6.72-4l0,0,6.47-3.73a155.66,155.66,0,0,0,17.7-11.81,77.05,77.05,0,0,0,15.16-15.54A58.61,58.61,0,0,0,169.65,82a47.06,47.06,0,0,0,1.43-11.11,44.61,44.61,0,0,0-1.46-11.15,55.32,55.32,0,0,0-9.39-20,30.74,30.74,0,0,0-8.54-7.91,30.89,30.89,0,0,0-2.75-1.41,30.32,30.32,0,0,0-3-1,29.42,29.42,0,0,0-5.85-.67,68.28,68.28,0,0,0-11,.48,31.82,31.82,0,0,0-11,3.9,41.07,41.07,0,0,0-15.46,16.26L102,50.56c-.19.39-.37.78-.55,1.16-.35.77-.7,1.51-1,2.24-.55,1.49-1.16,2.87-1.56,4.22a69.13,69.13,0,0,0-1.86,7l-.06.28v.38C96.61,87.55,97.17,82.08,98.1,79.82Z"/><path d="M86.35,39.91c-.08.3.68,1.19.32,1.48s-1.76,0-1.92.28.55,1.77.29,2.07c-.76.93-1.9.52,1.47,2.69a42.9,42.9,0,0,1,9.77,9.25l.39.51.48.66c1.95,2.82,1.92,2.11,2.7,1.32.43-.44,1.65-.42,2.24-.78.41-.25.32-1.86.68-2,1-.45,2.2.48-.53-3.34h0c-.14-.2-.29-.39-.45-.59A49.57,49.57,0,0,0,89.64,40.16C86.23,38,86.61,38.89,86.35,39.91Z"/><path d="M57.8,32.52c.17.25,1,.34,1.07.78s-.68,1.18-.54,1.49,1.31.85,1.4,1.23c.3,1.16-.3,1.64,2.09.89a19,19,0,0,1,8.34-.38l.39.07.5.1c2,.53,1.81.08,2-1,.09-.6.82-1.44,1.06-2.09.16-.45-.54-1.5-.4-1.86.23-.54.61-.8.54-1.07s-.63-.55-2.32-.9h0l-.54-.1a26,26,0,0,0-12.07.73C56.52,31.33,57.24,31.64,57.8,32.52Z"/><path d="M32.27,59.6c.3-.09.7-1.23,1.12-1.05s.85,1.56,1.2,1.53,1.26-1.33,1.65-1.25c.58.1.95.42,1.18.26s.26-.8.52-2.61a18.85,18.85,0,0,1,5.58-10.7c.14-.12.27-.27.42-.38l.55-.46c1.2-.92,1.69-1.27,1.76-1.59s-.28-.56-.64-1-.37-1.66-.68-2.28c-.2-.44-1.87-.38-2-.73-.22-.54,0-1.08-.35-1.16a1.44,1.44,0,0,0-.95.32,13.61,13.61,0,0,0-2.22,1.6h0c-.21.17-.4.36-.59.54a25.71,25.71,0,0,0-7.85,15.72c-.22,2.14,0,3,.2,3.33S31.74,59.74,32.27,59.6Z"/><path d="M58.67,117.86c.11-.29-.51-1.19-.14-1.45s1.65.1,1.83-.2-.32-1.75,0-2c.82-.88,1.87-.45-1.12-2.68a47.3,47.3,0,0,1-8.78-8.93l-.35-.48-.44-.61c-1.81-2.64-1.81-2-2.6-1.18-.43.44-1.62.47-2.22.83-.41.25-.37,1.77-.72,1.93-1,.47-2.11-.37.37,3.14h0l.4.54A54.31,54.31,0,0,0,55.6,117.52C58.58,119.68,58.3,118.86,58.67,117.86Z"/><path d="M81.33,136.88c.13-.27-.25-1.08.1-1.33s1.4,0,1.61-.27,0-1.6.28-1.87c.83-.85,1.68-.52-.53-2.39-2.46-2.11-5-4.93-8.56-7.12l-.51-.29-.66-.37c-1.42-.72-2.09-.82-2.37-.69s-.24.57-.34,1.1-1,1.36-1.2,2c-.15.46.42,1.54.21,1.88-.28.5-.64.76-.61,1s.41.47,1.53,1.09h0a2.43,2.43,0,0,1,.35.2c2.61,1.53,5,4.22,8.09,6.84C81,138.56,80.86,137.83,81.33,136.88Z"/><path d="M97.79,163.32c.3-.11.55-1.26,1-1.17s1,1.51,1.39,1.48,1.09-1.65,1.47-1.64c.59,0,1,.41,1.21.15s.2-1.17-.33-3.68a40.41,40.41,0,0,0-7-15.67l-.52-.65-.67-.82c-1.49-1.7-2.28-2.22-2.66-2.27s-.44.44-.7.92-1.54.77-2,1.29.16,1.92-.17,2.14c-.48.34-1,.36-1,.65s.46.82,1.77,2.44h0L90,147a33.79,33.79,0,0,1,5.94,13.79c.34,1.81.5,2.53.78,2.76S97.28,163.51,97.79,163.32Z"/><path d="M154.3,30.14c.17,0,1.09-.42,1.93-.67s1.61-.4,1.45-.15-1.21.92-2.1,1.7-1.56,1.63-1.46,1.72,1.07-.36,2-.67,1.94-.5,1.93-.32c0,.55-.78,1.29-.24,1.22a16.36,16.36,0,0,0,2-.72A36,36,0,0,1,166,30.6L163,29l.13.3a6.24,6.24,0,0,1,.44,3.95,26.6,26.6,0,0,1-1.69,4.82,32.24,32.24,0,0,1-9.69,12.43c-1.32,1-2,1.27-3.09,1.12a4.71,4.71,0,0,1-1.53-.55l-.12-.09-.21.18s0,0,0,0a1.66,1.66,0,0,1,.26-.12l0,0a3.36,3.36,0,0,1-.07-.38c-.18-1.1.13-2,1-3.86l.93-1.95c.39-.82.79-1.63,1.2-2.42a63.87,63.87,0,0,1,4.38-7.11c.34-.68-.32-.41-.91-.42s.1-2.09-.26-2.52c-.13-.14-1.12.44-2,1.12s-1.75,1.41-1.82,1.23c-.22-.54.35-1.75-.22-1.34s-2.52,2.52-5.57,8.94h0l-1,2a19.06,19.06,0,0,0-1.26,3.2,9.74,9.74,0,0,0-.21,4.1,8.21,8.21,0,0,0,.24,1.07,6,6,0,0,0,.57,1.33,6.1,6.1,0,0,0,2,2,8.86,8.86,0,0,0,1.91.91,9.57,9.57,0,0,0,2,.5,8.65,8.65,0,0,0,4.3-.46A11.81,11.81,0,0,0,155.88,55,38,38,0,0,0,167.3,40.1c.42-1,.8-1.93,1.15-2.92a18.81,18.81,0,0,0,.88-3.32,12.29,12.29,0,0,0-1.13-7.38l-1-1.95-2.07.34c-.92.15-1.68.32-2.51.52-6.14,1.51-8.53,3.48-9.21,4.2S153.68,30,154.3,30.14Z"/><path d="M47.76,159.62c.54-.19,5.38-5.19,5.09-4.13a47.13,47.13,0,0,1-2.94,4.45c-1.33,1.94-2.47,3.83-2.33,3.93s1.8-1.39,3.41-2.83,3.22-2.81,3.25-2.52c.07.86-1.15,2.92-.17,2.14s4.18-4.42,13.71-14.7c10.68-11.45,21.56-22.77,32.42-34.12,5.43-5.68,10.87-11.34,16.26-17.12,2.68-2.86,5.42-6,7.93-8.84l7.85-8.73,3-3.33,3.78-4.3c7.94-9.2,10.6-13.57,11.41-15.08s-.45-.5-1.4-.14.53-3.85-.1-4.24c-.23-.15-1.7,1.51-3.22,3s-3,3-3.06,2.74c-.13-.85,1-3,0-2.14s-3.67,4.73-13,15.14l0,0-3,3.3-8.37,9.32-2.07,2.38-2,2.27-4.18,4.54c-5.67,6-11.43,12-17.18,18.06-11.51,12-23.06,24-34.39,36.31-8.16,8.85-11.23,12.81-12.13,14.36S46.8,159.93,47.76,159.62Z"/><path d="M50.84,154.11a116.86,116.86,0,0,0-11.18,16.13A52.24,52.24,0,0,0,58.1,156.08C66.66,145.88,50.84,154.11,50.84,154.11Z"/></g></svg>