<svg id="Layer_2" data-name="Layer 2" xmlns="http://www.w3.org/2000/svg" viewBox="0 0 100 100"><title>accessories</title><path d="M24.57,61.18c.09-.32.21-5,.33-4.32.07.33.13,2,.19,3.57,0,.78.07,1.55.09,2.12a4.54,4.54,0,0,0,.09,1c.14,0,.38-6,.5-5.71.35.82.45,6.52.45-12.5a35.64,35.64,0,0,1,.1-3.81,8.52,8.52,0,0,1,1.31-3.26,15.39,15.39,0,0,1,5.53-4.88A34.46,34.46,0,0,1,48,29.42a39.37,39.37,0,0,1,15.25,2.12,23.61,23.61,0,0,1,6.66,3.62,10.7,10.7,0,0,1,4,5.85,11.87,11.87,0,0,1,.21,2.76V47.6c0,16.2.13,13.19.45,12.08.18-.64.49,2.31.7,2.32s.38-6,.5-5.71c.35.82.45,6.52.45-12.51h0c0-.52,0-1,0-1.55A7.73,7.73,0,0,0,76,40.55l-.3-1.14-.48-1.07a5.26,5.26,0,0,0-.55-1c-.21-.32-.41-.65-.64-1a16.74,16.74,0,0,0-3.2-3.15,26.45,26.45,0,0,0-7.79-4,39.62,39.62,0,0,0-8.47-1.76,42.91,42.91,0,0,0-8.63,0,39.23,39.23,0,0,0-8.47,1.74,26.54,26.54,0,0,0-7.8,3.94l-.89.68-.82.77a16.14,16.14,0,0,0-1.51,1.68,11,11,0,0,0-2,4.16c0,.19-.1.38-.14.57l-.06.6c0,.38-.08.8-.09,1.16V49.1C24.11,65.3,24.25,62.29,24.57,61.18Z"/><path d="M86.21,57.82c-.13,0-.85.71-1.6,1.13s-1.42.75-1.23.59a26.35,26.35,0,0,0,2.05-1.71l.59-.61a4.83,4.83,0,0,0,.43-.59,2.81,2.81,0,0,0,.36-.59s-.24.17-.52.46a5.41,5.41,0,0,1-.48.48l-.61.47a7.59,7.59,0,0,1-1.19.77c-.33.19-.53.29-.51.24.15-.32,1-1.07.47-.78-.13.07-.34.21-.67.43L81.81,59a38.53,38.53,0,0,1-6.76,2.6,90,90,0,0,1-23,3.06,99.51,99.51,0,0,1-23.18-2.15c-.72-.14-1.42-.33-2.13-.52-.9-.21-1.78-.5-2.67-.77a28.48,28.48,0,0,1-8-3.75c-.61-.47-.2.11.05.46.14.19-.3.08-.73-.15s-.93-.5-1-.43.15.25.44.56c.14.16.3.35.49.53l.62.53c.84.74,1.78,1.29,1.64,1.31-.35,0-1.5-.54-1-.15a15.2,15.2,0,0,0,2.42,1.37A42.71,42.71,0,0,0,26.15,64h0c.73.19,1.46.38,2.2.54a103.88,103.88,0,0,0,25.1,2.18c8.39-.29,16.83-1.23,24.91-4,5.81-2.08,7.75-4.21,8.34-4.88S86.66,57.67,86.21,57.82Z"/><path d="M74.08,56.57a20.31,20.31,0,0,1-2.11,0c.32-.09,3.2-.39,3.19-.46s-2.9,0-2.78-.08c.38-.27,3.14-.44-6.06.09q-15.4.78-30.84.07L34,56.07,32.17,56c-7.83-.49-6.37-.38-5.85-.12.29.14-1.15.2-1.16.32s2.88.47,2.74.52c-.41.16-3.19.11,6.05.64h0l1.46.07a318,318,0,0,0,32.82-.17C76.1,56.74,74.64,56.69,74.08,56.57Z"/><path d="M23.11,58.75c-.18-.07-1.63-.44-2.88-.92s-2.32-1-1.94-.89,2.24.74,4.06,1.11a12.29,12.29,0,0,0,3.58.35,8.19,8.19,0,0,0-1.06-.2,21.84,21.84,0,0,1-2.29-.55,13.29,13.29,0,0,1-3-1.13c.47,0,2.07.38,1.52.14-.28-.13-1.1-.37-2.82-1.09-.43-.19-.87-.4-1.55-.65a6.36,6.36,0,0,0-2.41-.44l-.77.1c-.26.08-.52.18-.79.28A4.14,4.14,0,0,0,11.41,56a5.19,5.19,0,0,0-.9,1.54,7.11,7.11,0,0,0-.45,1.83h0v.08a5.22,5.22,0,0,0,.46,2.06,7.08,7.08,0,0,0,1.4,2A15.65,15.65,0,0,0,16,66.42a32.93,32.93,0,0,0,4.43,1.89,63.53,63.53,0,0,0,9.2,2.4,111.68,111.68,0,0,0,18.77,1.77,117.3,117.3,0,0,0,18.81-1.2,78.16,78.16,0,0,0,9.28-2,37.29,37.29,0,0,0,8.88-3.65,14.73,14.73,0,0,0,3-2.35,7.41,7.41,0,0,0,1.47-2.13,5.77,5.77,0,0,0,.4-1.32l.06-.34,0-.28.06-.59a6.47,6.47,0,0,0-.08-2,3.25,3.25,0,0,0-.52-1.12,2.68,2.68,0,0,0-1-.8,4.14,4.14,0,0,0-2-.3,8.76,8.76,0,0,0-1.5.27c-.92.23-1.69.53-2.34.75L81.16,56c-2.18.69-3.41,1-4,1.17-1.25.34-.08.22.59.22.37,0-.25.29-1,.56a7.62,7.62,0,0,0-1.56.63,15.47,15.47,0,0,0,3.48-.43c1.7-.33,3.34-.77,3.2-.67-.41.33-2.25,1-1.25.76.48-.11,1.72-.44,4.08-1.26a11,11,0,0,1,1.86-.47c.67-.12,1.39,0,1.52.21a3.77,3.77,0,0,1,.14,2.33,5.24,5.24,0,0,1-.13.72,3.94,3.94,0,0,1-.27.69,5.54,5.54,0,0,1-1,1.38h0a12.81,12.81,0,0,1-2.56,2,35.79,35.79,0,0,1-8.81,3.54,74,74,0,0,1-9.5,1.92,115.56,115.56,0,0,1-19.42,1,101.33,101.33,0,0,1-19.29-2.26,48,48,0,0,1-9.13-2.95,18.15,18.15,0,0,1-4-2.39,4.74,4.74,0,0,1-2-3.32v.08a3.54,3.54,0,0,1,.08-.49,3.41,3.41,0,0,1,1.22-2.12,2.44,2.44,0,0,1,1.91-.21,12,12,0,0,1,2,.75c.68.28,1.31.51,1.88.71a22.45,22.45,0,0,0,4.31,1.07C25,59.34,23.74,59.05,23.11,58.75Z"/></svg>