<svg id="Layer_1" data-name="Layer 1" xmlns="http://www.w3.org/2000/svg" xmlns:xlink="http://www.w3.org/1999/xlink" viewBox="0 0 100 100"><defs><style>.cls-1{fill:none;}.cls-2{clip-path:url(#clip-path);}</style><clipPath id="clip-path"><path class="cls-1" d="M363.67,274.39a8.87,8.87,0,0,0-7.87-1.33,10.41,10.41,0,0,0-7.12-5.13,9.48,9.48,0,0,0-10.93,6c-2.48,6.13,2.82,11.84,7.45,16.89,1.16,1.33,2.41,2.57,3.32,3.73a9.11,9.11,0,0,0-.75.91,10.58,10.58,0,0,0-2,6.79l-15.89-25.42a4.36,4.36,0,0,0-6.05-1.41l-2.07,1.33-1.9-3.07a2.68,2.68,0,0,0-3.73-.82l-9.52,6a2.67,2.67,0,0,0-.82,3.72l1.9,3-2.07,1.25a4.43,4.43,0,0,0-1.41,6l20.62,33a4.43,4.43,0,0,0,6,1.41L333,326l1.91,3.06a2.67,2.67,0,0,0,3.72.83l9.61-5.88a2.69,2.69,0,0,0,.82-3.72l-1.9-3.07,2.07-1.24a4.43,4.43,0,0,0,1.41-6l-3.48-5.55.74-.17c0-.08-1-4.3,1.41-7.61a1.92,1.92,0,0,1,.33-.42c.83,1.25,1.24,2.32.91,3.23l1.74.5c.5-1.57-.08-3.23-1.32-5.05,2-1.41,4.8-2.15,8.44-2.32,4.39-.16,7.54-2.23,8.61-5.79C369.38,282.5,367.39,277.12,363.67,274.39Zm-56.55,7.2a1.08,1.08,0,0,1,.33-1.49l9.52-6a1.08,1.08,0,0,1,1.49.33l1.91,3.07L309,284.66Zm-.58,6.54-1.32,2.24A2.61,2.61,0,0,1,306.54,288.13Zm-.66,4.31,3.64-6.13,3.31-2.07L307,294.18Zm2,3.23,7.86-13.33,3.31-2.07-10.1,17.14Zm2.07,3.31L322,278.45a33.16,33.16,0,0,1,3.23-2L311,300.72Zm37.67,22.1a1.08,1.08,0,0,1-.34,1.49l-9.52,6a1.08,1.08,0,0,1-1.49-.34l-1.9-3.06L345.78,318Zm.66-6.54,1.32-2.23A2.58,2.58,0,0,1,348.27,314.54Zm.66-4.22-3.64,6.13L342,318.52l5.87-9.94ZM346.86,307,339,320.34l-3.32,2.07,10.1-17.14Zm-2-3.23-12.08,20.45-2.74,1.66a3.79,3.79,0,0,1-.58.24L343.71,302Zm-2.07-3.31-15.15,25.66a2.39,2.39,0,0,1-1.4-1.15l15.48-26.33Zm-2.07-3.23-15.48,26.33-1.07-1.74,15.48-26.33Zm-2-3.31-15.49,26.33-1.07-1.74,15.48-26.33Zm-2.07-3.23L321.2,317l-1.08-1.74L335.6,289Zm-2-3.23-15.56,26.25L318.05,312l15.48-26.33Zm-2.07-3.31-15.48,26.33-1.08-1.74,15.48-26.33Zm-2.07-3.23-15.48,26.24L314,305.44l15.48-26.33Zm-17.47,23L312,302.21l15.15-25.67a2.41,2.41,0,0,1,1.4,1.16Zm53.24-17.8c-.83,2.81-3.32,4.38-7,4.55a18.18,18.18,0,0,0-8.86,2.23c-.16.17-.41.25-.58.42-1-1.24-2.15-2.49-3.31-3.81-4.3-4.64-9.19-9.93-7.12-15a7.52,7.52,0,0,1,8.86-4.88,9,9,0,0,1,5.8,4.06,11.67,11.67,0,0,0-2.4,1.4,3.67,3.67,0,0,0-1.33,4.64c.75,1.74,2.4,2.82,3.89,2.48.91-.16,2.49-1.07,2.57-5a7.86,7.86,0,0,0-.33-2.49,7.07,7.07,0,0,1,6.12,1.16A9.8,9.8,0,0,1,366.32,286.15Zm-11.51-10.77a7.29,7.29,0,0,1,.25,1.91c0,2.23-.58,3.14-1.08,3.23s-1.41-.5-1.82-1.49a1.81,1.81,0,0,1,.66-2.41l.75-.49A3.15,3.15,0,0,1,354.81,275.38Z"/></clipPath></defs><title>hats</title><path d="M79.9,56.08A26.65,26.65,0,0,1,76,57V44.2c0-9.31-11.64-16.89-26-16.89S24,34.89,24,44.2V57a26.65,26.65,0,0,1-3.94-.91c-3.69-1.06-7.88-2.25-9.75,1.49a3.81,3.81,0,0,0,.41,3.85c3.44,5.56,17.92,11.19,39,11.27h.46c21.09-.08,35.57-5.71,39-11.27a3.81,3.81,0,0,0,.41-3.85C87.78,53.83,83.59,55,79.9,56.08Zm.5,1.77a18.65,18.65,0,0,1,5-1c.14.11.35.32.32.54s-.64,2-8.79,4.36L76,62v-3.2A27.82,27.82,0,0,0,80.4,57.85Zm-6.28,4.7A78.06,78.06,0,0,1,50,65.64a78.06,78.06,0,0,1-24.12-3.09V57c7.19.66,14.68,1,24.12,1s16.93-.31,24.12-1ZM50,29.15c13.3,0,24.12,6.75,24.12,15.05V55.12c-7.18.67-14.66,1-24.12,1s-16.94-.31-24.12-1V44.2C25.88,35.9,36.7,29.15,50,29.15ZM24,58.84V62l-1-.27c-8.15-2.33-8.76-4-8.79-4.36s.18-.43.32-.55a19.14,19.14,0,0,1,5,1A27.82,27.82,0,0,0,24,58.84Zm63.63,1.61c-2.47,4-14.89,10.36-37.67,10.4s-35.2-6.39-37.67-10.4A2.09,2.09,0,0,1,12,58.39a2.7,2.7,0,0,1,.47-.69c.31,2.1,3.52,4,10.09,5.84,13.76,3.94,20.1,3.94,27.44,3.94s13.68,0,27.44-3.94C84,61.66,87.22,59.8,87.53,57.7a2.7,2.7,0,0,1,.47.69A2.09,2.09,0,0,1,87.67,60.45Z"/></svg>