<svg id="Layer_1" data-name="Layer 1" xmlns="http://www.w3.org/2000/svg" xmlns:xlink="http://www.w3.org/1999/xlink" viewBox="0 0 100 100"><defs><style>.cls-1{fill:none;}.cls-2{clip-path:url(#clip-path);}</style><clipPath id="clip-path"><path class="cls-1" d="M77.67,274.39a8.87,8.87,0,0,0-7.87-1.33,10.41,10.41,0,0,0-7.12-5.13,9.48,9.48,0,0,0-10.93,6c-2.48,6.13,2.82,11.84,7.45,16.89,1.16,1.33,2.41,2.57,3.32,3.73a9.11,9.11,0,0,0-.75.91,10.58,10.58,0,0,0-2,6.79L43.89,276.79a4.36,4.36,0,0,0-6-1.41l-2.07,1.33-1.9-3.07a2.68,2.68,0,0,0-3.73-.82l-9.52,6a2.67,2.67,0,0,0-.82,3.72l1.9,3-2.07,1.25a4.43,4.43,0,0,0-1.41,6l20.62,33a4.43,4.43,0,0,0,6,1.41L47,326,48.86,329a2.67,2.67,0,0,0,3.72.83L62.19,324a2.69,2.69,0,0,0,.82-3.72l-1.9-3.07L63.18,316a4.43,4.43,0,0,0,1.41-6l-3.48-5.55.74-.17c0-.08-1-4.3,1.41-7.61a1.92,1.92,0,0,1,.33-.42c.83,1.25,1.24,2.32.91,3.23l1.74.5c.5-1.57-.08-3.23-1.32-5.05,2-1.41,4.8-2.15,8.44-2.32,4.39-.16,7.54-2.23,8.61-5.79C83.38,282.5,81.39,277.12,77.67,274.39Zm-56.55,7.2a1.08,1.08,0,0,1,.33-1.49l9.52-6a1.08,1.08,0,0,1,1.49.33l1.91,3.07L23,284.66Zm-.58,6.54-1.32,2.24A2.61,2.61,0,0,1,20.54,288.13Zm-.66,4.31,3.64-6.13,3.31-2.07L21,294.18Zm2,3.23,7.86-13.33L33,280.27l-10.1,17.14ZM23.94,299,36,278.45a33.16,33.16,0,0,1,3.23-2L25,300.72Zm37.67,22.1a1.08,1.08,0,0,1-.34,1.49l-9.52,6a1.08,1.08,0,0,1-1.49-.34l-1.9-3.06L59.78,318Zm.66-6.54,1.32-2.23A2.58,2.58,0,0,1,62.27,314.54Zm.66-4.22-3.64,6.13L56,318.52l5.87-9.94ZM60.86,307,53,320.34l-3.32,2.07,10.1-17.14Zm-2-3.23L46.79,324.23l-2.74,1.66a3.79,3.79,0,0,1-.58.24L57.71,302Zm-2.07-3.31L41.65,326.13a2.39,2.39,0,0,1-1.4-1.15l15.48-26.33Zm-2.07-3.23L39.25,323.57l-1.07-1.74L53.66,295.5Zm-2-3.31L37.26,320.26l-1.07-1.74,15.48-26.33Zm-2.07-3.23L35.2,317l-1.08-1.74L49.6,289Zm-2-3.23L33.13,313.72,32.05,312l15.48-26.33Zm-2.07-3.31L31.14,310.49l-1.08-1.74,15.48-26.33Zm-2.07-3.23L29.07,307.17,28,305.44l15.48-26.33ZM27.08,304,26,302.21l15.15-25.67a2.41,2.41,0,0,1,1.4,1.16Zm53.24-17.8c-.83,2.81-3.32,4.38-7,4.55a18.18,18.18,0,0,0-8.86,2.23c-.16.17-.41.25-.58.42-1-1.24-2.15-2.49-3.31-3.81-4.3-4.64-9.19-9.93-7.12-15a7.52,7.52,0,0,1,8.86-4.88,9,9,0,0,1,5.8,4.06,11.67,11.67,0,0,0-2.4,1.4,3.67,3.67,0,0,0-1.33,4.64c.75,1.74,2.4,2.82,3.89,2.48.91-.16,2.49-1.07,2.57-5a7.86,7.86,0,0,0-.33-2.49A7.07,7.07,0,0,1,76.67,276,9.8,9.8,0,0,1,80.32,286.15ZM68.81,275.38a7.29,7.29,0,0,1,.25,1.91c0,2.23-.58,3.14-1.08,3.23s-1.41-.5-1.82-1.49a1.81,1.81,0,0,1,.66-2.41l.75-.49A3.15,3.15,0,0,1,68.81,275.38Z"/></clipPath></defs><title>bags</title><path d="M30.79,91.71A7.72,7.72,0,0,1,23.08,84V32.59a1,1,0,0,1,1-1H34.48V23.89a15.6,15.6,0,1,1,31.19,0v7.69H76.06a1,1,0,0,1,1,1v4.95h4.05a1,1,0,0,1,.71.29,1,1,0,0,1,.3.72v8a1,1,0,0,1-1,1H77.07V84a7.72,7.72,0,0,1-7.72,7.72ZM25.09,84a5.71,5.71,0,0,0,5.69,5.69H69.35a5.7,5.7,0,0,0,5.7-5.7V76.34h-50Zm16.75-9.68H58.3V33.6H41.84Zm23.83,0h9.38V33.6H65.67Zm-15.6-60.2A10.26,10.26,0,0,1,60.32,24.37V74.32h3.33V23.89a13.58,13.58,0,0,0-27.16,0V74.32h3.33V24.37A10.26,10.26,0,0,1,50.07,14.12Zm-25,60.2h9.39V33.6H25.09Zm52-28.82h3v-6h-3Zm-27-29.36a8.24,8.24,0,0,0-8.23,8.23v7.21H58.3V24.37A8.24,8.24,0,0,0,50.07,16.14Z"/></svg>