<svg id="Layer_2" data-name="Layer 2" xmlns="http://www.w3.org/2000/svg" viewBox="0 0 100 100"><title>bags</title><path d="M70.59,88.06a4.17,4.17,0,0,0,1-1.38,5.69,5.69,0,0,0,.4-1.41c0-.5,0-1.13.07-1.71,0-2.33.12-4.4.18-3.72,0,.34.06,1.38.09,2.73s.29,3.08-.45,4.56a5.69,5.69,0,0,1-3.11,2.94,7.4,7.4,0,0,1-1.93.42,4.43,4.43,0,0,0,2-.22,5.83,5.83,0,0,0,3.35-2.73,6,6,0,0,0,.74-2.23c.08-.78.06-1.37.09-1.93a7.82,7.82,0,0,1,.11-1.61c.35,1.7.45,13.54.45-26v-24a1,1,0,0,0-1-1.05h-51a1,1,0,0,0-1.05,1.05V84.66a6.35,6.35,0,0,0,.08,1,6.61,6.61,0,0,0,1.86,3.74,6.79,6.79,0,0,0,3.18,1.8,7.08,7.08,0,0,0,.92.16c.29,0,.64,0,.88,0h9.53c33.65,0,27.42-.13,25.09-.45-1.31-.18,4.82-.49,4.82-.7a1.93,1.93,0,0,0-.53-.06l-1.4-.06L60.64,90c-3-.09-6-.18-5.71-.24,1.71-.35,13.55-.45-26-.45h-1.6a5.36,5.36,0,0,1-1.3-.13A4.71,4.71,0,0,1,23.86,88a4.59,4.59,0,0,1-1.27-2.57,5.69,5.69,0,0,1-.06-.74V31.78l-1.05,1h51l-1-1V63.71c0,8.41,0,14.33,0,18.44,0,1,0,1.92,0,2.73a4.74,4.74,0,0,1-1.66,3.5c-.77.61-.83.64-.51.53A4.79,4.79,0,0,0,70.59,88.06Z"/><path d="M31.26,78c.09-.48.21-7.51.34-6.51.06.49.13,3,.19,5.37l.09,3.21,0,1a1.56,1.56,0,0,0,0,.39,7.36,7.36,0,0,0,.12-1.4c0-.84.09-2,.14-3,.09-2.21.18-4.36.24-4.15.35,1.24.45,9.83.45-18.86V30c0-2,0-4.05,0-6A14.55,14.55,0,0,1,53.12,11.32,14.53,14.53,0,0,1,62,24.48V52.8c0,24.43.13,19.9.45,18.22.18-1,.49,3.49.7,3.49a7.36,7.36,0,0,0,.12-1.4l.14-3.06c.09-2.2.18-4.36.24-4.14.35,1.24.45,9.83.45-18.87V25c0-.54-.05-1.12-.07-1.68a16.65,16.65,0,0,0-32.91-1.87c-.08.56-.18,1.11-.25,1.68l-.08,1.69v35C30.81,84.23,30.94,79.7,31.26,78Z"/><path d="M38.16,71.61c.05-.4.13-6.23.2-5.4,0,.41.08,2.49.11,4.46l.06,2.66,0,.86a1.34,1.34,0,0,0,0,.32,1.34,1.34,0,0,0,0-.32l0-.84.08-2.54c.06-1.83.11-3.61.15-3.44.21,1,.27,8.16.27-15.65V24.31c0-.43,0-.79,0-1.18A10.89,10.89,0,0,1,39.4,22,8.33,8.33,0,0,1,54,18.84a8.43,8.43,0,0,1,1.74,4.23c.07.75.05,1.59.05,2.42v31c0,20.28.08,16.52.27,15.12.11-.79.3,2.9.42,2.9a1.64,1.64,0,0,0,0-.32l0-.84.08-2.54c0-1.83.11-3.62.14-3.44.21,1,.27,8.16.27-15.66V24.15a10.12,10.12,0,0,0-.37-2.78,9.62,9.62,0,0,0-3-4.68,10.4,10.4,0,0,0-2.39-1.49,10.28,10.28,0,0,0-2.73-.72,9.58,9.58,0,0,0-9.46,4.91,10,10,0,0,0-1,2.64,13.16,13.16,0,0,0-.2,2.76v31.7C37.89,76.77,38,73,38.16,71.61Z"/><path d="M71.28,75.11c-.16-.09-2.5-.21-2.17-.34s3.34-.25,3.34-.36-3-.38-2.88-.5c.42-.35,3.29-.45-6.29-.45H27.73c-8.16,0-6.65.13-6.08.45.32.18-1.17.49-1.17.7s3,.39,2.88.5c-.42.35-3.29.45,6.3.45H65.2C73.36,75.56,71.85,75.43,71.28,75.11Z"/><path d="M78,44.82s.07-1.25.14-1,.13,1.9.17,2,.19-1.5.24-1.39c.16.34.18,2.06.32-3.44l0-3.46a.63.63,0,0,0-.62-.63H72.45a.63.63,0,0,0-.63.63v8.24a.63.63,0,0,0,.63.63h.93l1.14,0c4.79-.15,3.8-.21,3.38-.33-.25-.09.45-.24.35-.32s-1.76-.2-1.71-.26.43-.12.19-.16a29.68,29.68,0,0,0-3.48-.16h-.8l.63.63V37.45l-.63.63H78.3l-.63-.63c0,1.36,0,2.7,0,4.06C77.86,45.69,77.9,45,78,44.82Z"/></svg>