<svg id="Layer_2" data-name="Layer 2" xmlns="http://www.w3.org/2000/svg" viewBox="0 0 100 100"><title>bottoms</title><path d="M69.45,91.16c.09-.72.21-11.19.34-9.71.06.75.13,4.47.19,8,0,1.77.06,3.49.09,4.78l0,1.54a3.43,3.43,0,0,0,0,.58,2.32,2.32,0,0,0,.06-.58l.06-1.51c0-1.25.09-2.91.14-4.55.09-3.29.18-6.5.24-6.19.33,1.84.49,14.67.41-28.12-.29-17.15-1.53-34.24-3.42-51.28a1,1,0,0,0-.77-.9h0A69.75,69.75,0,0,0,49.57.76,68.38,68.38,0,0,0,32.28,3.24h0a1.07,1.07,0,0,0-.77.9C30.42,13.68,29.61,23.22,29,32.8S28,52,28,61.56V76.94c0,8.81,0,15.09,0,19.43v0a.93.93,0,0,0,.45.8A13,13,0,0,0,33,98.92a11.92,11.92,0,0,0,3.19.18,8,8,0,0,0,2.59-.56c.21-.09-.1-.05-.58,0a11.28,11.28,0,0,1-1.66.12c-.76,0,.63-.18,2.05-.75a7.88,7.88,0,0,0,2.73-1.61,3,3,0,0,0-.53.23,9.35,9.35,0,0,1-1.37.58,10.9,10.9,0,0,1-4.36.63,11.83,11.83,0,0,1-4.14-1,4.53,4.53,0,0,1-1.42-.83,15.85,15.85,0,0,0,2.6.86c.31.07.4.06,0-.08-.18-.07-.48-.16-.9-.35a10.89,10.89,0,0,1-1.59-.81l.45.83c0-3.92,0-12.14,0-28v-6.8c0-9.55.34-19.1,1-28.63s1.42-19.07,2.49-28.55l-.78.9A66,66,0,0,1,49.57,2.86,67.54,67.54,0,0,1,66.34,5.28l-.78-.9c1.11,9.88,2,19.83,2.56,29.76S69.05,54,69,64C69,100.42,69.13,93.67,69.45,91.16Z"/><path d="M41,93.31c.1-.42.63-6.6.71-5.71,0,.44-.07,2.65-.13,4.75l-.07,2.83a7.11,7.11,0,0,0,0,1.25,7,7,0,0,0,.18-1.23L42,92.52a30.41,30.41,0,0,1,.48-3.63c.13.55.11,2.72.25,1.6S43,85,44.33,72.39c.68-6.28,1.49-12.54,2.54-18.75A150.06,150.06,0,0,1,51,35.25H49A191.56,191.56,0,0,1,54,58a113.9,113.9,0,0,1,1.1,11.56l.72,11.68.24,4,.31,5.09.38,6.21h0a1,1,0,0,0,.49.82,12.34,12.34,0,0,0,4.71,1.73,12.54,12.54,0,0,0,3.48,0,10.66,10.66,0,0,0,3.11-.9c.79-.4-.39,0-1.1,0-.45,0,.3-.28,1.08-.74s1.57-1.07,1.5-1.16-.45.2-1.12.47a13.1,13.1,0,0,1-2.54.73,8.57,8.57,0,0,1-3.5,0,9.15,9.15,0,0,0,1.75-.3s-.39,0-1.39-.07a10.73,10.73,0,0,1-4.89-1.59l.5.82c-.15-2.46-.38-6.21-.68-11.28v0l-.25-4-.71-11.68C57,65.5,56.63,61.52,56,57.64a191.92,191.92,0,0,0-5-23,1,1,0,0,0-1.29-.73,1.07,1.07,0,0,0-.72.71h0A165.93,165.93,0,0,0,44.39,55.8c-1.13,7.11-2,14.26-2.66,21.42C40.73,88,40.6,92.38,40.57,93.9S40.75,94.05,41,93.31Z"/><path d="M66.13,5.14c-.13,0-1.66.51-1.5.29s2-1.17,1.92-1.26-2,.51-2,.34S65.1,4,64.82,4s-1.29.53-4.31,1.43A42.08,42.08,0,0,1,50.05,7,35.12,35.12,0,0,1,39.57,5.86c-.32-.09-.65-.17-1-.27L37.4,5.2c-2.53-.89-3.49-1.42-3.86-1.5s-.12.15,0,.37-.92.09-1,.28,1.67,1.26,1.55,1.31-.76,0-.52.15A19.53,19.53,0,0,0,38,7.6h0c.33.11.67.19,1,.29A37.58,37.58,0,0,0,44.85,9c1,.1,2,.17,3,.18h1.44c.51,0,1,0,1.49,0a44.19,44.19,0,0,0,11.62-2,17.82,17.82,0,0,0,4.05-1.72C66.76,5.15,66.38,5.2,66.13,5.14Z"/><path d="M48.69,24.54c.05-.05.12-.81.2-.7s.15,1.08.22,1.08.23-1,.3-.93.27,1.06.27-2V10.42c0-2.64-.08-2.15-.28-2s-.29-.38-.42-.38-.23,1-.3.93-.27-1.06-.27,2.05h0V22.57C48.41,25.21,48.49,24.72,48.69,24.54Z"/><path d="M31.47,14.42c0,.08.74.34.63.38a1.82,1.82,0,0,1-.62,0c-.27,0-.51-.14-.53-.12s.19.23.43.36.48.24.45.27-.42.08-.27.16a6.15,6.15,0,0,0,2.52.27,23.51,23.51,0,0,0,5.57-1,11,11,0,0,0,2.67-1.16,5.68,5.68,0,0,0,2.14-2.18l.25-.54c.07-.25.16-.49.21-.74a4.63,4.63,0,0,0,0-1.74,2.7,2.7,0,0,0-.2-.69c-.1-.2-.11,0-.17.14s-.41-.32-.53-.26,0,1-.06,1-.22-.29-.24-.15,0,.23,0,.55a3.68,3.68,0,0,1-.23,1.46h0l-.19.4a4.5,4.5,0,0,1-1.81,1.78,10.79,10.79,0,0,1-2.55,1,19.94,19.94,0,0,1-5.57.9,8.52,8.52,0,0,1-1.93-.25C31.32,14.19,31.42,14.3,31.47,14.42Z"/><path d="M66.93,15.08c-.08,0-.87.1-.77,0a6,6,0,0,1,.55-.25c.24-.11.44-.25.42-.28s-.95.1-.93,0,.26-.23.13-.24a15.34,15.34,0,0,1-2.08.11,22.32,22.32,0,0,1-5-.83,4.17,4.17,0,0,1-3.34-2.84c0-.13-.08-.28-.12-.42a3.69,3.69,0,0,1-.11-.56,16.81,16.81,0,0,1-.11-1.9c0-.18-.11,0-.21.05s-.25-.4-.37-.43-.33,1-.38.94-.16-.36-.21-.22a5.92,5.92,0,0,0,.16,2.42h0c.06.18.09.35.15.52a5.45,5.45,0,0,0,1.77,2.55,7,7,0,0,0,2.76,1.19,21.58,21.58,0,0,0,5.64.8,5,5,0,0,0,2.21-.42C67.28,15.12,67.06,15.14,66.93,15.08Z"/></svg>