<svg id="Layer_1" data-name="Layer 1" xmlns="http://www.w3.org/2000/svg" xmlns:xlink="http://www.w3.org/1999/xlink" viewBox="0 0 100 100"><defs><style>.cls-1{fill:none;}.cls-2{clip-path:url(#clip-path);}</style><clipPath id="clip-path"><path class="cls-1" d="M363.67,154.39a8.87,8.87,0,0,0-7.87-1.33,10.41,10.41,0,0,0-7.12-5.13,9.48,9.48,0,0,0-10.93,6c-2.48,6.13,2.82,11.84,7.45,16.89,1.16,1.33,2.41,2.57,3.32,3.73a9.11,9.11,0,0,0-.75.91,10.58,10.58,0,0,0-2,6.79l-15.89-25.42a4.36,4.36,0,0,0-6.05-1.41l-2.07,1.33-1.9-3.07a2.68,2.68,0,0,0-3.73-.82l-9.52,6a2.67,2.67,0,0,0-.82,3.72l1.9,3-2.07,1.25a4.43,4.43,0,0,0-1.41,6l20.62,33a4.43,4.43,0,0,0,6,1.41L333,206l1.91,3.06a2.67,2.67,0,0,0,3.72.83l9.61-5.88a2.69,2.69,0,0,0,.82-3.72l-1.9-3.07,2.07-1.24a4.43,4.43,0,0,0,1.41-6l-3.48-5.55.74-.17c0-.08-1-4.3,1.41-7.61a1.92,1.92,0,0,1,.33-.42c.83,1.25,1.24,2.32.91,3.23l1.74.5c.5-1.57-.08-3.23-1.32-5,2-1.41,4.8-2.15,8.44-2.32,4.39-.16,7.54-2.23,8.61-5.79C369.38,162.5,367.39,157.12,363.67,154.39Zm-56.55,7.2a1.08,1.08,0,0,1,.33-1.49l9.52-6a1.08,1.08,0,0,1,1.49.33l1.91,3.07L309,164.66Zm-.58,6.54-1.32,2.24A2.61,2.61,0,0,1,306.54,168.13Zm-.66,4.31,3.64-6.13,3.31-2.07L307,174.18Zm2,3.23,7.86-13.33,3.31-2.07-10.1,17.14Zm2.07,3.31L322,158.45a33.16,33.16,0,0,1,3.23-2L311,180.72Zm37.67,22.1a1.08,1.08,0,0,1-.34,1.49l-9.52,6a1.08,1.08,0,0,1-1.49-.34l-1.9-3.06L345.78,198Zm.66-6.54,1.32-2.23A2.58,2.58,0,0,1,348.27,194.54Zm.66-4.22-3.64,6.13L342,198.52l5.87-9.94ZM346.86,187,339,200.34l-3.32,2.07,10.1-17.14Zm-2-3.23-12.08,20.45-2.74,1.66a3.79,3.79,0,0,1-.58.24L343.71,182Zm-2.07-3.31-15.15,25.66a2.39,2.39,0,0,1-1.4-1.15l15.48-26.33Zm-2.07-3.23-15.48,26.33-1.07-1.74,15.48-26.33Zm-2-3.31-15.49,26.33-1.07-1.74,15.48-26.33Zm-2.07-3.23L321.2,197l-1.08-1.74L335.6,169Zm-2-3.23-15.56,26.25L318.05,192l15.48-26.33Zm-2.07-3.31-15.48,26.33-1.08-1.74,15.48-26.33Zm-2.07-3.23-15.48,26.24L314,185.44l15.48-26.33Zm-17.47,23L312,182.21l15.15-25.67a2.41,2.41,0,0,1,1.4,1.16Zm53.24-17.8c-.83,2.81-3.32,4.38-7,4.55a18.18,18.18,0,0,0-8.86,2.23c-.16.17-.41.25-.58.42-1-1.24-2.15-2.49-3.31-3.81-4.3-4.64-9.19-9.93-7.12-15a7.52,7.52,0,0,1,8.86-4.88,9,9,0,0,1,5.8,4.06,11.67,11.67,0,0,0-2.4,1.4,3.67,3.67,0,0,0-1.33,4.64c.75,1.74,2.4,2.82,3.89,2.48.91-.16,2.49-1.07,2.57-5a7.86,7.86,0,0,0-.33-2.49,7.07,7.07,0,0,1,6.12,1.16A9.8,9.8,0,0,1,366.32,166.15Zm-11.51-10.77a7.29,7.29,0,0,1,.25,1.91c0,2.23-.58,3.14-1.08,3.23s-1.41-.5-1.82-1.49a1.81,1.81,0,0,1,.66-2.41l.75-.49A3.15,3.15,0,0,1,354.81,155.38Z"/></clipPath></defs><title>bottoms</title><path d="M64.47,98.63a15.72,15.72,0,0,1-6.29-1.34l-.56-.86v-.09c-.23-3.36-1-14.92-1.89-22.34-.15-1.32-.3-2.78-.46-4.37a213.42,213.42,0,0,0-5.07-31.52h-.38a213.41,213.41,0,0,0-5.07,31.51c-.16,1.59-.31,3.06-.46,4.38-.92,8.14-1.83,21.48-1.89,22.43l-.57.86a15.59,15.59,0,0,1-6.29,1.34,13.09,13.09,0,0,1-5.86-1.34l-.57-.92V42.24C29.1,16.79,31.86,5.4,32,4.93l.56-.67c.17-.06,6-2.89,17.46-2.89s17.29,2.83,17.53,3l.53.69c.08.39,2.84,11.78,2.84,37.23V96.37l-.57.92A13.09,13.09,0,0,1,64.47,98.63ZM51,33.57c4,14.5,5.31,27.34,6.18,35.84.16,1.6.31,3.06.46,4.38.82,7.28,1.63,18.58,1.86,21.87v.13l.12,0a14.05,14.05,0,0,0,4.89.92,11.29,11.29,0,0,0,4.43-.87l.12,0V42.24a251,251,0,0,0-1.21-26.13l0-.19H67.6c-.42,0-.92,0-1.49,0-3.8,0-10.35-.56-11.49-4.27A22.59,22.59,0,0,1,54,9l0-.18h-.18c-.85.05-1.75.08-2.67.1h-.2v16H49.06v-16h-.2c-.92,0-1.82,0-2.67-.1H46L46,9a21.06,21.06,0,0,1-.61,2.68C44.24,15.4,37.69,16,33.89,16c-.57,0-1.07,0-1.49,0h-.19l0,.19A254.59,254.59,0,0,0,31,42.24V95.83l.12,0a11.29,11.29,0,0,0,4.43.87,13.72,13.72,0,0,0,4.89-.92l.12,0v-.13c.23-3.29,1-14.61,1.86-21.87.15-1.32.3-2.78.46-4.36a208,208,0,0,1,6.18-35.86Zm15.26-27A41.23,41.23,0,0,1,56.09,8.67l-.22,0,0,.21a18.27,18.27,0,0,0,.52,2.24c.83,2.72,7.73,2.93,9.83,2.93.38,0,.75,0,1.1,0h.22l0-.22c-.44-3.66-.86-6-1.07-7.13l0-.23ZM33.53,6.7c-.22,1.1-.64,3.49-1.08,7.13l0,.22h.22l1.1,0c2.1,0,9-.21,9.83-2.93a18.72,18.72,0,0,0,.52-2.24l0-.21-.22,0A41.35,41.35,0,0,1,33.79,6.55l-.22-.08ZM50,3.25A49.93,49.93,0,0,0,36.23,5l-.67.19.67.19A49.93,49.93,0,0,0,50,7.07,49.93,49.93,0,0,0,63.77,5.35l.67-.19L63.77,5A49.81,49.81,0,0,0,50,3.25Z"/></svg>