<svg id="Layer_2" data-name="Layer 2" xmlns="http://www.w3.org/2000/svg" viewBox="0 0 100 100"><title>dresses</title><path d="M38.1,39.57c-.27.49-3.59,8.69-3.22,7.42.19-.63,1.31-3.64,2.38-6.5l1.44-3.87.46-1.26a3.17,3.17,0,0,0,.16-.5,14.7,14.7,0,0,0-.73,1.56l-1.52,3.52C36,42.48,34.91,45,35,44.69c.37-1.72,4.39-12.12-9.28,22.21L18.9,84.07a1,1,0,0,0,.59,1.36,1,1,0,0,0,.51.07h0a24.61,24.61,0,0,1,3.75-.21,8.94,8.94,0,0,1,3.41.62,1.37,1.37,0,0,1,.77.76,3.77,3.77,0,0,1,.07.74,2.94,2.94,0,0,0,.08.63,2.34,2.34,0,0,0,.22.7,2,2,0,0,0,1.4,1.2,2.76,2.76,0,0,0,1.55-.1,7,7,0,0,0,2-1.16l-1.66-.47a5.81,5.81,0,0,0,.85,1.48,7,7,0,0,0,1.15,1.16,6.93,6.93,0,0,0,2.93,1.31,11.47,11.47,0,0,0,5.95-.68c1.84-.67,3.47-1.76,5-2.39A22.44,22.44,0,0,1,50,88.36c.42-.1.84-.18,1.25-.24A7.12,7.12,0,0,1,52.35,88l-.92-.8.74,3a1,1,0,0,0,1.26.77,1,1,0,0,0,.76-.75l.05-.17a.65.65,0,0,1,.23-.32,3.05,3.05,0,0,1,.81-.4,10.64,10.64,0,0,1,2.22-.45,35.43,35.43,0,0,1,4.85-.15,90.71,90.71,0,0,1,9.86.88h0a1.14,1.14,0,0,0,.49,0l8-2.75a1.05,1.05,0,0,0,.65-1.34l0,0L68.51,53.13l-2.12-5.37-2.71-6.85-2.51-6.35a1,1,0,0,0-1-.66c-12,0-16.7.17-18.11.24s.41.15,1.48.27c1.29.16-4.26.45-4.13.62a3.75,3.75,0,0,0,.53,0l1.32.06,3.93.13c2.82.1,5.54.2,5.29.25-1.23.26-8.75.36,9.69.47l-1-.66L64.42,48.5v0l2.12,5.37L79.34,86.26,80,84.88l-8,2.75.5,0a94.65,94.65,0,0,0-10.11-.89,35.64,35.64,0,0,0-5.15.16,12.09,12.09,0,0,0-2.68.56,4.68,4.68,0,0,0-1.41.74,2.62,2.62,0,0,0-1,1.77l2.06-.16-.73-3v0a1,1,0,0,0-.91-.75,8.05,8.05,0,0,0-1.62.09q-.73.1-1.44.27a25.69,25.69,0,0,0-2.78.83c-1.87.81-3.31,1.79-4.92,2.37A9.37,9.37,0,0,1,37,90.1a4.91,4.91,0,0,1-2-.91,4.8,4.8,0,0,1-.77-.79,3.87,3.87,0,0,1-.53-.88v0a1.07,1.07,0,0,0-1.39-.59,1.1,1.1,0,0,0-.26.15,4.94,4.94,0,0,1-1.37.79.73.73,0,0,1-.38.06s.05.1,0-.05,0-.14-.07-.24a1.51,1.51,0,0,1,0-.34A4.83,4.83,0,0,0,30,86.06a3.1,3.1,0,0,0-.77-1.27A4.18,4.18,0,0,0,28.12,84a10.69,10.69,0,0,0-4.28-.84,25.87,25.87,0,0,0-4.12.22l1.13,1.43,9.22-23.52C41.21,32.66,39.07,37.82,38.1,39.57Z"/><path d="M62.61,9a6.6,6.6,0,0,1,2,1.76c.71,1,.91,2,.75,1.71A6.09,6.09,0,0,0,63,9.85a4.88,4.88,0,0,0-2-.66,3.31,3.31,0,0,0-.67,0q-.24,0-.24,0a7.07,7.07,0,0,1,2.55,1,3.59,3.59,0,0,1,1.51,1.89c-.29-.26-1.27-1.15-.86-.59a6.5,6.5,0,0,1,.5.77,4.07,4.07,0,0,1,.52,1.82,4.62,4.62,0,0,1-.16,1.41l-.59,2.12c-.43,1.56-.94,3.44-1.56,5.68L59,34.67l1-.78H39.43l1,.78L36.51,20.3l-1-3.59-.24-.9-.12-.45L35.09,15a4.19,4.19,0,0,1,4.35-4.86h6.67C61.92,10.14,59,10,57.9,9.68c-.62-.18,2.27-.49,2.27-.7s-5.85-.38-5.57-.5C55.4,8.14,61,8,42.39,8h-3a6.45,6.45,0,0,0-4.12,1.36A6.26,6.26,0,0,0,33,13.13a6,6,0,0,0,0,2.23l.12.55.12.45.24.9,1,3.59,3.92,14.37.21.78H60.78l.21-.78,4.1-15,.73-2.66c.21-.85.43-1.48.6-2.39a6.29,6.29,0,0,0-.88-4.12A5.87,5.87,0,0,0,62.27,8.5C61,8.22,62.14,8.6,62.61,9Z"/><path d="M32.45,88.07c.08-.09.45-1.52.48-1.3s-.28,2.09-.22,2.11.61-1.81.67-1.71c.15.29-.16,2.08,1.06-3.83l4.1-19.78.2-.93L39,61.44c1.05-5,.77-4.12.51-3.81s-.13-.78-.26-.8-.61,1.81-.66,1.71c-.15-.3.16-2.08-1.07,3.83h0l-.19.94L33,84.27C31.92,89.3,32.19,88.38,32.45,88.07Z"/><path d="M56.69,88.79c-.07.11-.46,1.83-.49,1.57s.3-2.49.24-2.51-.64,2.18-.69,2.07c-.12-.29.09-1.81-.61,1.84l.53-.5a3.43,3.43,0,0,1-.94-.05,1.84,1.84,0,0,1-.93-.67A5,5,0,0,1,53.09,88c-.06-.91.07-1.92.11-2.92l.36-6,.72-12,.06-1.13.09-1.45c.37-6.11.22-5,0-4.57-.12.23-.24-.89-.37-.9s-.36,2.24-.42,2.14c-.19-.33-.13-2.48-.55,4.69h0L53,67l-.76,12.73-.38,6.36-.05.8a8,8,0,0,0,0,.85,8.31,8.31,0,0,0,.2,1.71,4.94,4.94,0,0,0,.66,1.68,3,3,0,0,0,1.53,1.24,3.53,3.53,0,0,0,.91.17l.73,0a.55.55,0,0,0,.52-.46V92C57.2,87.5,56.94,88.44,56.69,88.79Z"/><path d="M64,65.19c0,.13.45,1.81.3,1.6s-.91-2.32-1-2.3.47,2.2.37,2.13c-.29-.23-1-2.24,1.19,4.53l3.61,11.36c.58,1.89,1.18,3.79,1.7,5.68.32,1,.18,1.47-.49,2a6.57,6.57,0,0,1-2.53.84c-.36.06-.72.1-1.08.13s-.92,0-1.39.06-1,0-1.4,0l.58.58c-.34-4.39-.35-3.43-.5-3s-.35-.84-.48-.83-.06,2.25-.14,2.15-.37-1.72-.13,1.81a.62.62,0,0,0,.58.58,20.41,20.41,0,0,0,3,0h0c.38,0,.77-.07,1.16-.13a7.05,7.05,0,0,0,3.24-1.19,2.51,2.51,0,0,0,1-1.76,3.22,3.22,0,0,0-.07-1l-.21-.78c-.58-2-1.21-4-1.84-6.07l-3.84-12C63.81,63.64,64.08,64.73,64,65.19Z"/></svg>