<svg id="Layer_1" data-name="Layer 1" xmlns="http://www.w3.org/2000/svg" xmlns:xlink="http://www.w3.org/1999/xlink" viewBox="0 0 100 100"><defs><style>.cls-1{fill:none;}.cls-2{clip-path:url(#clip-path);}</style><clipPath id="clip-path"><path class="cls-1" d="M77.67,154.39a8.87,8.87,0,0,0-7.87-1.33,10.41,10.41,0,0,0-7.12-5.13,9.48,9.48,0,0,0-10.93,6c-2.48,6.13,2.82,11.84,7.45,16.89,1.16,1.33,2.41,2.57,3.32,3.73a9.11,9.11,0,0,0-.75.91,10.58,10.58,0,0,0-2,6.79L43.89,156.79a4.36,4.36,0,0,0-6-1.41l-2.07,1.33-1.9-3.07a2.68,2.68,0,0,0-3.73-.82l-9.52,6a2.67,2.67,0,0,0-.82,3.72l1.9,3-2.07,1.25a4.43,4.43,0,0,0-1.41,6l20.62,33a4.43,4.43,0,0,0,6,1.41L47,206,48.86,209a2.67,2.67,0,0,0,3.72.83L62.19,204a2.69,2.69,0,0,0,.82-3.72l-1.9-3.07L63.18,196a4.43,4.43,0,0,0,1.41-6l-3.48-5.55.74-.17c0-.08-1-4.3,1.41-7.61a1.92,1.92,0,0,1,.33-.42c.83,1.25,1.24,2.32.91,3.23l1.74.5c.5-1.57-.08-3.23-1.32-5,2-1.41,4.8-2.15,8.44-2.32,4.39-.16,7.54-2.23,8.61-5.79C83.38,162.5,81.39,157.12,77.67,154.39Zm-56.55,7.2a1.08,1.08,0,0,1,.33-1.49l9.52-6a1.08,1.08,0,0,1,1.49.33l1.91,3.07L23,164.66Zm-.58,6.54-1.32,2.24A2.61,2.61,0,0,1,20.54,168.13Zm-.66,4.31,3.64-6.13,3.31-2.07L21,174.18Zm2,3.23,7.86-13.33L33,160.27l-10.1,17.14ZM23.94,179,36,158.45a33.16,33.16,0,0,1,3.23-2L25,180.72Zm37.67,22.1a1.08,1.08,0,0,1-.34,1.49l-9.52,6a1.08,1.08,0,0,1-1.49-.34l-1.9-3.06L59.78,198Zm.66-6.54,1.32-2.23A2.58,2.58,0,0,1,62.27,194.54Zm.66-4.22-3.64,6.13L56,198.52l5.87-9.94ZM60.86,187,53,200.34l-3.32,2.07,10.1-17.14Zm-2-3.23L46.79,204.23l-2.74,1.66a3.79,3.79,0,0,1-.58.24L57.71,182Zm-2.07-3.31L41.65,206.13a2.39,2.39,0,0,1-1.4-1.15l15.48-26.33Zm-2.07-3.23L39.25,203.57l-1.07-1.74L53.66,175.5Zm-2-3.31L37.26,200.26l-1.07-1.74,15.48-26.33Zm-2.07-3.23L35.2,197l-1.08-1.74L49.6,169Zm-2-3.23L33.13,193.72,32.05,192l15.48-26.33Zm-2.07-3.31L31.14,190.49l-1.08-1.74,15.48-26.33Zm-2.07-3.23L29.07,187.17,28,185.44l15.48-26.33ZM27.08,184,26,182.21l15.15-25.67a2.41,2.41,0,0,1,1.4,1.16Zm53.24-17.8c-.83,2.81-3.32,4.38-7,4.55a18.18,18.18,0,0,0-8.86,2.23c-.16.17-.41.25-.58.42-1-1.24-2.15-2.49-3.31-3.81-4.3-4.64-9.19-9.93-7.12-15a7.52,7.52,0,0,1,8.86-4.88,9,9,0,0,1,5.8,4.06,11.67,11.67,0,0,0-2.4,1.4,3.67,3.67,0,0,0-1.33,4.64c.75,1.74,2.4,2.82,3.89,2.48.91-.16,2.49-1.07,2.57-5a7.86,7.86,0,0,0-.33-2.49A7.07,7.07,0,0,1,76.67,156,9.8,9.8,0,0,1,80.32,166.15ZM68.81,155.38a7.29,7.29,0,0,1,.25,1.91c0,2.23-.58,3.14-1.08,3.23s-1.41-.5-1.82-1.49a1.81,1.81,0,0,1,.66-2.41l.75-.49A3.15,3.15,0,0,1,68.81,155.38Z"/></clipPath></defs><title>dresses</title><path d="M81.33,85.7l-19.45-50c.9-3.16,5.43-19.22,5.43-21.91a7,7,0,0,0-6.59-6.59h-22a7,7,0,0,0-6.59,6.59c0,2.69,4.53,18.75,5.43,21.91L18.67,84.36l1.09.37s2.73.93,4.66,1.55a12,12,0,0,0,2.5.43,5.08,5.08,0,0,1,2,.42l-.09.19a1.37,1.37,0,0,0,.22,1.2c.15.23.58.87,3.06,1.24l0,.29.67.35a15.1,15.1,0,0,0,6,1.56h.18c2.43,0,5.56-1.27,7.84-2.17A23.67,23.67,0,0,1,49,89a13.62,13.62,0,0,1,3-.08c0,.59,0,.91,0,.93h0a2.69,2.69,0,0,0,.52,1.68,3.49,3.49,0,0,0,3,1.3,7.52,7.52,0,0,0,1.19-.11l.91-.16v-3.8a12.28,12.28,0,0,1,4-.49l.63.07v3.54l.92.15a26.29,26.29,0,0,0,3.68.36h1.23c1.72,0,4.28-.26,4.53-2.72a4.54,4.54,0,0,0,0-.74,32.06,32.06,0,0,0,7.77-2.78Zm-47-71.92a4.82,4.82,0,0,1,4.39-4.39h22a4.82,4.82,0,0,1,4.39,4.39c0,1.84-3,13.19-5.22,20.87H39.59C37.41,27,34.37,15.62,34.37,13.78ZM55.44,90.61a1.64,1.64,0,0,1-1-.31.58.58,0,0,1-.15-.22,8.36,8.36,0,0,1,1.2-.59Zm12-.43H66.9A20.47,20.47,0,0,1,64.5,90V88.77a43.12,43.12,0,0,1,4.28,1.4A11,11,0,0,1,67.48,90.18Zm4.87-3.42c-.87-4.53-3.51-13-7.3-23.19L63,64.34c5,13.47,7.06,21.25,7.43,24.11a33.27,33.27,0,0,0-8.59-2.39,17.05,17.05,0,0,0-7.52,1.53c.22-4.54.77-15.28,1.73-28.7l-2.19-.16c-.91,12.73-1.46,23.05-1.7,28a14.4,14.4,0,0,0-3.6.13,19.86,19.86,0,0,0-2.59.91c-2.13.83-5.05,2-7.09,2a11.63,11.63,0,0,1-4.41-1c.38-2.93,1.95-14,6.12-31.9l-2.14-.49c-3.84,16.49-5.49,27.22-6,31.2-.4-.06-.77-.14-1.07-.21a2.38,2.38,0,0,0-.41-1.23c-.75-1.31-2.36-1.47-3.78-1.61a10,10,0,0,1-2.05-.33L21.55,83l18-46.18H60L78.55,84.61A26.82,26.82,0,0,1,72.35,86.76Z"/></svg>