<svg id="Layer_1" data-name="Layer 1" xmlns="http://www.w3.org/2000/svg" xmlns:xlink="http://www.w3.org/1999/xlink" viewBox="0 0 100 100"><defs><style>.cls-1{fill:none;}.cls-2{clip-path:url(#clip-path);}</style><clipPath id="clip-path"><path class="cls-1" d="M77.67,154.39a8.87,8.87,0,0,0-7.87-1.33,10.41,10.41,0,0,0-7.12-5.13,9.48,9.48,0,0,0-10.93,6c-2.48,6.13,2.82,11.84,7.45,16.89,1.16,1.33,2.41,2.57,3.32,3.73a9.11,9.11,0,0,0-.75.91,10.58,10.58,0,0,0-2,6.79L43.89,156.79a4.36,4.36,0,0,0-6-1.41l-2.07,1.33-1.9-3.07a2.68,2.68,0,0,0-3.73-.82l-9.52,6a2.67,2.67,0,0,0-.82,3.72l1.9,3-2.07,1.25a4.43,4.43,0,0,0-1.41,6l20.62,33a4.43,4.43,0,0,0,6,1.41L47,206,48.86,209a2.67,2.67,0,0,0,3.72.83L62.19,204a2.69,2.69,0,0,0,.82-3.72l-1.9-3.07L63.18,196a4.43,4.43,0,0,0,1.41-6l-3.48-5.55.74-.17c0-.08-1-4.3,1.41-7.61a1.92,1.92,0,0,1,.33-.42c.83,1.25,1.24,2.32.91,3.23l1.74.5c.5-1.57-.08-3.23-1.32-5,2-1.41,4.8-2.15,8.44-2.32,4.39-.16,7.54-2.23,8.61-5.79C83.38,162.5,81.39,157.12,77.67,154.39Zm-56.55,7.2a1.08,1.08,0,0,1,.33-1.49l9.52-6a1.08,1.08,0,0,1,1.49.33l1.91,3.07L23,164.66Zm-.58,6.54-1.32,2.24A2.61,2.61,0,0,1,20.54,168.13Zm-.66,4.31,3.64-6.13,3.31-2.07L21,174.18Zm2,3.23,7.86-13.33L33,160.27l-10.1,17.14ZM23.94,179,36,158.45a33.16,33.16,0,0,1,3.23-2L25,180.72Zm37.67,22.1a1.08,1.08,0,0,1-.34,1.49l-9.52,6a1.08,1.08,0,0,1-1.49-.34l-1.9-3.06L59.78,198Zm.66-6.54,1.32-2.23A2.58,2.58,0,0,1,62.27,194.54Zm.66-4.22-3.64,6.13L56,198.52l5.87-9.94ZM60.86,187,53,200.34l-3.32,2.07,10.1-17.14Zm-2-3.23L46.79,204.23l-2.74,1.66a3.79,3.79,0,0,1-.58.24L57.71,182Zm-2.07-3.31L41.65,206.13a2.39,2.39,0,0,1-1.4-1.15l15.48-26.33Zm-2.07-3.23L39.25,203.57l-1.07-1.74L53.66,175.5Zm-2-3.31L37.26,200.26l-1.07-1.74,15.48-26.33Zm-2.07-3.23L35.2,197l-1.08-1.74L49.6,169Zm-2-3.23L33.13,193.72,32.05,192l15.48-26.33Zm-2.07-3.31L31.14,190.49l-1.08-1.74,15.48-26.33Zm-2.07-3.23L29.07,187.17,28,185.44l15.48-26.33ZM27.08,184,26,182.21l15.15-25.67a2.41,2.41,0,0,1,1.4,1.16Zm53.24-17.8c-.83,2.81-3.32,4.38-7,4.55a18.18,18.18,0,0,0-8.86,2.23c-.16.17-.41.25-.58.42-1-1.24-2.15-2.49-3.31-3.81-4.3-4.64-9.19-9.93-7.12-15a7.52,7.52,0,0,1,8.86-4.88,9,9,0,0,1,5.8,4.06,11.67,11.67,0,0,0-2.4,1.4,3.67,3.67,0,0,0-1.33,4.64c.75,1.74,2.4,2.82,3.89,2.48.91-.16,2.49-1.07,2.57-5a7.86,7.86,0,0,0-.33-2.49A7.07,7.07,0,0,1,76.67,156,9.8,9.8,0,0,1,80.32,166.15ZM68.81,155.38a7.29,7.29,0,0,1,.25,1.91c0,2.23-.58,3.14-1.08,3.23s-1.41-.5-1.82-1.49a1.81,1.81,0,0,1,.66-2.41l.75-.49A3.15,3.15,0,0,1,68.81,155.38Z"/></clipPath></defs><title>dresses</title><path d="M55.53,92.71a3.45,3.45,0,0,1-2.91-1.25,2.66,2.66,0,0,1-.5-1.62v-.11h0l0-.92h-.1c-.44,0-.93,0-1.4,0a7.92,7.92,0,0,0-1.66.13,19.93,19.93,0,0,0-2.22.79c-2.33.91-5.44,2.13-7.86,2.18h-.17a14.81,14.81,0,0,1-5.94-1.55L32.19,90l0-.32h-.09c-2.45-.36-2.87-1-3-1.2a1.24,1.24,0,0,1-.2-1.11.71.71,0,0,1,.08-.18l0-.07-.07,0a5.06,5.06,0,0,0-2.06-.44,11.52,11.52,0,0,1-2.48-.43c-1.93-.62-4.66-1.54-4.66-1.54l-1-.34L37.69,35.73c-.9-3.25-5.42-19.28-5.42-21.95a6.93,6.93,0,0,1,6.49-6.49h22a6.94,6.94,0,0,1,6.49,6.49c0,2.67-4.52,18.7-5.43,21.89l19.42,50-.82.41a31.48,31.48,0,0,1-7.74,2.77h-.09v.1a5.74,5.74,0,0,1,0,.72c-.24,2.36-2.64,2.63-4.43,2.63H66.9a27.27,27.27,0,0,1-3.65-.35l-.85-.14V88.23h-.09l-.63-.07-.63,0a13.28,13.28,0,0,0-3.45.51l-.07,0v3.8l-.83.14a6.8,6.8,0,0,1-1.17.11ZM55.4,89.4a9.26,9.26,0,0,0-1.22.6l-.07,0,0,.08a.94.94,0,0,0,.18.25,1.69,1.69,0,0,0,1.11.34h.1V89.34Zm9,.67h.09a19.54,19.54,0,0,0,2.42.19l1.16,0c.26,0,.5,0,.73,0l0-.19a43.58,43.58,0,0,0-4.3-1.41l-.13,0ZM40.46,56.94c-4.14,17.77-5.72,28.83-6.11,31.8v.08l.07,0a11.92,11.92,0,0,0,4.33,1h.12c2.06,0,5-1.18,7.12-2a21.57,21.57,0,0,1,2.57-.91,11.08,11.08,0,0,1,2.13-.17c.51,0,1,0,1.46,0h.1v-.1c.24-5,.79-15.27,1.69-27.87l2,.14c-1,13.58-1.53,24.52-1.72,28.6v.17l.15-.07a18,18,0,0,1,6.76-1.55c.24,0,.48,0,.71,0a33.09,33.09,0,0,1,8.56,2.39l.16.06,0-.17c-.39-3-2.54-10.9-7.41-24L65,63.7c3.74,10.07,6.38,18.48,7.27,23.08l0,.09h.09a27.85,27.85,0,0,0,6.23-2.16l.08,0L60,36.75H39.44l-18,46.33.1,0,3.54,1.17a10.82,10.82,0,0,0,2.06.33c1.4.14,3,.3,3.71,1.56a2.31,2.31,0,0,1,.4,1.18v.08l.08,0c.29.07.67.14,1.07.21l.1,0,0-.11c.53-3.85,2.18-14.58,6-31.09ZM38.76,9.29a4.94,4.94,0,0,0-4.5,4.49c0,2,3.42,14.53,5.23,20.9l0,.07H60l0-.07c1.81-6.37,5.23-18.92,5.23-20.9a4.94,4.94,0,0,0-4.49-4.49Z"/><path d="M55.52,92.51a3.22,3.22,0,0,1-2.74-1.17,2.39,2.39,0,0,1-.47-1.5l0-.31h0l0-.91-.29,0c-.44,0-.94,0-1.42,0a8.42,8.42,0,0,0-1.7.13,22.84,22.84,0,0,0-2.25.8c-2.29.9-5.41,2.12-7.79,2.17h-.17a14.52,14.52,0,0,1-5.84-1.53l-.49-.25,0-.38-.28,0c-2.36-.35-2.74-.92-2.86-1.11a1,1,0,0,1-.18-.93,1,1,0,0,1,.07-.15l.12-.22-.2-.16A5.12,5.12,0,0,0,27,86.41,12,12,0,0,1,24.5,86c-1.92-.62-4.65-1.54-4.65-1.54l-.79-.27L37.91,35.71l0-.1c-.9-3.18-5.42-19.2-5.42-21.83a6.72,6.72,0,0,1,6.29-6.29h22A6.72,6.72,0,0,1,67,13.78c0,2.65-4.51,18.65-5.42,21.83v.13L80.94,85.55l-.65.33a31.63,31.63,0,0,1-7.68,2.75l-.27,0V89a4,4,0,0,1,0,.69c-.22,2.2-2.51,2.45-4.22,2.45H66.9a26.89,26.89,0,0,1-3.63-.35l-.68-.11V88.06l-.26,0L61.69,88l-.64,0a13.2,13.2,0,0,0-3.5.52l-.22.06v3.78l-.67.11a6.44,6.44,0,0,1-1.13.11Zm-.21-3.3a10.11,10.11,0,0,0-1.24.62l-.22.14.11.23a.9.9,0,0,0,.23.32,1.84,1.84,0,0,0,1.23.39h.31V89Zm12.74,1.28c.27,0,.51,0,.74,0h.08l.09-.55-.08,0a43.27,43.27,0,0,0-4.32-1.41l-.37-.1v1.86l.26,0a20,20,0,0,0,2.44.19h0ZM40.22,57.09c-4.11,17.67-5.68,28.67-6.07,31.63l0,.22.21.09a12.17,12.17,0,0,0,4.41,1h.13c2.1,0,5-1.19,7.19-2a21.18,21.18,0,0,1,2.54-.89A10.63,10.63,0,0,1,50.69,87c.51,0,1,0,1.44,0l.3,0,0-.3c.24-5,.77-15.14,1.67-27.67l1.59.12C54.75,72.6,54.2,83.5,54,87.57l0,.5.45-.21a17.78,17.78,0,0,1,6.68-1.53c.23,0,.47,0,.69,0a33.14,33.14,0,0,1,8.5,2.37l.47.19-.06-.5c-.38-3-2.51-10.85-7.34-23.91L64.86,64c3.69,10,6.31,18.3,7.19,22.86l0,.28.29,0a29.41,29.41,0,0,0,6.28-2.17l.25-.12L60.17,36.54H39.3L21.15,83.21l.3.1L25,84.48a10.71,10.71,0,0,0,2.1.34c1.36.13,2.89.28,3.57,1.46A2.33,2.33,0,0,1,31,87.36v.23l.23.06c.3.08.69.15,1.1.22l.3,0,0-.31c.53-3.82,2.16-14.48,6-30.88Zm-1.47-48a5.15,5.15,0,0,0-4.69,4.69c0,2,3.42,14.58,5.23,20.95l.06.22H60.11l.06-.22c1.81-6.37,5.24-19,5.24-20.95a5.16,5.16,0,0,0-4.7-4.69Z"/></svg>