<svg id="Layer_1" data-name="Layer 1" xmlns="http://www.w3.org/2000/svg" xmlns:xlink="http://www.w3.org/1999/xlink" viewBox="0 0 100 100"><defs><style>.cls-1{fill:none;}.cls-2{clip-path:url(#clip-path);}</style><clipPath id="clip-path"><path class="cls-1" d="M216.67,274.39a8.87,8.87,0,0,0-7.87-1.33,10.41,10.41,0,0,0-7.12-5.13,9.48,9.48,0,0,0-10.93,6c-2.48,6.13,2.82,11.84,7.45,16.89,1.16,1.33,2.41,2.57,3.32,3.73a9.11,9.11,0,0,0-.75.91,10.58,10.58,0,0,0-2,6.79l-15.89-25.42a4.36,4.36,0,0,0-6-1.41l-2.07,1.33-1.9-3.07a2.68,2.68,0,0,0-3.73-.82l-9.52,6a2.67,2.67,0,0,0-.82,3.72l1.9,3-2.07,1.25a4.43,4.43,0,0,0-1.41,6l20.62,33a4.43,4.43,0,0,0,6,1.41L186,326l1.91,3.06a2.67,2.67,0,0,0,3.72.83l9.61-5.88a2.69,2.69,0,0,0,.82-3.72l-1.9-3.07,2.07-1.24a4.43,4.43,0,0,0,1.41-6l-3.48-5.55.74-.17c0-.08-1-4.3,1.41-7.61a1.92,1.92,0,0,1,.33-.42c.83,1.25,1.24,2.32.91,3.23l1.74.5c.5-1.57-.08-3.23-1.32-5.05,2-1.41,4.8-2.15,8.44-2.32,4.39-.16,7.54-2.23,8.61-5.79C222.38,282.5,220.39,277.12,216.67,274.39Zm-56.55,7.2a1.08,1.08,0,0,1,.33-1.49l9.52-6a1.08,1.08,0,0,1,1.49.33l1.91,3.07L162,284.66Zm-.58,6.54-1.32,2.24A2.61,2.61,0,0,1,159.54,288.13Zm-.66,4.31,3.64-6.13,3.31-2.07L160,294.18Zm2,3.23,7.86-13.33,3.31-2.07-10.1,17.14Zm2.07,3.31L175,278.45a33.16,33.16,0,0,1,3.23-2L164,300.72Zm37.67,22.1a1.08,1.08,0,0,1-.34,1.49l-9.52,6a1.08,1.08,0,0,1-1.49-.34l-1.9-3.06L198.78,318Zm.66-6.54,1.32-2.23A2.58,2.58,0,0,1,201.27,314.54Zm.66-4.22-3.64,6.13L195,318.52l5.87-9.94ZM199.86,307,192,320.34l-3.32,2.07,10.1-17.14Zm-2-3.23-12.08,20.45-2.74,1.66a3.79,3.79,0,0,1-.58.24L196.71,302Zm-2.07-3.31-15.15,25.66a2.39,2.39,0,0,1-1.4-1.15l15.48-26.33Zm-2.07-3.23-15.48,26.33-1.07-1.74,15.48-26.33Zm-2-3.31-15.49,26.33-1.07-1.74,15.48-26.33Zm-2.07-3.23L174.2,317l-1.08-1.74L188.6,289Zm-2-3.23-15.56,26.25L171.05,312l15.48-26.33Zm-2.07-3.31-15.48,26.33-1.08-1.74,15.48-26.33Zm-2.07-3.23-15.48,26.24L167,305.44l15.48-26.33Zm-17.47,23L165,302.21l15.15-25.67a2.41,2.41,0,0,1,1.4,1.16Zm53.24-17.8c-.83,2.81-3.32,4.38-7,4.55a18.18,18.18,0,0,0-8.86,2.23c-.16.17-.41.25-.58.42-1-1.24-2.15-2.49-3.31-3.81-4.3-4.64-9.19-9.93-7.12-15a7.52,7.52,0,0,1,8.86-4.88,9,9,0,0,1,5.8,4.06,11.67,11.67,0,0,0-2.4,1.4,3.67,3.67,0,0,0-1.33,4.64c.75,1.74,2.4,2.82,3.89,2.48.91-.16,2.49-1.07,2.57-5a7.86,7.86,0,0,0-.33-2.49,7.07,7.07,0,0,1,6.12,1.16A9.8,9.8,0,0,1,219.32,286.15Zm-11.51-10.77a7.29,7.29,0,0,1,.25,1.91c0,2.23-.58,3.14-1.08,3.23s-1.41-.5-1.82-1.49a1.81,1.81,0,0,1,.66-2.41l.75-.49A3.15,3.15,0,0,1,207.81,275.38Z"/></clipPath></defs><title>coats</title><path d="M54.1,29.39a1.79,1.79,0,1,0,1.79,1.79A1.78,1.78,0,0,0,54.1,29.39Zm0,2.49a.7.7,0,1,1,.7-.7A.68.68,0,0,1,54.1,31.88Z"/><path d="M53.9,43a1.79,1.79,0,1,0-1.79-1.79A1.79,1.79,0,0,0,53.9,43Zm0-2.49a.68.68,0,0,1,.7.7.7.7,0,0,1-1.4,0A.68.68,0,0,1,53.9,40.54Z"/><path d="M54.1,49.2A1.8,1.8,0,1,0,55.89,51,1.78,1.78,0,0,0,54.1,49.2Zm0,2.49a.7.7,0,1,1,.7-.69A.68.68,0,0,1,54.1,51.69Z"/><path d="M53.9,59a1.8,1.8,0,1,0,1.79,1.79A1.78,1.78,0,0,0,53.9,59Zm0,2.49a.7.7,0,1,1,.7-.7A.68.68,0,0,1,53.9,61.45Z"/><path d="M53.7,68.62a1.79,1.79,0,1,0,1.79,1.79A1.78,1.78,0,0,0,53.7,68.62Zm0,2.59a.7.7,0,1,1,.7-.7C54.5,70.81,54.1,71.21,53.7,71.21Z"/><path d="M53.6,78.38a1.79,1.79,0,1,0,1.79,1.79A1.78,1.78,0,0,0,53.6,78.38Zm0,2.49a.7.7,0,1,1,.7-.7A.68.68,0,0,1,53.6,80.87Z"/><path d="M39.26,65.83c0,.1-2.09,11.35-8.36,11.25v1.6h.2c6.57,0,9.06-9.26,9.66-11.85h5.47v-1.6H40.06A.64.64,0,0,0,39.26,65.83Z"/><path d="M63.56,65.83a.85.85,0,0,0-.8-.7H56.29v1.6h5.87c.6,2.59,3.09,11.85,9.66,11.85H72V77h-.1C65.65,77.08,63.56,65.93,63.56,65.83Z"/><path d="M92.43,60.55a1.85,1.85,0,0,0,.7-1.09c.6-2.49-6-20.11-6.67-22.11-1.69-4.68-7.57-19.91-10.16-22-2.89-2.39-10-4-12.94-4.58l1.79-1.69L57.88,4.5l-7.76,9.56L42.35,4.5,35.08,9.08l1.39,1.29c-3.08.6-12.14,2.79-13.84,7.17-.29.8-1,2.39-1.89,4.58-2.39,5.78-6.37,15.33-9.56,23.8C6.21,60,6.4,62.84,7.4,63.84l.2.2L7,66a.83.83,0,0,0,.5,1c7.07,2.59,9.66,3.08,10.55,3.08a2.18,2.18,0,0,0,.6-.1,1.44,1.44,0,0,0,.5-.59,10.93,10.93,0,0,1,.5-1.7h.49a.8.8,0,0,0,.8-.49l8.37-23.9L25.12,92.12a1,1,0,0,0,.7.89c.1,0,11.55,1.3,23.1,2,5.68.29,10.06.49,13.44.49,11,0,12-1.49,12.45-2.09.5-.79,2-3-1.49-32.76-.9-7.26-1.8-14.53-2.49-19.91l7.56,23.4a.87.87,0,0,0,.9.6c.3,0,.6-.1,1-.1a12.85,12.85,0,0,1,.49,1.79c.1.3.2.5.5.6.1.1.2.1.6.1,1,0,3.48-.5,10.55-3.09a.83.83,0,0,0,.5-1Zm-34.15-54,4.28,2.69-10,9.36-1.49-3.19Zm-16.23,0,7.17,8.76-1.49,3.19-10-9.36ZM17.76,68.52a71,71,0,0,1-9-2.69l.3-.79c2.59,1.39,6.57,2.09,9,2.38C18,67.72,17.85,68.12,17.76,68.52ZM31.5,37a.87.87,0,0,0-.6-.9.72.72,0,0,0-.9.5L19.65,66c-2.89-.3-9.06-1.29-11.15-3.29-.2-.29-.8-2.29,4.38-16.52C16,37.85,20,28.39,22.24,22.72c.89-2.19,1.59-3.89,1.89-4.58,1.29-3.49,10.15-5.78,13.44-6.37l-.1-.4,7,6.57A4.88,4.88,0,0,1,43,22.32a.9.9,0,0,0-.5-.1,1.3,1.3,0,1,0,1.29,1.29.35.35,0,0,0-.1-.29,5.11,5.11,0,0,0,1.9-4.09l2.58,2.39.6-1.39-.2,73.28c-6.87-.4-14.44-1.09-21.8-1.89Zm38.13-5.68a.82.82,0,0,0-1-.5.78.78,0,0,0-.6.9c3.18,21.9,7.47,57.75,5.57,60.74-1,1.49-10.45,1.69-22.8,1L51,19.23l1,2.19,5.57-5.27a5.35,5.35,0,0,0,1.9,4.28c0,.1-.1.2-.1.3a1.29,1.29,0,1,0,1.29-1.3.9.9,0,0,0-.5.1A4.51,4.51,0,0,1,58.68,15l3-2.79c1.69.3,10.35,2,13.44,4.48,3.48,2.79,16.82,39.63,16.33,42.42-.3,1.39-6.18,2.89-11.65,3.68Zm12.75,34L82.08,64c2.79-.4,6.67-1.2,9-2.49l.3,1A61.66,61.66,0,0,1,82.38,65.23Z"/></svg>