<svg id="Layer_1" data-name="Layer 1" xmlns="http://www.w3.org/2000/svg" xmlns:xlink="http://www.w3.org/1999/xlink" viewBox="0 0 100 100"><defs><style>.cls-1{fill:none;}.cls-2{clip-path:url(#clip-path);}</style><clipPath id="clip-path"><path class="cls-1" d="M216.67,154.39a8.87,8.87,0,0,0-7.87-1.33,10.41,10.41,0,0,0-7.12-5.13,9.48,9.48,0,0,0-10.93,6c-2.48,6.13,2.82,11.84,7.45,16.89,1.16,1.33,2.41,2.57,3.32,3.73a9.11,9.11,0,0,0-.75.91,10.58,10.58,0,0,0-2,6.79l-15.89-25.42a4.36,4.36,0,0,0-6-1.41l-2.07,1.33-1.9-3.07a2.68,2.68,0,0,0-3.73-.82l-9.52,6a2.67,2.67,0,0,0-.82,3.72l1.9,3-2.07,1.25a4.43,4.43,0,0,0-1.41,6l20.62,33a4.43,4.43,0,0,0,6,1.41L186,206l1.91,3.06a2.67,2.67,0,0,0,3.72.83l9.61-5.88a2.69,2.69,0,0,0,.82-3.72l-1.9-3.07,2.07-1.24a4.43,4.43,0,0,0,1.41-6l-3.48-5.55.74-.17c0-.08-1-4.3,1.41-7.61a1.92,1.92,0,0,1,.33-.42c.83,1.25,1.24,2.32.91,3.23l1.74.5c.5-1.57-.08-3.23-1.32-5,2-1.41,4.8-2.15,8.44-2.32,4.39-.16,7.54-2.23,8.61-5.79C222.38,162.5,220.39,157.12,216.67,154.39Zm-56.55,7.2a1.08,1.08,0,0,1,.33-1.49l9.52-6a1.08,1.08,0,0,1,1.49.33l1.91,3.07L162,164.66Zm-.58,6.54-1.32,2.24A2.61,2.61,0,0,1,159.54,168.13Zm-.66,4.31,3.64-6.13,3.31-2.07L160,174.18Zm2,3.23,7.86-13.33,3.31-2.07-10.1,17.14Zm2.07,3.31L175,158.45a33.16,33.16,0,0,1,3.23-2L164,180.72Zm37.67,22.1a1.08,1.08,0,0,1-.34,1.49l-9.52,6a1.08,1.08,0,0,1-1.49-.34l-1.9-3.06L198.78,198Zm.66-6.54,1.32-2.23A2.58,2.58,0,0,1,201.27,194.54Zm.66-4.22-3.64,6.13L195,198.52l5.87-9.94ZM199.86,187,192,200.34l-3.32,2.07,10.1-17.14Zm-2-3.23-12.08,20.45-2.74,1.66a3.79,3.79,0,0,1-.58.24L196.71,182Zm-2.07-3.31-15.15,25.66a2.39,2.39,0,0,1-1.4-1.15l15.48-26.33Zm-2.07-3.23-15.48,26.33-1.07-1.74,15.48-26.33Zm-2-3.31-15.49,26.33-1.07-1.74,15.48-26.33Zm-2.07-3.23L174.2,197l-1.08-1.74L188.6,169Zm-2-3.23-15.56,26.25L171.05,192l15.48-26.33Zm-2.07-3.31-15.48,26.33-1.08-1.74,15.48-26.33Zm-2.07-3.23-15.48,26.24L167,185.44l15.48-26.33Zm-17.47,23L165,182.21l15.15-25.67a2.41,2.41,0,0,1,1.4,1.16Zm53.24-17.8c-.83,2.81-3.32,4.38-7,4.55a18.18,18.18,0,0,0-8.86,2.23c-.16.17-.41.25-.58.42-1-1.24-2.15-2.49-3.31-3.81-4.3-4.64-9.19-9.93-7.12-15a7.52,7.52,0,0,1,8.86-4.88,9,9,0,0,1,5.8,4.06,11.67,11.67,0,0,0-2.4,1.4,3.67,3.67,0,0,0-1.33,4.64c.75,1.74,2.4,2.82,3.89,2.48.91-.16,2.49-1.07,2.57-5a7.86,7.86,0,0,0-.33-2.49,7.07,7.07,0,0,1,6.12,1.16A9.8,9.8,0,0,1,219.32,166.15Zm-11.51-10.77a7.29,7.29,0,0,1,.25,1.91c0,2.23-.58,3.14-1.08,3.23s-1.41-.5-1.82-1.49a1.81,1.81,0,0,1,.66-2.41l.75-.49A3.15,3.15,0,0,1,207.81,155.38Z"/></clipPath></defs><title>shoes</title><path d="M91.67,56.33a8.13,8.13,0,0,0-7.59-7.22L83,49c-5.69-.5-14.29-1.25-17.36-2.78S45.46,33.13,44,32.12a3,3,0,0,0-1.77-.92c-1.54-.27-3.39.37-5.52,1.89-3,2.13-7.53,4.64-12.27,4.48-1.31,0-3-.27-4.65-.49-4.64-.61-7.54-.92-8.62.48a1.81,1.81,0,0,0-.37,1.28C9.17,41,7.43,49.89,8.86,57.3c0,0,0,.08,0,.12V66.6a1,1,0,0,0,.84,1,99.1,99.1,0,0,0,10.94,1,81.15,81.15,0,0,0,10.87-.34,1,1,0,0,0,.89-1V65c3.94.68,16.46,2.84,19.75,3.28a62.8,62.8,0,0,0,8.39.57,73.73,73.73,0,0,0,19-2.7C88.2,63.89,91.1,62,91.22,62a1,1,0,0,0,.45-.83v-4.7s0,0,0,0A.43.43,0,0,0,91.67,56.33ZM69.52,50.67a3.08,3.08,0,0,0-.31-1.31A135.41,135.41,0,0,0,82.86,51l1,.09a6.11,6.11,0,0,1,5.71,5c-.75.71-3.57,2.83-11.89,4.76C66.56,63.45,56.48,63,52.42,62.13,49.5,61.47,41.23,59.89,35.06,59c.28-1.4,1.06-4,3-4.86,1.14-.52,5.67-.16,10.06.19,3.95.31,8.19.65,11.82.58h0c3.2-.06,5.93-.43,7.57-1.42A3.32,3.32,0,0,0,69.52,50.67Zm-26-16.43,2,1.34-1.92,2.78a1,1,0,0,0,.26,1.39,1,1,0,0,0,.56.18,1,1,0,0,0,.83-.44l1.93-2.8L49,37.89,47.17,40.5a1,1,0,0,0,.25,1.39,1,1,0,0,0,1.39-.26L50.63,39l1.65,1.1-1.13,1.62a1,1,0,0,0,.26,1.4,1,1,0,0,0,1.39-.26L54,41.2c4.61,3,9.24,6,10.82,6.82.25.13.52.24.82.36.64.4,1.93,1.47,1.93,2.28,0,.46-.53.88-1,1.14-1.26.76-3.53,1.06-6.26,1.13L39,38.88A26.48,26.48,0,0,0,43.54,34.24Zm-24,4.82c1.69.23,3.44.46,4.85.51,5.29.18,10.25-2.55,13.49-4.86,2-1.4,3.27-1.66,4-1.54a22.83,22.83,0,0,1-9.69,7.34c-4.28,1.57-12.84,2.33-19.28-1.8C13.82,38.31,17.33,38.78,19.49,39.06ZM12,40.57c7,4.34,16.2,3.51,20.8,1.82a21.41,21.41,0,0,0,4.43-2.26L56.61,52.89c-2.73-.09-5.64-.32-8.29-.53-6-.48-9.5-.72-11,0-2.88,1.3-3.89,4.69-4.22,6.42a36.6,36.6,0,0,0-4.13-.35c-11.92,0-16.45-1-18.16-1.67A33.78,33.78,0,0,1,12,40.57Zm77.64,20A52.51,52.51,0,0,1,79,64.23c-10,2.61-18,3.23-26.58,2.08-3.8-.51-20.68-3.45-20.85-3.48a1,1,0,0,0-1.17,1v2.54a79.18,79.18,0,0,1-9.69.25,97.42,97.42,0,0,1-9.85-.88V58.86c3.23,1,9.3,1.54,18.1,1.54,4,0,18.31,2.62,23.05,3.68a43.16,43.16,0,0,0,8.78.74,78.35,78.35,0,0,0,17.4-2c6.33-1.46,9.72-3.07,11.5-4.23Z"/></svg>