<svg id="Layer_2" data-name="Layer 2" xmlns="http://www.w3.org/2000/svg" viewBox="0 0 100 100"><title>shoes</title><path d="M17.24,37c.34,0,2.82.65,5,.88s4.24,0,3.59.13a14.36,14.36,0,0,1-2.65.19,31,31,0,0,1-4.54-.43,10.66,10.66,0,0,0-4.31-.15,2.61,2.61,0,0,0-1.45,1.24s.16-.15.4-.41a2.32,2.32,0,0,1,1.09-.62,9.92,9.92,0,0,1,4,.32,37.52,37.52,0,0,0,4,.67,15.05,15.05,0,0,1,1.63.16,12.61,12.61,0,0,1-2.12.12c-.72,0-1.2,0-.6.08a15.93,15.93,0,0,0,1.82.18,18.81,18.81,0,0,0,4.12-.26,20.07,20.07,0,0,0,6.54-2.44,88.75,88.75,0,0,1,8.82-4.42l-1-.17c1.1.89,2.75,2.17,4.57,3.54,3.48,2.58,7,5.08,10.74,7.35a60.14,60.14,0,0,0,5.75,3.16,39.59,39.59,0,0,0,6.2,2.3,47.57,47.57,0,0,0,6.46,1.37c2.16.32,4.34.47,6.44.71a27.3,27.3,0,0,1,3.07.51A7.77,7.77,0,0,1,87.41,52a7.32,7.32,0,0,1,2,2,8.23,8.23,0,0,1,1.17,2.55l0-.21v5.19l.66-1c-4.61,1.69-9.53,3-14.37,4.32l-3.65.93-3.63.77-3.68.52-3.71.27a78.19,78.19,0,0,1-14.89-.88,86.89,86.89,0,0,1-14.52-3.43h0a1,1,0,0,0-1.33.66,1,1,0,0,0,0,.33v3.21l1-1.05L23,66.35l-6.14.1-7.21.1,1.07,1.13,0-.61c.22-3.26.42-6.14.58-8.4v-.16A87.32,87.32,0,0,1,11.05,46a21.63,21.63,0,0,1,.7-4.66c.36-1.18-.36.25-.66,1.24-.2.6-.17-.58.17-1.84a4,4,0,0,1,.83-1.65c.34-.39.86-.41.76-.44.08,0-.18-.1-.53,0a2.31,2.31,0,0,0-1.08,1,11.34,11.34,0,0,0-1.32,4c-.14.75-.23,1.49-.3,2.18s-.12,1.33-.16,1.87a15.29,15.29,0,0,1-.14,1.59c-.15-.69-.16-3.07-.23-2.91a19.23,19.23,0,0,0-.17,2.69c0,1.88,0,4.92.37,9.61v-.16c-.17,2.3-.38,5.31-.64,9a1,1,0,0,0,1,1.12h.09l7.18-.1h0l6.14-.09,9.35-.14a1.06,1.06,0,0,0,1-1.06V64.05L32,65A87.89,87.89,0,0,0,47,68.57a79.73,79.73,0,0,0,15.29.9l3.84-.28,3.82-.54,3.78-.8,3.67-.94c4.91-1.31,9.76-2.62,14.63-4.4a1,1,0,0,0,.65-.94V56.3a1.1,1.1,0,0,0,0-.18,10.4,10.4,0,0,0-1.72-3.63,9.32,9.32,0,0,0-3-2.63,12,12,0,0,0-3.73-1.18c-1.22-.22-2.43-.35-3.63-.47-2.39-.23-4.73-.46-7-.89a45.64,45.64,0,0,1-6.76-1.83,58.77,58.77,0,0,1-12.36-6.67c-3.94-2.64-7.78-5.48-11.48-8.43l0,0a1.05,1.05,0,0,0-1-.15c-.69.28-1.29.55-1.93.85-1.9.88-3.61,1.78-5.18,2.62l-2.25,1.25a21.45,21.45,0,0,1-2,1,16.69,16.69,0,0,1-6.86,1.38A30.67,30.67,0,0,1,19,36.84c-1.19-.19-2.08-.32-2.71-.35C13.68,36.55,16.15,36.58,17.24,37Z"/><path d="M42.61,32c0,.05-.11.51-.23.9s-.29.72-.28.59.14-.7.17-1.25a2.58,2.58,0,0,0-.1-1.06s0,.51-.16,1a2.21,2.21,0,0,1-.32.87c0-.16,0-.68-.11-.43a9.74,9.74,0,0,1-.39,1.07,7.7,7.7,0,0,1-1.89,2.64,15.79,15.79,0,0,1-4.48,2.86l-1.24.53-1.29.45c-.85.32-1.74.52-2.62.76a28.26,28.26,0,0,1-10.74,1l-1-.2c-.41-.08-.8-.24-1.2-.36a6.77,6.77,0,0,1-2.38-1.48,5.62,5.62,0,0,1-.72-.86c-.19-.28-.13,0-.11.23s-.62-.52-.71-.53a2.2,2.2,0,0,0,.34,1c.26.47.61.88.55.87s-.65-.46-.47-.18a4.86,4.86,0,0,0,1,1A9.13,9.13,0,0,0,17.65,43h0l1.08.22A30.52,30.52,0,0,0,30.63,42a30.3,30.3,0,0,0,5.64-2.07,14.2,14.2,0,0,0,4.85-3.71,7.69,7.69,0,0,0,1.53-3,4.51,4.51,0,0,0,.17-1.4C42.78,31.42,42.72,31.84,42.61,32Z"/><path d="M58.18,53.84c0-.1-1-.85-.78-.81s1.47.86,1.51.81-1.11-1.08-1-1.09c.29,0,1.51.74-2.45-2.08L42.19,41.23l-.62-.45-.8-.57c-3.37-2.4-2.79-1.89-2.67-1.57s-.66-.1-.73,0,1.11,1.08,1,1.09c-.3.05-1.52-.75,2.44,2.08h0l.63.44,14,10C58.88,54.67,58.3,54.16,58.18,53.84Z"/><path d="M33.56,57.73c0-.14,1.19-1.84,1.1-1.55s-.42.76-.68,1.39a10.61,10.61,0,0,0-.46,1.24,8.43,8.43,0,0,0,.68-1.08,3.63,3.63,0,0,1,.69-.93c0,.21-.29.81-.07.53.12-.12.3-.53.84-1.19l.46-.57c.18-.2.41-.39.64-.62a7.26,7.26,0,0,1,2-1.26,7.47,7.47,0,0,1,5-.16h.05l.07,0a85.33,85.33,0,0,0,10.94.86,53.31,53.31,0,0,0,5.5-.2,27.43,27.43,0,0,0,5.48-1,8.23,8.23,0,0,0,1.29-.51,4.35,4.35,0,0,0,1.52-1.16,2.44,2.44,0,0,0,.54-1.49,3.08,3.08,0,0,0-.28-1.26,6,6,0,0,0-1-1.45,7,7,0,0,0-1.25-1.1c-.42-.29-.1,0,0,.28s-1-.4-1.06-.27.47.44.89.89a3.72,3.72,0,0,1,.71.91c-.19-.06-.7-.48-.49-.21A7.67,7.67,0,0,1,67.55,49c.41.68.79,1.76-1,2.61h0a7.77,7.77,0,0,1-1.11.44A26.4,26.4,0,0,1,60.2,53a53.33,53.33,0,0,1-5.37.2,83.89,83.89,0,0,1-10.75-.85l.12,0A8.76,8.76,0,0,0,40.34,52a8.1,8.1,0,0,0-3.6,1.38l-.55.4c-.17.14-.31.29-.46.43A5.5,5.5,0,0,0,35,55l-.57.72-.39.63a7.24,7.24,0,0,0-.73,1.47C33.12,58.3,33.37,57.91,33.56,57.73Z"/><path d="M90.11,57.59A26.08,26.08,0,0,1,86.83,59c.22-.17,1.46-.75,2.59-1.4l1.49-.91a4.7,4.7,0,0,0,.65-.43,6.46,6.46,0,0,0-.7.32l-1.48.75a14.28,14.28,0,0,1-2.08.87c.26-.24,1.43-.87.78-.61-.33.11-1.07.53-2.67,1.17a54.54,54.54,0,0,1-7.8,2.51,79.76,79.76,0,0,1-25.83,1.54A98.47,98.47,0,0,1,39,60.47a43.08,43.08,0,0,0-6.53-1.25,15,15,0,0,0-3.41.18,15.8,15.8,0,0,0-1.66.35c-.53.11-1,.22-1.53.29s-.78.08-1.18.1l-1.2,0-1.55-.05L20.39,60a65.41,65.41,0,0,1-7.13-1.19l-2.91-.65c-.91-.2-.11.08.31.29s-1.91-.2-1.95-.09a3.45,3.45,0,0,0,.72.27c.44.15,1,.34,1.6.51,1.15.35,2.29.65,2.17.66-.35,0-1.68-.21-1,0,.34.1,1.18.32,2.91.67a47.09,47.09,0,0,0,8.36,1h0l1.27,0c.43,0,.86-.07,1.28-.11.59-.08,1.23-.22,1.78-.34s1.09-.25,1.64-.34a13.58,13.58,0,0,1,3.31-.1,55.11,55.11,0,0,1,6.71,1.37,89.69,89.69,0,0,0,13.76,2.34,84.75,84.75,0,0,0,14,0A68,68,0,0,0,81,61.69c1.6-.52,3-.95,4.1-1.43l1.55-.62,1.25-.6a20.81,20.81,0,0,0,2.68-1.45C91.34,57.08,90.56,57.45,90.11,57.59Z"/><path d="M43.71,39.4s.29-.1.32,0-.17.37-.13.42.4-.07.44,0-.08.45.7-.29L47.69,37l.13-.11.15-.15c.68-.63.5-.57.32-.67s-.1-.31-.19-.4-.41.07-.44,0,.08-.46-.71.29h0l-.12.11L44,38.73C43.35,39.37,43.53,39.31,43.71,39.4Z"/><path d="M46.56,41.41s.3-.1.32,0-.17.37-.13.42.41-.07.44,0-.08.46.71-.28L50.54,39l.13-.11.16-.15c.67-.63.49-.58.31-.67s-.1-.31-.19-.4-.4.07-.44,0,.09-.46-.7.29h0l-.13.11-2.8,2.63C46.2,41.37,46.38,41.32,46.56,41.41Z"/><path d="M49.63,43.43s.3-.1.32,0-.17.37-.13.41.41-.06.45,0-.09.45.7-.29l2.65-2.48.12-.12.16-.15c.67-.63.49-.57.32-.67s-.11-.3-.2-.39-.4.06-.44,0,.09-.45-.7.29h0l-.13.12L50,42.76C49.28,43.39,49.46,43.33,49.63,43.43Z"/></svg>