<svg id="Layer_2" data-name="Layer 2" xmlns="http://www.w3.org/2000/svg" viewBox="0 0 100 100"><title>tops</title><path d="M59.15,86.58c-.4-.09-6.26-.21-5.43-.34.41-.06,2.5-.13,4.48-.19L60.88,86a7,7,0,0,0,1.19-.09c0-.14-7.53-.37-7.19-.49,1-.35,8.21-.46-15.74-.44H32.4l1.05,1V34.91a1.05,1.05,0,0,0-2.06-.3L25,56.06l-1.08,3.63-1.38,4.62c-1,3.44-1.81,6.16-2.39,8.09l1.34-.69C11.38,68.23,14,69.27,15,69.9c.7.43-2.91-.5-3-.3s7,2.84,6.62,2.84c-.8,0-4.63-1.22,2.23,1.22a1,1,0,0,0,1.3-.62l0,0h0c.73-2.43,1.94-6.46,3.8-12.68v0L27,56.65,33.41,35.2l-2.06-.29V86a1,1,0,0,0,1,1H43.94C64.34,87,60.56,86.89,59.15,86.58Z"/><path d="M9.8,67.91c.14-.17,1-3,1-2.61s-.8,4.2-.7,4.23,1.32-3.63,1.39-3.44c.21.6-.6,4.18,2.42-7.68l7.85-30.85,0,.09A16.47,16.47,0,0,1,23.93,24a25.9,25.9,0,0,1,3-3.21c.47-.41.95-.8,1.43-1.21.64-.46,1.26-1,1.93-1.39l1.48-.95,1.31-.73c.78-.48,1.49-.76,2-1.05,1.1-.57,1.77-.79,2.08-1,.63-.33,0-.2-.4-.21s1.19-1,1.13-1.21-3.74,1.1-3.61,1c.17-.27,1.09-.84.56-.66-.27.09-.9.36-2.17,1A34.85,34.85,0,0,0,27.05,18h0c-.51.44-1,.85-1.53,1.3a28.28,28.28,0,0,0-3.25,3.49A18.26,18.26,0,0,0,19.75,27v.09L11.28,60.26C8.71,70.37,9.31,68.53,9.8,67.91Z"/><path d="M39,14.12a8.19,8.19,0,0,0,.48,1.31c.25.56.47,1.08.32.95a11.29,11.29,0,0,1-1.1-1.66c-.44-.76-.8-1.53-.84-1.51a5.54,5.54,0,0,0,.42,1.64,8.77,8.77,0,0,1,.52,1.51c-.28-.12-.81-.91-.64-.44a11.44,11.44,0,0,0,1,1.86,18.13,18.13,0,0,0,3.93,4.5,11.24,11.24,0,0,0,6.16,2.5,13.06,13.06,0,0,0,6.47-1.21,13.6,13.6,0,0,0,5.15-4.09,12.41,12.41,0,0,0,1.63-2.94,10.59,10.59,0,0,0,.63-3.36,1,1,0,0,0-1-1.06H47c-9.09,0-7.41.14-6.78.46.36.18-1.3.49-1.3.7s3.36.38,3.2.5c-.46.34-3.66.45,7,.45h12.9l-1-1.05a8.68,8.68,0,0,1-2.14,5.4,10.21,10.21,0,0,1-2.25,2.05,11,11,0,0,1-2.7,1.4,10.36,10.36,0,0,1-5.94.43,10.26,10.26,0,0,1-5.05-3.18,20.38,20.38,0,0,1-2.77-3.81c-.53-.92-.79-1.45-1-1.71C38.91,13.23,39,13.78,39,14.12Z"/><path d="M54.32,85.38c.57.09,9,.23,7.78.35-.59.06-3.59.12-6.43.18L51.83,86,50.6,86a1.63,1.63,0,0,0-.47,0,14.8,14.8,0,0,0,1.68.12l3.65.14c2.64.1,5.21.19,5,.25-1.19.28-8,.39,7.31.45a1,1,0,0,0,1-1h0c0-3.33,0-8.4,0-15.24V34.91l-2.06.29L78,73a1.07,1.07,0,0,0,1.3.72l11.16-3.19a1.06,1.06,0,0,0,.73-1.27l-6.92-27.2-1.34-5.26-1.7-6.7c-.3-1.18-.59-2.31-.78-3V27A18,18,0,0,0,78,22.85a25,25,0,0,0-2.64-2.93,29,29,0,0,0-4.68-3.67c-1.33-.89-2.45-1.42-3.27-1.88l-1.86-.83c-1.61-.66,0,.17.79.75.48.33-.53,0-1.67-.41a12.92,12.92,0,0,0-2.47-.61,12.05,12.05,0,0,0,1.5.74c.93.39,2.09,1,3.25,1.64a22.73,22.73,0,0,1,4,2.76,16.1,16.1,0,0,0-2.21-1.07c.19.2,1.06.66,2.83,2a29.14,29.14,0,0,1,3.21,2.94,23,23,0,0,1,1.91,2.32,15.84,15.84,0,0,1,1.73,3l0-.09c.67,2.63,1.49,5.89,2.47,9.72v0l1.34,5.26,6.92,27.19.73-1.27L78.68,71.68l1.3.72L68.75,34.61a1.05,1.05,0,0,0-2.06.3V77.63c0,3.25,0,6.07,0,8.37l1-1C48.05,85,52.52,85.1,54.32,85.38Z"/></svg>