<svg id="Layer_2" data-name="Layer 2" xmlns="http://www.w3.org/2000/svg" viewBox="0 0 100 100"><title>underwear</title><path d="M15.93,31.31c0,.52.05,9.18-.11,7.94-.07-.63-.2-3.77-.3-6.8l-.14-4.1L15.32,27a4.06,4.06,0,0,0,0-.52,13.92,13.92,0,0,0-.07,1.7L15.13,32C15.07,34.8,15,37.58,15,37.3c-.14-.65-.23-2.72-.3-2.89S14.51,36,14.59,43v.37l.25.29,12,13.83L41.87,74.9l.31.36H58l.31-.39,25.56-32,.23-.29v-17H83l-27.45,0-5.81,0-7.4,0c-31.23.21-25.31.27-23,.49,1.33.13-4.1.37-3.95.51a3.27,3.27,0,0,0,.53,0l1.33,0,3.95.11c2.85.07,5.61.15,5.38.2-1.36.26-12,.28,23.88.5h0l5.67,0,26.8.05-1-1.05V42.19l.23-.66-25.56,32,.82-.39H42.66l.79.36L23.63,50.64l-7.22-8.32.25.66c-.17-8.69-.45-12-.53-13S16,30.49,15.93,31.31Z"/><path d="M84.41,34.39c-.21-.09-3.4-.21-3-.34S86,33.8,86,33.69s-4.09-.38-3.91-.5c.56-.35,4.47-.45-8.56-.45H25.22c-11.1,0-9,.13-8.28.45.44.18-1.58.49-1.58.7s4.1.39,3.9.5c-.56.35-4.46.45,8.57.45H76.14C87.23,34.84,85.18,34.71,84.41,34.39Z"/><path d="M55.41,75.1c.1-.14.32-2.33.43-2s.12,3.12.22,3.12.51-2.77.62-2.63.25,1,.33.57c.06-.19.06-.68.18-1.65l.19-1.86c.08-.76.24-1.66.39-2.74a43.44,43.44,0,0,1,1.81-7,32,32,0,0,1,3.18-6.45,25.25,25.25,0,0,1,10.66-9.27c.41-.19.83-.35,1.25-.53s1.07-.42,1.62-.59a35.49,35.49,0,0,1,5.49-1.24c.49-.12,0-.19-.24-.33s1-.57,1-.76a4,4,0,0,0-1.42-.16,6.53,6.53,0,0,1-1.33-.06c.16-.22.93-.43.51-.44a8.68,8.68,0,0,0-1.73.23,26.34,26.34,0,0,0-4.7,1.39h0c-.45.2-.9.37-1.35.58A27.64,27.64,0,0,0,60.49,54a39.62,39.62,0,0,0-5.06,15.31,33.39,33.39,0,0,0-.37,6C55.11,75.85,55.24,75.36,55.41,75.1Z"/><path d="M43.31,75.22c.08-.14-.06-2.23.11-2s.61,2.95.72,2.94,0-2.73.18-2.62.4.89.42.5a13.54,13.54,0,0,0-.13-1.65l-.21-1.86c-.09-.76-.33-1.65-.56-2.72l-.39-1.79A12.32,12.32,0,0,0,43,64.28l-1.16-3.5a39.35,39.35,0,0,0-3.33-6.61A29.72,29.72,0,0,0,27.85,43.93l-1.25-.66c-.52-.3-1.1-.49-1.64-.74A18,18,0,0,0,19.27,41c-.55,0-.07.18.16.37s-1.14.33-1.15.56,2.57.8,2.41.94-.93.08-.59.22c.18.07.61.22,1.49.46l1.67.58c.67.28,1.48.59,2.4,1h0l1.15.62A27.93,27.93,0,0,1,37.14,56a42.35,42.35,0,0,1,5,13.93C43.14,77.07,43,75.76,43.31,75.22Z"/></svg>