<svg id="Layer_1" data-name="Layer 1" xmlns="http://www.w3.org/2000/svg" xmlns:xlink="http://www.w3.org/1999/xlink" viewBox="0 0 100 100"><defs><style>.cls-1{fill:none;}.cls-2{clip-path:url(#clip-path);}</style><clipPath id="clip-path"><path class="cls-1" d="M216.67,25.39a8.87,8.87,0,0,0-7.87-1.33,10.41,10.41,0,0,0-7.12-5.13,9.48,9.48,0,0,0-10.93,6c-2.48,6.13,2.82,11.84,7.45,16.89,1.16,1.33,2.41,2.57,3.32,3.73a9.11,9.11,0,0,0-.75.91,10.58,10.58,0,0,0-2,6.79L182.89,27.79a4.36,4.36,0,0,0-6-1.41l-2.07,1.33-1.9-3.07a2.68,2.68,0,0,0-3.73-.82l-9.52,6a2.67,2.67,0,0,0-.82,3.72l1.9,3-2.07,1.25a4.43,4.43,0,0,0-1.41,6l20.62,33a4.43,4.43,0,0,0,6,1.41L186,77,187.86,80a2.67,2.67,0,0,0,3.72.83L201.19,75a2.69,2.69,0,0,0,.82-3.72l-1.9-3.07L202.18,67a4.43,4.43,0,0,0,1.41-6l-3.48-5.55.74-.17c0-.08-1-4.3,1.41-7.61a1.92,1.92,0,0,1,.33-.42c.83,1.25,1.24,2.32.91,3.23l1.74.5c.5-1.57-.08-3.23-1.32-5,2-1.41,4.8-2.15,8.44-2.32,4.39-.16,7.54-2.23,8.61-5.79C222.38,33.5,220.39,28.12,216.67,25.39Zm-56.55,7.2a1.08,1.08,0,0,1,.33-1.49l9.52-6a1.08,1.08,0,0,1,1.49.33l1.91,3.07L162,35.66Zm-.58,6.54-1.32,2.24A2.61,2.61,0,0,1,159.54,39.13Zm-.66,4.31,3.64-6.13,3.31-2.07L160,45.18Zm2,3.23,7.86-13.33L172,31.27l-10.1,17.14ZM162.94,50,175,29.45a33.16,33.16,0,0,1,3.23-2L164,51.72Zm37.67,22.1a1.08,1.08,0,0,1-.34,1.49l-9.52,6a1.08,1.08,0,0,1-1.49-.34l-1.9-3.06L198.78,69Zm.66-6.54,1.32-2.23A2.58,2.58,0,0,1,201.27,65.54Zm.66-4.22-3.64,6.13L195,69.52l5.87-9.94ZM199.86,58,192,71.34l-3.32,2.07,10.1-17.14Zm-2-3.23L185.79,75.23l-2.74,1.66a3.79,3.79,0,0,1-.58.24L196.71,53Zm-2.07-3.31L180.65,77.13a2.39,2.39,0,0,1-1.4-1.15l15.48-26.33Zm-2.07-3.23L178.25,74.57l-1.07-1.74L192.66,46.5Zm-2-3.31L176.26,71.26l-1.07-1.74,15.48-26.33Zm-2.07-3.23L174.2,68l-1.08-1.74L188.6,40Zm-2-3.23L172.13,64.72,171.05,63l15.48-26.33Zm-2.07-3.31L170.14,61.49l-1.08-1.74,15.48-26.33Zm-2.07-3.23L168.07,58.17,167,56.44l15.48-26.33ZM166.08,55,165,53.21l15.15-25.67a2.41,2.41,0,0,1,1.4,1.16Zm53.24-17.8c-.83,2.81-3.32,4.38-7,4.55a18.18,18.18,0,0,0-8.86,2.23c-.16.17-.41.25-.58.42-1-1.24-2.15-2.49-3.31-3.81-4.3-4.64-9.19-9.93-7.12-15a7.52,7.52,0,0,1,8.86-4.88,9,9,0,0,1,5.8,4.06,11.67,11.67,0,0,0-2.4,1.4,3.67,3.67,0,0,0-1.33,4.64c.75,1.74,2.4,2.82,3.89,2.48.91-.16,2.49-1.07,2.57-5a7.86,7.86,0,0,0-.33-2.49A7.07,7.07,0,0,1,215.67,27,9.8,9.8,0,0,1,219.32,37.15ZM207.81,26.38a7.29,7.29,0,0,1,.25,1.91c0,2.23-.58,3.14-1.08,3.23s-1.41-.5-1.82-1.49a1.81,1.81,0,0,1,.66-2.41l.75-.49A3.15,3.15,0,0,1,207.81,26.38Z"/></clipPath></defs><title>underwear</title><path d="M43.24,74.5l-.16,0-.24-.11a1.3,1.3,0,0,1-.18-.15L15.62,43a.91.91,0,0,1-.11-.16,1.25,1.25,0,0,1-.1-.21c0-.09,0-.15-.05-.21a1.12,1.12,0,0,1,0-.2V26.56a1,1,0,0,1,.89-1.06H83.8a1,1,0,0,1,.86,1V42.19a1.64,1.64,0,0,1,0,.22.65.65,0,0,1,0,.13.5.5,0,0,1-.08.2.85.85,0,0,1-.14.23l-27,31.24a1.59,1.59,0,0,1-.13.13l-.16.1-.15,0H43.24ZM17.05,41.14l.38,0c14.26.78,26,14.28,26.63,30.73v.32l.3.14,11.55,0,0-.39c.67-16.51,12.33-30,26.54-30.83h.31l.14-.3,0-5.41H17.05Zm63.17,2.4C68.64,45.38,59.45,56,57.86,69.32l-.19,1.62,23.9-27.61ZM42.33,70.94l-.19-1.62C40.55,56,31.36,45.38,19.78,43.54l-1.35-.21ZM17.05,33.31H83V27.62H17.05Z"/></svg>