<svg id="Layer_1" data-name="Layer 1" xmlns="http://www.w3.org/2000/svg" xmlns:xlink="http://www.w3.org/1999/xlink" viewBox="0 0 100 100"><defs><style>.cls-1{fill:none;}.cls-2{clip-path:url(#clip-path);}</style><clipPath id="clip-path"><path class="cls-1" d="M216.67,25.39a8.87,8.87,0,0,0-7.87-1.33,10.41,10.41,0,0,0-7.12-5.13,9.48,9.48,0,0,0-10.93,6c-2.48,6.13,2.82,11.84,7.45,16.89,1.16,1.33,2.41,2.57,3.32,3.73a9.11,9.11,0,0,0-.75.91,10.58,10.58,0,0,0-2,6.79L182.89,27.79a4.36,4.36,0,0,0-6-1.41l-2.07,1.33-1.9-3.07a2.68,2.68,0,0,0-3.73-.82l-9.52,6a2.67,2.67,0,0,0-.82,3.72l1.9,3-2.07,1.25a4.43,4.43,0,0,0-1.41,6l20.62,33a4.43,4.43,0,0,0,6,1.41L186,77,187.86,80a2.67,2.67,0,0,0,3.72.83L201.19,75a2.69,2.69,0,0,0,.82-3.72l-1.9-3.07L202.18,67a4.43,4.43,0,0,0,1.41-6l-3.48-5.55.74-.17c0-.08-1-4.3,1.41-7.61a1.92,1.92,0,0,1,.33-.42c.83,1.25,1.24,2.32.91,3.23l1.74.5c.5-1.57-.08-3.23-1.32-5,2-1.41,4.8-2.15,8.44-2.32,4.39-.16,7.54-2.23,8.61-5.79C222.38,33.5,220.39,28.12,216.67,25.39Zm-56.55,7.2a1.08,1.08,0,0,1,.33-1.49l9.52-6a1.08,1.08,0,0,1,1.49.33l1.91,3.07L162,35.66Zm-.58,6.54-1.32,2.24A2.61,2.61,0,0,1,159.54,39.13Zm-.66,4.31,3.64-6.13,3.31-2.07L160,45.18Zm2,3.23,7.86-13.33L172,31.27l-10.1,17.14ZM162.94,50,175,29.45a33.16,33.16,0,0,1,3.23-2L164,51.72Zm37.67,22.1a1.08,1.08,0,0,1-.34,1.49l-9.52,6a1.08,1.08,0,0,1-1.49-.34l-1.9-3.06L198.78,69Zm.66-6.54,1.32-2.23A2.58,2.58,0,0,1,201.27,65.54Zm.66-4.22-3.64,6.13L195,69.52l5.87-9.94ZM199.86,58,192,71.34l-3.32,2.07,10.1-17.14Zm-2-3.23L185.79,75.23l-2.74,1.66a3.79,3.79,0,0,1-.58.24L196.71,53Zm-2.07-3.31L180.65,77.13a2.39,2.39,0,0,1-1.4-1.15l15.48-26.33Zm-2.07-3.23L178.25,74.57l-1.07-1.74L192.66,46.5Zm-2-3.31L176.26,71.26l-1.07-1.74,15.48-26.33Zm-2.07-3.23L174.2,68l-1.08-1.74L188.6,40Zm-2-3.23L172.13,64.72,171.05,63l15.48-26.33Zm-2.07-3.31L170.14,61.49l-1.08-1.74,15.48-26.33Zm-2.07-3.23L168.07,58.17,167,56.44l15.48-26.33ZM166.08,55,165,53.21l15.15-25.67a2.41,2.41,0,0,1,1.4,1.16Zm53.24-17.8c-.83,2.81-3.32,4.38-7,4.55a18.18,18.18,0,0,0-8.86,2.23c-.16.17-.41.25-.58.42-1-1.24-2.15-2.49-3.31-3.81-4.3-4.64-9.19-9.93-7.12-15a7.52,7.52,0,0,1,8.86-4.88,9,9,0,0,1,5.8,4.06,11.67,11.67,0,0,0-2.4,1.4,3.67,3.67,0,0,0-1.33,4.64c.75,1.74,2.4,2.82,3.89,2.48.91-.16,2.49-1.07,2.57-5a7.86,7.86,0,0,0-.33-2.49A7.07,7.07,0,0,1,215.67,27,9.8,9.8,0,0,1,219.32,37.15ZM207.81,26.38a7.29,7.29,0,0,1,.25,1.91c0,2.23-.58,3.14-1.08,3.23s-1.41-.5-1.82-1.49a1.81,1.81,0,0,1,.66-2.41l.75-.49A3.15,3.15,0,0,1,207.81,26.38Z"/></clipPath></defs><title>underwear</title><path d="M45.87,69.36l.13,1h8l.13-1c2.81-22.5,34.19-28.48,34.51-28.54l1-.18V32.56h-.2a4.11,4.11,0,0,0-6.9-1.7,4.12,4.12,0,0,0-5.91,0,4.12,4.12,0,0,0-5.91,0,4.12,4.12,0,0,0-5.91,0,4.12,4.12,0,0,0-5.91,0,4.12,4.12,0,0,0-5.91,0,4.13,4.13,0,0,0-5.92,0,4.12,4.12,0,0,0-5.91,0,4.12,4.12,0,0,0-5.91,0,4.12,4.12,0,0,0-5.91,0,4.12,4.12,0,0,0-5.91,0,4.12,4.12,0,0,0-5.91,0,4.11,4.11,0,0,0-6.9,1.7h-.2v8.08l1,.18C11.68,40.88,43.06,46.86,45.87,69.36ZM87.24,38.69c-5.52,1.19-31.84,8-35.31,29.34H48.07C44.6,46.67,18.28,39.88,12.76,38.69V34.93H87.24ZM85.47,32a1.75,1.75,0,0,1,1.31.59H84.16A1.75,1.75,0,0,1,85.47,32Zm-5.91,0a1.75,1.75,0,0,1,1.31.59H78.25A1.75,1.75,0,0,1,79.56,32Zm-5.91,0a1.77,1.77,0,0,1,1.31.59H72.33A1.77,1.77,0,0,1,73.65,32Zm-5.92,0a1.77,1.77,0,0,1,1.32.59H66.42A1.77,1.77,0,0,1,67.73,32Zm-5.91,0a1.75,1.75,0,0,1,1.31.59H60.51A1.77,1.77,0,0,1,61.82,32Zm-5.91,0a1.75,1.75,0,0,1,1.31.59H54.6A1.75,1.75,0,0,1,55.91,32ZM50,32a1.75,1.75,0,0,1,1.31.59H48.69A1.75,1.75,0,0,1,50,32Zm-5.91,0a1.75,1.75,0,0,1,1.31.59H42.78A1.75,1.75,0,0,1,44.09,32Zm-5.91,0a1.77,1.77,0,0,1,1.31.59H36.86A1.79,1.79,0,0,1,38.18,32Zm-5.91,0a1.77,1.77,0,0,1,1.31.59H31A1.77,1.77,0,0,1,32.27,32Zm-5.92,0a1.74,1.74,0,0,1,1.31.59H25A1.77,1.77,0,0,1,26.35,32Zm-5.91,0a1.75,1.75,0,0,1,1.31.59H19.13A1.75,1.75,0,0,1,20.44,32Zm-5.91,0a1.75,1.75,0,0,1,1.31.59H13.22A1.75,1.75,0,0,1,14.53,32Z"/></svg>